<mxfile host="app.diagrams.net" modified="2021-11-12T02:49:15.395Z" agent="5.0 (Windows NT 10.0; Win64; x64) AppleWebKit/537.36 (KHTML, like Gecko) Chrome/95.0.4638.69 Safari/537.36" etag="uTwewjsLhxEVdu1KNnXh" version="15.7.3" type="github">
  <diagram id="kwU1YeQqBs1jz23uGjtF" name="ページ1">
    <mxGraphModel dx="1447" dy="750" grid="1" gridSize="10" guides="1" tooltips="1" connect="1" arrows="1" fold="1" page="1" pageScale="1" pageWidth="4681" pageHeight="3300" math="0" shadow="0">
      <root>
        <mxCell id="0" />
        <mxCell id="1" parent="0" />
        <mxCell id="ooqM9sPuauhWhxl2Y_vB-14" value="AWS Cloud" style="swimlane;align=left;startSize=40;swimlaneLine=0;spacingRight=0;spacing=0;spacingLeft=50;fontSize=20;labelBackgroundColor=none;fillColor=none;" vertex="1" parent="1">
          <mxGeometry x="160" y="280" width="1650" height="840" as="geometry" />
        </mxCell>
        <mxCell id="ooqM9sPuauhWhxl2Y_vB-16" value="Region" style="swimlane;align=left;startSize=40;swimlaneLine=0;spacingRight=0;spacing=0;spacingLeft=50;fontSize=20;labelBackgroundColor=none;fillColor=none;dashed=1;" vertex="1" parent="ooqM9sPuauhWhxl2Y_vB-14">
          <mxGeometry x="40" y="40" width="1560" height="760" as="geometry" />
        </mxCell>
        <mxCell id="ooqM9sPuauhWhxl2Y_vB-18" value="" style="shape=image;verticalLabelPosition=bottom;labelBackgroundColor=#ffffff;verticalAlign=top;aspect=fixed;imageAspect=0;image=data:image/png,iVBORw0KGgoAAAANSUhEUgAAACgAAAAoCAYAAACM/rhtAAABU0lEQVRYCWNIWX3pv9/8M4MS/////z+DQd/h/0J1uwYlHnUgpTEzGoIDEoLLzj39//D9t/++807TPGORHMX2046D9IDB1usvB58DQVF25P67/z9+/x2cIQhyIChqQY6kNH0Rox8UVSQX1CAHUgOYTzpK0JNkO5DcEFRs2/f/0vNP/7PXXyHoOFAI09WBpDqOrg4kx3F0cyC5jqObA2OWXQAX7CCHgiwlBdMtDXbuvwvOHKQ6km4OBIUaOY6kqwPJcSTZDgSVZaACmxy85/YboqObbAd++P4bXN2BCmxyMMiRxHQ1yHYguTUJKTkYpHbUgaSGGLr60RBEDxFS+aMhSGqIoasfDUH0ECGVPxqCpIYYunqiQ1Cj6wC8zgU1FJDr4qbdt0hqhKI7Ah+faAdKNu3B2XIhpvuIzxH45Ih2ID5DaCk36kBKQ3c0BKkSgqBgHMwAAOX7cepsJ8LLAAAAAElFTkSuQmCC;" vertex="1" parent="ooqM9sPuauhWhxl2Y_vB-16">
          <mxGeometry width="40" height="40" as="geometry" />
        </mxCell>
        <mxCell id="ooqM9sPuauhWhxl2Y_vB-19" value="Availability Zone us-west-2a" style="swimlane;align=center;startSize=40;swimlaneLine=0;spacingRight=0;spacing=0;spacingLeft=0;fontSize=20;labelBackgroundColor=none;fillColor=none;dashed=1;strokeColor=default;" vertex="1" parent="ooqM9sPuauhWhxl2Y_vB-16">
          <mxGeometry x="40" y="40" width="360" height="400" as="geometry" />
        </mxCell>
        <mxCell id="ooqM9sPuauhWhxl2Y_vB-22" value="VPC" style="swimlane;align=left;startSize=40;swimlaneLine=0;spacingRight=0;spacing=2;spacingLeft=50;fontSize=20;labelBackgroundColor=none;fillColor=none;strokeColor=default;verticalAlign=middle;" vertex="1" parent="ooqM9sPuauhWhxl2Y_vB-19">
          <mxGeometry x="40" y="40" width="1240" height="280" as="geometry" />
        </mxCell>
        <mxCell id="ooqM9sPuauhWhxl2Y_vB-23" value="" style="shape=image;verticalLabelPosition=bottom;labelBackgroundColor=#ffffff;verticalAlign=top;aspect=fixed;imageAspect=0;image=data:image/png,iVBORw0KGgoAAAANSUhEUgAAACgAAAAoCAYAAACM/rhtAAACUElEQVRYCe2WzyumURTH/TGzs7ObFRs2k4VSFrJhZWU2bGShRNEo9BYLaWpoamaKKEWSlLCYNwtKslBvkSgyNSOLM31uHd1u73PvfVzlLc9Tt/uc+57nnO/5nh/3rRte/ix9i501uURE6jpKTdI4+qEmVwEwNTMFgwWDqQykfl/U4Jsx2P+9W9aPfsnlXYUsmOe4UpaxtQFpHq9/taGP4Vw3Cc4BdnFzbsB0zbU8g+mZb5Wt41U5uzqRjlLj83kKi7kBrvxeMiB8LH1ZHzLMtk19TAaZC+Dgz14hjT5wytbC7rQJROWX7rkAkrq+b51RrBAE9QnQ8sU+fkzq7ZKIAR0NsPdru6m7GKOqQyM9/L0XmOeM/fbPtVCrqhPaowHSnTSAzyCNEXI+szkii3uzXju2j2iAGCVd9sf2+4/DBcMOafXVKUGgE9vlQYCfJhsMc6SGlNmg9J264neVD853hE5W2d0JFJC7pxsS6nQvQAqdxoAd14kt4xBQNBCLOckiOFvPfsf23PaEAerT8wLEMY5sw+47tUkQ6NqLzkV29V2Z4H0+vABxHCp6AFZzoGBdQK4Me3S6e66yF+Dj07/gUE4FCBCuzaz5mAlQIwvdGq8BkIbJylQmQCKLuTlSa5Au5snqZi9Auoxi13qotsO01pu7x8w6BjfjppptzrwAUQAgN4hvFGQZD53rvx5fIEGA1CC3CINYR4fLVF4Ze3rj+MBFMagsUCMM4bxgqulTOlldq/50DzKoim+1FwBTmS8YLBhMZSD1+6IG3weD5LmWn/8fTHuowXT1RQAAAABJRU5ErkJggg==;" vertex="1" parent="ooqM9sPuauhWhxl2Y_vB-22">
          <mxGeometry width="40" height="40" as="geometry" />
        </mxCell>
        <mxCell id="ooqM9sPuauhWhxl2Y_vB-24" value="Public subnet public_a&#xa;10.1.10.0/24" style="swimlane;dashed=1;labelBackgroundColor=none;fontSize=20;align=left;verticalAlign=middle;startSize=40;spacingLeft=50;swimlaneLine=0;fillColor=none;strokeColor=none;" vertex="1" parent="ooqM9sPuauhWhxl2Y_vB-22">
          <mxGeometry x="40" y="40" width="280" height="240" as="geometry" />
        </mxCell>
        <mxCell id="ooqM9sPuauhWhxl2Y_vB-26" value="" style="shape=image;verticalLabelPosition=bottom;labelBackgroundColor=#ffffff;verticalAlign=top;aspect=fixed;imageAspect=0;image=data:image/png,iVBORw0KGgoAAAANSUhEUgAAACgAAAAoCAYAAACM/rhtAAAB6UlEQVRYCe2YzyuEQRjH949xc3NzWhcuclBqD5sLJ6d14a5EUQpt2YM2ZaWkiFIkaUs42BxWSXvY2iJRRCGHR5+t0fbWvO/0zmv2Le/WNDs/9p3P+31+zNOmpnbGJVfKxrKJiKQy+R5Jz3TEsiWAtpZJFIyFgmSB8u2h3L805O3jVSr1c1k+mpbeuU7rwLMy8eBit1zUTqXaqAiQmXxa+he6ZGJzRI6re1J/qsnY2pAVpBUgSpXOVrQAgD6/PwovEtbUoQExIYBBBxdO5pvmD9qnWw8NePdwY2w+fBPT6yD85kMB4vxf35/GQUAAYW4/EN1aKEAcn8DQPdQ7Xywvyez+pPH+1t+HAsytZ438Tx2UAColVB9LBUdXBwQwGimGKFbjoP7geruZL1v3qZcN6o18kERL1JL3omgkb26eIDjWjQC5wshlJg802YOiplH9vwCVnwap6FxBbhZuC3yLCoY2XOjTuoRzQKKasksph3/5FRLOAVGPFKIA1V2txt7eOSAKbl0WfwG5q/2i3jkgeZLETRW9e7XRLPv98pxzQGVC4AD1CxD2tg2Q4OBwBazrE0CdMrFXUAfunW+bib0guvGfAEZdbkVazaAEybe14LT9bvq3iFG5pTOVi/kE0FblRMFIFETGOH9+APWGmgsqWn74AAAAAElFTkSuQmCC;" vertex="1" parent="ooqM9sPuauhWhxl2Y_vB-24">
          <mxGeometry width="40" height="40" as="geometry" />
        </mxCell>
        <mxCell id="ooqM9sPuauhWhxl2Y_vB-32" value="Web Server" style="swimlane;labelBackgroundColor=none;fontSize=20;align=center;verticalAlign=middle;flipV=1;startSize=40;fillColor=none;swimlaneLine=0;strokeColor=none;" vertex="1" parent="ooqM9sPuauhWhxl2Y_vB-24">
          <mxGeometry x="40" y="40" width="200" height="160" as="geometry" />
        </mxCell>
        <mxCell id="ooqM9sPuauhWhxl2Y_vB-28" value="Seculity group" style="swimlane;labelBackgroundColor=none;fontSize=20;align=center;verticalAlign=middle;startSize=40;swimlaneLine=0;fillColor=none;" vertex="1" parent="ooqM9sPuauhWhxl2Y_vB-32">
          <mxGeometry width="200" height="160" as="geometry" />
        </mxCell>
        <mxCell id="ooqM9sPuauhWhxl2Y_vB-31" value="" style="shape=image;verticalLabelPosition=bottom;labelBackgroundColor=#ffffff;verticalAlign=top;aspect=fixed;imageAspect=0;image=data:image/png,iVBORw0KGgoAAAANSUhEUgAAAFAAAABQCAYAAACOEfKtAAAUnElEQVR4Ae2c6W9bZ3bGr3ZrtRRt1GItlp3JxJMmadF/oSj6oWinM50sTjKx40WSZe27ZVGrZVuy5SUzLQoU7Zf2Q4H+HZ3VdiLLWqidEkVSJCVbJLWQfIpz3ntJiiLFS5lMAsQGHti5kWX45/O+55znnEtppTUL+tZM6NuEVtszwerIwBqpMwMGRV0ZMHSlY71byHgjHayedJh60oRupsFM6hXa0KaC1ZcKC6lfyNp/AtYBIdvgCbCGTmBzKAWbw0Jbt1Kg6OVIMkivbsu6k4xt0t0kln00CYocY0lwjCXCcS8RTtJ9oZ3xROyMJ2DnQQJ2FT1MwB7pUTxr/3E8WF/Hw/V1HMv9mziwfhsHD+lfJBb+VYK00pKFHzTEYRUQ78gQ7x4BUQa5c1+GOH4ExEcyxMcEUYAMBVEAVAOx43uMxB8wRGmZ4CkKd5zfQBRHmY60fJyl5eYsRARRuQ/p5+/6TvzeI/HwnSgAvoHIySVkYjniTpSWmk6CozBSiG+OMx9nBvgGYiKOm52lpcaTIIDHhvgjvxOlRQL4BqK34I4kEqlGlBYbTiIqEKN9J2qTYOlNgKU3HhZtPKzaeNj64mHti4etPx6b/XGwDcRhcyAOW/TzYBy2BuPwckgSGpbwinRLwraiEQnbIxLst4UcdySw7kpwjkq+jiWCYlsA/MFATOO2z9wlwdKfDuudIpbtjga2u0KboxqwxjTYGivE1j2hl/cK8fK+0KvxArAeFGBblv1BAewP84Ue5cOh6HE+HI/z4LifDMdIhBAfx0NaqM8GR2G0IL7mnWjuisPWf/wtXMYJeHZfwbO7HV578tfQzxEK/PWv4DZPYOd//iYiiPuPZIA/GIg9yTBrM+CyzoF+ePad8OzZYyrs2YF9J/957s15OO6lwjkap/pO5AgkgFGHeIw70dSdiI2REhmcA9aH52AZzoP1TrHQ3WLYSKNF2CSN+bQ1VoStexrWy/sasMY1eMUqxKsHhdgmPSyEnfSIVAD7g7fg/Le3wSBdO3D+phAOuhP9nJzQiSUe0vx1AU9APBnd4xwhRCMBvFUsjuyeHRvDeTB1SjD3xGPjphAnFU4scbBq42Dri4O1Lw62/jiRWPolbA5I2BqQsDkoYWtQTiqUXIIlliEJ9vGToKOMfTucXxeIxKIADOPiMMCDEL+/O9HYlQjzsALQActICTZ6Eo7vJ6rpnSkrP8rnu5MAOh4XCoD+fuIREKX5umwQwB8CxECAdJzNNxIFQDJmj2PKhoN4S+LMTMlHAUhlziFTNgREaa4uB98JRBXHeb0zCebhEnhce/C4XXwfmm4ksLv9Ws72URAZYIGIwD0RgVwnjpKrHeBsB0Ak80Gau5aD0BC/2zuRAJqGiuHeWoX75Ro2hoth6hYAaUQQE4jDEteKSgRScuFiWx4RhIMoAB4JMUp3YnsGVluTWYEzFkNHEkjG7jQYezJgGirhu9DYTc8SDsxYzD0JIBFM/xmLt2MZkOcrNGcJnLEEiURKLFRsM8A9O2dnBqhmPDCeAElXmwOOwlhD7MiCQVsKg7YEa52ZfoOqTBj7S2AcKMb6jQyGuN6RiPWuZJiHilim3nSYb6bC3JuOjVtFsIwUYUMrIlJATIOVupU7GlgHUnlYFXJQFQhxKADgw0LR+hFAFRAZYMwhNqfA0FsK16Yerq01rGtLORLX2pJh7CuRn6/CNFDCkchHebBYfq4X0dgeh43hIn5GR5wgciTeTIB1RAP31goffYLIvbPaSBySuO1TInD7oUYAVDOoup8IabYmBwRQHcTj3YkrzSlY6z0FuPYAtwuGvjKstojjvN5f6k0axsFTMLQnMkTToC+ZmIdLYWyTRIkjJxjLSCmXOATRcrtI/h77sN0tgbU3PvzIVInEwbiDAB8UCgOCx6bhp33SbM1biAxi5HfiSlMKVnuK5ALZgbUeDfQNEvSNEgw3C7zP17WFWGuWsNYiwdiX731uGijAepME00Ce95l5KF8U2V0SNoZy5ed2WEcK2MFRNXcmiOTg3C+Ue2g7dyvs4ihz5zCRKAOMIcTWLCzVSjD0n4Fnl/paB9Zvv4e1G4Uw9BTAePuc97np7s+w3luAdW0+zKPvep9vjJ2DsTcHG2M/9T6z3H8X5sE8bAzlwTr+jve5dawS5g5yc1KhCuLAQYCvxgtFx0IDfBUQpdlqgqcokuN8dCQuNZzAUkMKlmokWP7rIlzWZW7Y2SQgg0BxWaiZl3+wcRDy+Ss2FQ5+rezW+H0P9+YyXv3vBWx0SsJLVPzEUHciAbwnIpD6YQZI92LgBkSISJRmCOCxIYa4E5uzoe8+hZWuIqxqz8C9vcF/b7dzC26HzRstFI0UlfTs0PM9v+fsyDgYoNtpA0m4NPTM99zj3OQ/x+OwwDZWAeutfNlPLAydncmQlQHS93w5rhGGbLA1kiAQpZmrb+H1IB6MxMXrqVjpLoPLpodnh/w5h4Dn2ITh1vtY7S7CWm8Z1rRCBm0ZWH2nsE7qFzIOnIIi02ApjIOlMA3JGi7ljoW6FvOtEmyQhgpgHX8XHodNQOR/HBGh7persN0tgkUbd7jE6Q8AeF8jDIhQuzgBEKVpAhhFiAt1qVjpKoNrc9UbafQ3ogjTdxdhqS4Oy40poMRC0pOahTgztySJEqc1GVTmkAztSSI7tydhvUNWZxKodzZ2JXCxbeqQ+E70OKw+gLKXSF0NAQyanfvj2dmmMoYjUAZIS00hF5oUiKNJkKav5CLaEBebsrHSVY7ljmKsDv6FDNIO/c1yLDecEKskUV4j8VlhdFc6YH1wju0wy+1iWG8XwdKfFjyx9MVjc0zjzcIvyVMkO0zeDAsHUQCMGkTfnUiRuFATj+V2X/mi7ykHJZdY7OIccnKG8mH2eokJB9q+A9mZAI5qvGUQmbLsJyp14lGReDcJ0tTlXHAURgtig7gTCeB8dcJhgPUnYrKLEwjQWyeG6J29ELVBAJIpSwBVQGSA0YeYg+XOMiy1FUE/IB/hXTtWbpRjiQBGukaiYlAlrDAyY8UR9taJI8WwjGgCeme/JU8CeNd3hGk0QCNT75JnGIhegNGCOF+bhqWOcs7CbsrCu1TneTiJrNyowOJ1GWCkEMP4icIKK4Hbm0R8tSZlYboLeTQQaMr2xvPIlOvSPTvPWXg84L8pewRE6cWlXBA8RWGPc20OZqszMXs1HTpStdBcdRrmaoSWOioCsrAMsJsAph5/jeQIiJSdyQYTAD3e+pAyK2Vhy0hx8PFAb8JhgDRjUWGFUbEtvbiUB/UQczF9IRm6a7mYb6nAfGsFFkhtlVhoq8BiWxnmr+ewCOJiawlW+t/3ZuFlAlgnAEZ7F4f8RDYg5CO8ce8cTAP5cp1YDLM2Pbiz3ZvAxbY3AkeLeFAVdGc7SCRKL74igOogEjz9/b/Hzuok6Hi6d+zyz/TrbezbVrHYXoG5mlToriRCd1HCQiMZAFTQOkAAKbnEYhfHB1DUcyZtNtabJXZxjFQjsp94ePF9g+ywO0qlYOeRKU/7Qi2+B0CUJgmgCojTl7MwU52LPfOCXKg64SZzYJfaMSHXpoEjca4mHYvtZVhoKcZKny+JLHcJgDHZxWkPiMCxczD158M8VOxnyh5+e8BMAMkOox58zx66YwlyJ768lQJp8mIeVEH8KgO65iq495zw7DqxePOvoGssxXzraaG20wxPV5OJhbbgSYQBXksVs+dobIX53Ylr7ckwDvjdgfyPK1Y+yIClcSnNV2h4b7qRyNM+Hg/QHs6wzw6jwT2NB8K+giFHogCoAuLUV5nQNZ3mo0oRN9dwiu/DmcvpmLmSjlmSnFjoTjzYyokkstRZiXkFYJR3cdjdHij1y8LCZFCSCEWiqBWLeHhPA/wNKnGGcmEdl20y1w6soyXq/USKwOcX8sBRGAbi1MVMzDb6AWyuwsyljOBWWN1bHI3zzaVY1spJZNcOBlibFv01ks4M7pmN5G5zEnHCPPYzGPsKZAOiBEZ5xuLe0vustADrzG1bgKU/ExZarVPhJ1KhLT2/kA81EF9czIQuAOA0AQxhhVGJM3spCfPNJd6oXeyoBNWJsdjFoYkfjwf4LnPAqC1gZ5uMCDYgeGRawnMTikqfRKS6TJPY+s+/A22H+U/7vB1LCD9RBhge4osLmZhtEBHo3nXwfTj9VcZhK0yer9Bxnv3qMECqFRWAC/W+3vl1EwsD7KMIFBaaMh4IPjKlsamfFUYbEH2ZoL3ESF9Lkya+JHiKQh9nf4B0B+qaqjBFAA9ZYeRqv4X5lnLMNZVgqfd9Lnfo9yy2V3KxHZM1kpZkrDNA0cop4wFKLAdGpp1JoK7lgBVGs2darePhvTzAD+xYgrzbtzl0AgxQDcTJL30RKACeAd2LgVbYzOUMzDVXYM+mFzWi0srZN7FAAKvTYrKLo29JgaFPSSIeUbzLdxwlNCqyKRqj/YKkNPHrfBDAcBAnv8zCTL3vCM82ygADXBxKLARwf3NV1InsSHvgttuw0H4aOgIYg4UmMmUN2lNw2wMNVQfPoo0DpWLm3C2/YUpvmkbhLVPpWwKoAuLkrwlglTchEEA61kF755pczLVUQtd4Cos3P5CPsB0LbQQwPTa7ODJAJQub7rwHQ2+hPCIohaE7M+qv6toGTkD69osCqIH4nABeJ4Ci+1AAhnJxKBK5b27wZeF5Ang1XaySRHkrTBneK0nEcLOQ586UXHgsEKN3+wRAFRCff5GFaRkgZeGZBhGBoVwcKnGmv0yGzh9g62kutmOxi0PzFdp+UAAqw3tlAyJwoSlaL41L33xeAI7CMBAZYJ2IQAUgJRYF4IFIrM6FrrECs/WlWLihZGE7t3zUsahbIzk47QtrQDSmYO0mARRZ2Du87wu20BS9N+8ZoBqIExSB/gDrz4ISS6AVJjqWSuxZ/bMw4LZv8p04czHpQNsXzE+kYpt1LRULJJqv1KWyl0h+InuK9SfY3aYZCw2qlurioe/W+JKIXy9MWZhKHDrO0Y5EL8BwECc+P4kpBrgNisDp+jOgxBJohYmOpRL7ViUL77B747ZvYbHnQz7S7CUG8xPbK9gOI0uM/ERWZzmWSTTl6yrnad9KdznPnvU3ysDqKYO+SwPD8Huc7ekP9OzvyD6kyMKUoek4R/szIKRnnxWA4CkKdZwZ4LUzcm3nwPT1M6DEEtQKu5LHffNsfTnm2t6Ba9siQ9yEa9sqvgf7icJHpBKHyg/2GHfpH0h5bvU+5w0G+j30dfLX8n3n/7XyUJ3+v2HgLC800QCf4XVkYbU9+h+kIT37rBBqIH772UlMMUC7iEAC+EVWSCuMInHqYgYmz8fB8O9XsG/VM0SOjj3hJbKfuCdeclHz3BPwtbysxAtLvu9BGxGW/77MC00rjclieN+cIj6JhD6RRPk0Ej8r7HXevJeenSeA4SESwBe1FIEC4JQC8CgXh4rsK7kMca79p3IJ5MRiz19irvFUQJ3oxJL2Q5CDc9DFcWKl/0MsNBX4jQec0A9+wIP7g8N7J1b7f4Klaikmw3tTkI90kZ4SQBUQvz0fALDuLCY+zwpvhV3J5ZZvtr7MW4Tr6k9xiXOoTmwqZQPikIvTWsLjgcVW+R2SXQeW2osxXx1/aHi/0lUS2fBexcj0qI5FevppIdRA/IYA1vhFIAM8GZEVRq8v0IbqXHMVqE7ktq+lkrdL6Tm52/6mLH+9ywWywXSXEzmp8JarywVlPEDZmZKKsv3K2w8xGt4H+3Ah6QkBVAHxm0+zMckARRZ+cY0ikACqtcIqeei0bzOws01WGEGca6rg5zRPmW+p9JY4NO2jIRU9p6ysu5yExfZydrrpGWVmpcShIT6VKq4tA2fnYw3vj3knSk8+KYQaiALgWe8dSADpXlRjhU3R7JkzcxVmG6swfTXP5+JQ39x8GnMtpzFbm+tbN75GrjaNSyuhq8nAXHUqj0sXqbzprMBCQw68fmJjNpa5tCnHUnM2lpqyvrMP0pCefKKBGojPPsnGZLUfwFoBMJyL460TL+Wy+UDZmQ2Iq76tMOU4ezdlFVOWupbqDCy0losRQV2Od3jvNWX9dnFiNTI9qu2T/vwxAQwPkQA+9wM4SQDPn1RlhXkhRrIBUZPDx5mG91QCuWxrYmQaIz/xuB+4xgDVQDwEsOZtUGJRY4UFLbbVbIVdScd8qy/JLLRXxcxPPPSpdSrvRC/AcBCffpyN51d9R3iSAH6arcoKUzV3DrIpS+42tX1iSckRWz+xTf7YvwiLbelPH2lA8BSFOs5PP87BhB/AicsVeParNIZIkUjHmZIKibKzUBZ3K9SxUNtHvTMZEOTikBnL4o4lEzR3phmLkp2/az/xuJ+fyADVQHz6UQ4mqt+BZ28H7l0nppr/GhOXyjmxTNac5RKH6kTqVkjU9rHqqtjFISeH/ERWfRWPB2YaToNE0z6aOZN0TZVCzZXQkR3W84EYDezvYr6tiu/FWPiJx/0QSulPvyoCAQwH8cknuXj2mQa7xkVhDOw64HYqC0a0ZOS/aKT8t/8z2SDwNxFU/JoGWPRjb2ORt8JotS4mfuIxd7alPxJAlRD//It06IZ/Dqd+ylsPkrUVKxE8Mhx216agf/APmL6YjFm5xFEHMXpzZ/441IDEst6VDumP/1wE1RDPa0AQn31ejImrP2E9r34biiixsGrfxovas6BimzRVp+gM22BkhZGfOENqEJptEEU2Fdo0c2Y1V3HbN1Obz/OV2RoqtGP4WpqaT/IM6J0FwEggflqIJx/n4slHOaB7kbIzicocEmVm1vmTXOYcK7FcICtM2GGcWHi17nXeqIpwPBDuOPtBlP7wyyJwFEYIUY0BoWbad9wS53uPRPk4M8AfD8Qo34mdGZD+8MtiEMAfD8ToHmfp978ggIreHOdIPg6VMjMDZIgM8k0kRvr2gPT7fyoGAfxxQnz9O1H6HQH0h/jmTlT9mbKrbZmQfvfzEgSHKJLLmxJHdreVT3sPKLYFwGAQ39yJqiJR+r9/LAFHYUiIoSJRmBCKDebzEzWqZiyhNiBUzVgidLapb1bXO0de4vw/dPrV5hIPu90AAAAASUVORK5CYII=;" vertex="1" parent="ooqM9sPuauhWhxl2Y_vB-28">
          <mxGeometry x="60" y="40" width="80" height="80" as="geometry" />
        </mxCell>
        <mxCell id="ooqM9sPuauhWhxl2Y_vB-52" value="Internet&#xa;gateway" style="swimlane;labelBackgroundColor=none;fontSize=20;align=center;verticalAlign=middle;flipV=1;startSize=40;fillColor=none;strokeColor=none;" vertex="1" parent="ooqM9sPuauhWhxl2Y_vB-16">
          <mxGeometry x="400" width="160" height="160" as="geometry" />
        </mxCell>
        <mxCell id="ooqM9sPuauhWhxl2Y_vB-54" value="" style="shape=image;verticalLabelPosition=bottom;labelBackgroundColor=#ffffff;verticalAlign=top;aspect=fixed;imageAspect=0;image=data:image/png,iVBORw0KGgoAAAANSUhEUgAAADAAAAAwCAYAAABXAvmHAAAJI0lEQVRoBdVZiVdTVxrvf1OSQJ3qdIZa67Q99sy0nSIECIsKjIxVbIfWqoN1X+rYilu16lgXKNpj2UMSIATCGhDZJIAIkU0BEWgQkB3hN+f7MI8EHiEsTmbuOe+89+67y/e797vf8nuv4f+8vPaq5B8eGsdA3yhfI8MvXtU0WBYAPd3DuKNrQ1RkFQ5vKcAXn+qwcXUKFCuT+Ap6R4Vwj0wc22bAzbM1KM3tQP+z0WUBtWgAk5OTuKvvwHfhxfBbmQKFazYC3AqhcM2Bl0QND0k8vFck8uXhEge5RAM/11xu4yvLwoY/qnF6VwkqCp4uCciiAORrWrFDng0SJMDNAA+XeOzZkItb52pQpGtD4/1n6O4Y4lWmle5qH4Sp2gxDeiuiIo3YpdDDwyWRwfhIdYgIyEVJ9pNFAVkQgEemXhwKNcBXpufV3PZnLZKumdDxaGDBk7c29iP20gNsfj8N/m758JHpcOKLO+h4/HxBYzkMQJfQBL+VGl61kLVpSL/dhNGRpR/OoYExJN8wsUqRCm50T4VB+9hhEA4BiD5VBR9ZJnxlmfjhmzL0mkccnsDRhl3tA/g+vJjPkrc0HfFXah3qOi+AS4fKWF28JClIu93g0KBLaZR4tQ5yaSoUrnrEnK2adyi7AKIjjSy8YoUGJTnt8w62XA1y1S3wlKRAIdMj/qr9nZgTQFZSE6uMXKZCae5/T3jLIuSoWiCXpvFVrG+zVM+6iwJoa+6H4k01m8n0Xx1Tm8HnY6gu6YYyyoQfD5Tj0N/zERGYg91+euwLzsXJr4vZzBZq29DZNjhLELGK2Mv34eeag03uGpg7h8SaiHvivUE5bG1O7y4W7WRdWV3ShfN7yxG8JhU+0gz2C/5uBXwYyTRS3ZTZzeMxydF5ShNx4G8F0Ce1YHhw3Hq4Wc+Ht+RzvxPhhlnfqGLWDhRqW1n3gtZo8Lxvbnf/sMaMI1sK4S1N4wk8JUr8wyMDl49UQBffhJrSbrTU96LF1It6oxkF6Y9x64dqHNicB8WbSvi55vG19cMMZCW2iApHld1PBuG/Sg1vqRbG4s5Z7WwATLyYxPZP0vngamMbZzW2VCRdr4O3q4pXe6O7GjFnavCkZdoB0TjtLc9RV2lGbflvaK7rxWD/9EoPD71AVlILdilyeHfosFKcNJd5/vXSfZ4rIlBvEUG42wAoyW7n1d+yLhXj4xNCI+sHWl1fWTZbiX8fuQdyRFR6fxtB8nUT9gTmwvd3ybwzFB/RRark8XoCPv9Yh2vHjWioeSYMqU9uQfAa8sYFUN96KNRbP9D52vi2CuQfHtzrtv5kq0LHtxsYadK1OptG1i9RJ40IcCvC1X/d42o68OciSiF3Tea+tJoUxIWvz8DBzXkgHd7tr8fGt1NYAPK2ckkq9m0y4F7hVCB37UQlq2HyDTvzRhoR6FaEC/tLrcWZBkDb57MiiQXpejK3lbh5tponU/1swsTEJDa4p7Cl8JIl4/uvilGU0QYKr2eWocFxVqfr3xkR8u6Uowp+V83NphbFAGV0/cxuwjupIUW5m1YrMTI0HcIIKnQns41DYTE9E0YBYAGQEmXCyPA4Pn09DgG/V7OeW7ez9/y4oQ/rJYmgPIGKIwAmJ4Gwj9LgI9Xiftm0GgkAKBkh1fjlfI29uQUAyhv1HMxR3B+0RoVJTNrtZ/3R3DkMD5dY7ucoAGp36XA57z4ZEUsRAJDjIRtdnGXf61p2wBrAptUqUArpaKH8gJIcAk7FkR2gdhlxjXzYz/zzrjAVA6Dt2f6JlnWs6cG0hRBaWT04E0DV3S4ObyICswWJGAAl3WQlPCRxnEkJX0UenAmgub4XnhIVwj5KBy06FQYw0DfGyTeZv/mSbWcCoMzPwyUBoe9rMD425adeAhhlAPI3Ev6nAZC3p1w69INUWwBkDjetJhWK5wRcRHOEKmfuwJQvUPF5tVEhevn8rxnwkmiYURCkFXlwJoDKoqd8iPdsmHGISc6jWw0cxFE0aq84EwCltBQzndtTIojIZ4DeYs5MhQg/n7afhzoTwIX9ZRxvpViFHAIAovso8djpmymgE3twFgAK0bd8qOGAsL7SLIgmAKDkxW9VMuRSJToeTcf2QsuXD84CYKoycxQbslaFsdHpUF8AQPKd3HGHY43bF+eOh5wF4MqxCg6n6W5dbABUFnVy8hHyJw1G56DEnQGAnGvAWyoOdYh3tS42AIhx/lKeAX/XfCijxGNzCwBVtImzNvIdSw3miH8ikniufCD6FH0vxMHQXGvZ+dkGANWU5XXwLgT+QQ1z12wqwwKALMGL8Ql2fksGcIpCeXEAlPH5rlAzPU859swyCwA1OLptiso4FlYwsz2HvgpZNkLWqvGllw6eLkpscFeCMi5HS2frANa7xMNLmoQd3plTP0NkeiSKpLIUedLqn/tGnOIRBUDcfuBbak4VE64+sJGLiC4vSSq8JCrmMCm/3anImpMEsOn88oWCx9APNLyqxL5RhOklVaMww9aJ3jh5j9V583tp6O8Vp3hEAdA8RbpWtrlEtOaqpnkbCjsaa3uY6yHTZjI+Q1/PwtlqYtrqjT2gMUg1muttD6f6polVmRaq+m6X2Dpw3ZwA6GvclftMs9AK5aRMg5hztGX6oIoxQS5NZwDaWPvUpl0AJA9R3ER1EwMXd9lWnZZJXmEYsoLRkfQvQgcfWQbs0SyWTvMCoIbxP9UyS0w587dhRXY9tWXghd6JgtwXnA9/1zw+X46Syg4BIGGIdglek84WIWCVmv9vzZe9OQKCOCSiJn3eSOGxP1unA4XNjhaHAdCA9Bvo1M5SJloD3AoQ9I4G0ZHVaJjhHeebfHICfHB/+rYS5G/IB9Bv2B/3ly/YICwIgEWwCsNTHAgpYLUiG02WghKiiwfLoY1tArEHzXXP+O8lpYHEdNCqpv7SgAv7yhD2Fy0HZlN91Ti6tYjZbMv4C7kvCoBlAqLQLx6sQOh76S93pZB/mdLPQLJclIBTDksAqY6SEVptMgifrdPi6nEjTFU9luEWdV8SAMuMFPjVlpuhjHqIsxGlIO+5/WMtsweUgNPuUBp4fm8Z1DENMBl7hKTcMsZi78sCQGxycnhEfVjoD7E2y1H3ygAsh3COjPEf3PBEkGeyotoAAAAASUVORK5CYII=;imageBackground=none;sketch=0;" vertex="1" parent="ooqM9sPuauhWhxl2Y_vB-52">
          <mxGeometry x="40" y="40" width="80" height="80" as="geometry" />
        </mxCell>
        <mxCell id="ooqM9sPuauhWhxl2Y_vB-62" value="Availability Zone us-west-2d" style="swimlane;labelBackgroundColor=none;sketch=0;fontSize=20;align=center;verticalAlign=middle;startSize=40;fillColor=none;swimlaneLine=0;" vertex="1" parent="ooqM9sPuauhWhxl2Y_vB-16">
          <mxGeometry x="40" y="480" width="360" height="200" as="geometry" />
        </mxCell>
        <mxCell id="ooqM9sPuauhWhxl2Y_vB-63" value="RDS" style="swimlane;labelBackgroundColor=none;sketch=0;fontSize=20;align=center;verticalAlign=middle;startSize=40;fillColor=none;flipV=1;swimlaneLine=0;strokeColor=none;" vertex="1" parent="ooqM9sPuauhWhxl2Y_vB-62">
          <mxGeometry x="80" y="60" width="80" height="120" as="geometry" />
        </mxCell>
        <mxCell id="ooqM9sPuauhWhxl2Y_vB-64" value="" style="shape=image;verticalLabelPosition=bottom;labelBackgroundColor=#ffffff;verticalAlign=top;aspect=fixed;imageAspect=0;image=data:image/png,iVBORw0KGgoAAAANSUhEUgAAAFAAAABQCAYAAACOEfKtAAAcV0lEQVR4Ae2c+Xtb5ZXH778yP3SGZvFuLdZia7Fsy7u823Ecx0B2SMhKCAQGSqEwkNIWBkoHCqWUsoQlhSRkw44dJ3a8b7Jky5blfd93f+c579WVJVmS5cQBZlo9z8GQUln6cLb3e857uai0JkSlkzVDldHCW2YLVJlGqLPIWqHONvGWY4Ym1255bdDktUO7g8wCbb4F2p0dzKJ3diK6oBPRu6yI3tUFXaHddtugK7IhpqgbMUU9iHm4BzGPkPUi9lGyPsTuIetH3F6yAcTtG0Tcft70B4bA7OAw9AdHEH/Ibo+NIv5xsjEkHB7n7cgEEo5MIPEJskkkHp1C4rEpJB2bRtJxshkknSCbRfLJWSSfmrPbPFKenEfK6QXenlpEylOLSD2zxNvTy0h9ZhmGZ1ZgOAtwUYZGuEBMd4LIAHqAKID0BDHfE0SrK8TdAsRuHiIDuRZirDNEO0h3iHpniAzk+hATCSID6Qbx5CrEZIL45PoQuUgC6AuiN0/cCMQC8sS1EHXMEzcZouCJj/v2xE2B+PQyuMjUBvAQm7x74s8JohDO+13D2aMn/ggQeYD3A1HIibkecqKf4bxZnuiSE+83nJ1yoks4n3bNiVxkSj2YF/oD8V85cU1h4QFuBOLPKZz9KSwPOCdyyuQ6MC/8vwrxJ86JnDKpDpsK8Z8lJ9r7RE6ZVMsA3hPEf/aceHoBnDKxFhuBqDQ0QZ7SDHmq3QwtUKSRGaFIb+UtwwRlhok/tfjTbD/gPlG3bxi6fSPQ7R+B7sAodAfGEHPQbofGEXNoArGPTSD+8OqJxZ8+kU4snCKxBn5BTGuCIrWRHfsSC4xI3NXKW6EJiYUmJO0281bUhiRm7dAK4fxjQnTLifEHh5FxfBSZJ0aRdZJsDFmnyMaR/eQEb6cnkX16kh37NgqRUyTUwAWil5yoSGlgjXb53UmMTy5hYnIJU9PLmJ1bxswsb7Oz/D/Tz8HhRSQ/3L7qiT9Bnxi9ZwgZx0cwMEqfa8XV5lcwO7+CqZkVTEzzVtm8iKQnNuaJnCKhGmsgJq8tLBGJ9Ujc2YKFhRUIr/n5ZYxPLGFufgVzc8tOtoKhkUUkPdwGBYXyRo59TIBYe+zjBYiNHfuiHx1ExrFhDI4t85+RPqfd5hdWMD61AvopvBaWVpB7ZpKFs7MA4SucOUU8AVwfYkRCPRLym5nnCb+w0zaPvANmaDJbkLybwpgP5eQiPpw1OU4qzkYgbmJO1B8YROaxYWSdGLHbKLJPjSLx8VEUPTcOa9+S8HUwObOCnKcmWU50V3G8QeQU8VXwB2JEQh0SdjRjanqJhWx37zz7xc2mGcTktCBY1wCFW2FZI4X9RBDJE5ntGYJu7zAidg0h5cgoWiyL7Dv0DC5jZm4F07MryDk9gZhD4x6lME8QObmeAFbZvdCDJ9pzYkR8HRLymhi8sYkl5OwzocU8wz6A2TKLhJ1GiPSNUDMt0Q898SfIifEHhxC5ewjpx0bQ1sV7ntm6hKL/HMfY5DLmFuwAD/IAPemJ7hA5uf4uHBB9hLM0vhbxdoCU+1RpjdBlN4Hg0csjxJ9Rn6jfPwhl4SDSjw6jrYv3PEv3ElKfGEXCYyOO3Jj95DhrcZgw60WUdYbIyeMI4PoQpXoC2Mg8kApG4s5mBKprEb+j2TfEn8HZWb9vAMpd/Uh7YsgJ3iIyj4+wcKb2hqo0FRgG8MAYEvyRwo5Pg5PHVsIfiFJ9DeJzVwEm7GiCLLEeoTF1P2uINBpQFvQh7cigK7xjw4jcPQhqsqlHdAA8NcaabTYeWAciqdqcjAB6gsgq82pOlMYRwAaHBxJAyotRhob7gyg02w8gJ8bt6YNiZy8MhwfQZuXDtt22iIyjQ1AWDoByIvWK5IkOgCfHoNs/ing/9UROFlMBrxCdcqI0thrxOQ1YXFzB0tIKBICk5PgN8UfMiTSkUuT3wPB4P9qsCyxPM3hPDLJwppxIwyoBIPteyyvIPjnKjn0MoB8QeYB+QJTEViMuux4DQwsYGl5g4UyFRZDCCGKYWzi3dcwhe58ZsuSm9ad99hZHndsGVY5g7VDltkOVZ4F6Bw2r7NM+P/pE1a4e5J/sR3vXKrz0IwMsnCknsmnfPgLIN9tDo8sYHltm4UznZqZuM4D2aZ+XcOZkujvgvXB9T1Qm1kCfU888MTKZRAjXE4szxLYOvjqf+2MvwmIboHKe9tkLS2SGEdIUI8ISWhCaYIQ4uRWyNBMDGJ3fjthdFma6AgvUeRbIsyyQplsgMrRDkm6BPKcTmp1OI1M2NqWRaTdkuTb87i9jzPMs3YtIP9zPwplyovu0T2i2KZTp7EwjU/9mLJPgZLrb8AuiPSeSJ1I4OwQILxCz97bi9Xd6oEhpRKTBde4sTmxGiL4JmuxW7D7WgRfe6MVfzg/jys1J1DTOwNwxB1vvAvoGF5nZ+hZg7phHTdMsrpZN4a9fj+HFtwbxyFO9iCnsgiSjE4ocOv7xc2easeh2d0NT2MMgFjw5wMKZcqIwd3aHqKVme8+g97mzl3DmIqIJoJ8QnXKiiwDhdnYmT5Qm8BU6khSctCao0kkGa0JYXCOKjlnw6YURdPXwpxnmJvf4FwL9+aUJ7H2mDxFZnVDv7EKMfXhPEMkTVbu67YN71+G9O0TKiRudOzOADwKi+6BKntyIyLQmnP9uxAVV3+ACSm5P4oPPhvHiH/pw9Hkb9p62ovBYJ/KPdCL/CSsKj3dh3xkbjr/Yi5feGsAH50dRUjHNvNP5zb6+OskG+ARR5xTObANis4b3bjMWLkJbDgK42RDliXUgASLS0ADyQpG+Ht9cHmXflxrxL74dwf7THYjOMUKU0IyQuCaExTdDlGSEJMWICEMr5GkmyNNNkKWbIU0zQ2IwQ5xiRniKGdL0dsQWduLQc704//0Ea4Lpzb/9YYoP5902qAu6IM/tgrZwAyqOm56o95UTD4+DB3gvEN36RKZqJ9WCTiyBqmqo0+qRmN8EeVI9a7j1ec2YmVnGygqw75QF/yauYeGsNDQjinZyvJ1YvPWJOyysOovT2vHvGjMOPNuL5RWwfi51fzeUuVZkHu7B8VcGWT6UZHVBXdDtdRfHn3B2mTvbPZGTam6BeeG9QBRyYmINpHHVCIi8C11mPf7rTRss1lnUNExBGl8HSTzB5JUc8pKS2xPYc9LCciKpOJQXpUnNkBtaEJluhCqzFaosE1RsqckMdQ5vUdltUGa1QZ5hhjjVjPBkMyJzLThwtgc3K6eZd0/PLCPtYDdCUjrw4Zfj7M+olXnr4zGkHeqFJMsG9a4exHpYaPIHokt1fnwMnFRdBgZRU86DvIdwDoysRGRSDX73bjcGh/i+iz55Z9cc9LmNCI+tZVIYqdjOr9b2WXz85RCe/o0NBYfbkbDLxDbCCKQkmczITJpKsxYTtHltSHrYgl3Hu/DM63345MIYTB2uhWhiahmGAzZI0jvw+nsj6O7nTyD0e8cmlvH++Qkk7uuFNMcG3cP3v9DEA7xHiNKYuwhQ3MHhp0xot/d99EGr6ybx9Esd0KTXg+VCuxRGIwCS/z+7MIz+wVXQAlT6363d82g0zuBu3TTKq6eYVdZPo7F1FtaeBUxOLwv/uuNn/9Aivrg0jmn7aMGwvwtROzohy+5EzO4unDk3iIp6vi+l/1PPwCKe/f0wInJsrNWJc1utc/FEnzlxFJxUVQrmhQJECuV1wlkRVwmxtgKhqgq899dexxdpMU3j6DNtEOmqEBh1FxH6GjYydZbCaF6iTG1gctjR5zrw4WeDuF09CRJoFxZX5XXHm7r9Df073X0LqKidxkdfjuLES73Q7aSTigUzs7yiwgDmdbCNMHW+lfWJ8hwrjr40gPrWOcc7nr8yxcJZVdADnxC9bEBQTuQkBHCDECXaCoSr7+C7K0OOD/POn3sQEVeFAGUlZPE06Vud9rlLYTQaEMXVsaNfcHQdxPEN0GQ2I7XIhMIj7Th4phPHnrfi1K9tzI69YMOhZ7qw+1gn0vZaoNthRoTBhLCkVpYLqUqn7Ol0CAKp+6yIyu1wWvLkFz2lmZ2I3NGFP3w0iiWqOABu1cxCW9QDdWHPmiVPF0/0ApGTRJXCBaLGd06M0FUgQHYLn3/dzz7A9PQSDp9uxRbpbVBIK92rcyJV5rVSGGtx7AtN1ObQiSUiuRGShEaI4hsRHt9kt2bW5kiSWhCRaoQ8rRWRmSZWWNi2bB5fWFL2dLAJIWl6BJCKi2NT1unsrCmwIiytE4+9MIDRcT4nX789A8WO7nvKiZwk6ibWQBTC2UNhCYi4hZNnTQze/MIy9h9rwS8l5T5FWWcpjMag2owGJoW5N9teN2W9tTh2AUKZZUZMQTubazCAezsRmcOvHHuCSCvHonQr9jzTh6kZPqe++j+jrLCsW51dcuIwOElkCQSILJR9hLNEUw6J5jbaLPws5I23rXgovGxdPVGQwmggtby8gqNnLdiqqEKYrhaKZH69jm3J0pnZeWfbgwDhPKiKyjKBKnRgrBHHX+zB0jJAbUzqHgLYDu06+4lhhk688if+ZNQ/tAT9nh5od3ve2fYWzjxAJ4gu4Sx4or2wBMrK8MhjDcz7evvnoIirgEhzhwfoSZS194kkQJCKQzNkehHEzy8MoeiICcrkegRraxGkqWXCrFjfgIjEBsiSG1mfqLCvkchSmiFJ5sM5VN+MsPgWEMBHTlrxxXdjTKOk956YJIAdiMwmgLT87n1nW1NAzXUXLDa+Izj92hDkeTb78vs6LQ7zxCFwYmUxmBd6g+iUE7eKbuLlc+0MwoWLA9gmKfNLCpPEVEGfXc9mykLyZm8CoKNrFhe+H8G5d3pAVbnwsBkZj7SyIb4+vwX6fH6NJGOPGYVHLTj2fBfOvduPC1fGYOly7QHpvSenlkH5MDK7bfX2gDtEp5woSu/EZxcn2cd599Nx0InF77Pz/kFwYkUxGERlCQ/SR07cGl6Cc292sF/2yRe92Cou9UsK4wHWsR6Qwnj/CRM++nwAPX2uAASo5KHU7kxMLTGj3pH+zNOrd2ABn3wzgkNnbZicXmKVOOVRCzuxuFzB8AJRlNaJD+wnFvopziQ1x/+zMydW/AAHRPJCJ090z4nbRCU4ddbIvkdV7QSCZGV2EcK3KCvR3YU+iwdIQoI6tRZbZJVQG+rw6FETXvtvG778bhh36yZhsc5hZHSRAaQ1Eur7qPCMjC2io2sO1Q3T+PryKH77p37sf6oTMTtMCIxpRnSe2VGFGcBM89p7LG4QtQV8j1hWxed0yoeSLCs2srPNieUE0DtE55wYqihFnKECMzN8MSjc34BtklLISdX2oWyLo+9Cn1nLPJBgxOfUg/KiTF+DsOhqBKqqEKSuhiiWHxHEZDexNZKUwhakFBpB22CxeXR/pRnSxCaExjUiJK4R4qRmKNONbLWONsLovakKpzzSDiUD6H3xXVfQiYgMCwpO9LD9mKUlIP94L+sTSQrzZxeH1G1OLL8BHmKxV090hrglrBgff9rDvLCpZQpidTlCFLcgi/EOURxdiTgngPrsOgbQRZRNqoMiqY4d/WQJvBRGoiwrKEmNID1RkdqEyLTmNeMB2k1MLDQzr3UA9LWfuLMDyhwLFNkdqGrkj3iXb06BGm12q4q0RD/1RE4kI4BOEJU+cqK6FKGKm4iKK4etm//FxaUjDGJARJlXTxRrCWAN80DaalCn1CBEdde+Vrd6YqEt2XvZlBUlNkOX12rfDltBso+tsOh8C2QZbZBntuNSCV88RsaWkHbQBmWuHSBdTfMTIieSXccaiEJh8ZATI9Rl2C4qQc6uaoyN80pHTd0EknOq8FDYTVCvyLyRTfr4QRWdm+MyahybXZ982Q9Vcg22ySsQrLrLZiy0YsdriutDJGWbxgO0i0NymDbHiL9/w/dzVIUZwPTW1dMKaYp5bYjKaUNoogmpeztRXs3nPZoHkyhLQyqdl9U6XzmRE0UQQP8hUjgTxK1hxcjdXQNbD++JU1NLrMWhkKbqLNbcdrQ4Ys0dxKWvAqf4J9nro0/7cOCkCbFZ9RDHVCFYVYWAqLuOnBiirQEZ6xOpV9TWIlRXD2liA6jFOXSmAx99McSWOYUKTX1gclEbWzWmS5K0m0j9YnhSKxQZZrz4Zj/I4+g1PLqEg8/1QJTazp+bHRck/d9P5EQR17BRiFSdCeI2UTG0SXfw/fVVUaGldQpPv2CCPOYOtorLII2+w5rt2PRqTE5Rm7GMugY+dIQvTX9e3zyFb68M4/2P+/D62zb86nUrzr5ixbOvWPGrc11swvfeJwP49uoo6punHd4svEd9ywx7bzqJ0H4iFRe5oRUh+hYmzJ55tRcNxlVJq7x6GpkHrRCltq29ZerUJ3rNifZbply4lAD6gOgjJxLEYNlNBEhK8ORZI9otvCpMX8pqm8U773dBlVCJ0MjbiE2rYjlwemYJ2pRqFB5swkef9aG1bcZrjyfA8fRzeWWFLTV98vUQHj1hQWyeke0uzs2tsF3tiJQW5D1mwVsfDro03D39C/j1m/0gBYeMcqLHE4ufELlwyVWsC9FHTiQtUaIqA1VnmfYWXnylDUbTFPvOVDCi9BUIUZY7AJIHUjhvi7iN7XJewTHsrMehUyb8+lwn/vRRLz77ZhAXr43gaskos4vXR/DFP4bw3t/68fLvu3H4aQs7rShTKAfWIyi6HvE7jXwVnltGUqEJ26Mb8ZV9iEUfpsM2jzfeG0DszjaEJbay4f2a+85ufSJ/33ltODvnRB7gfUBkLY6aF2XDI0uxJawEEvUt1nCfed7EWhyRqhyxBt4D6VQRk1bNBFnaCouIrUS4thLBURUIVFZgu6ISgZF3Eay+ixBNld2qWZ9Iw6pgTQ0TIWjOwhbfDU3s3ExHPgpf5oGFJtYnHn7WiutlEzj9cjc02SaExrc4Lb3zheVeIQp9IhcuvgLmhfcLUVBxNGUQRZVhu+QmAiNKIYu+jXBVOeLS7oI8kiSw6NQqbI8o96zi2AUIOd0eoMos3GNx24BwlsJCdPWs0Z6bX2ZL8MmFJnaPRZnWAtqCCE9oRmSG2837TVg3JohcGAHcCEQfOZEd/UjBEVQcu55IrY1IXY5mIx/a10tGkLqjBttl5czCVBWQxFRCFlcFBVs59rL4bm+2ZYl1EMfxVTk4upaF840yfgJnbJ91NNw0LvU5Mt0EiFyY6HtsGKKvnCh4ogDRLoUFycuQ/2gd2+yinETKyZUbw3ju5XZkF9VDlVSFMDUfxjSo2q6gcOZDmsYEQVEU1lUQxdRAk9aA3H1GPP9aF66WrEpZw6OLKHqiDaL4Bv4ZEOvoiTQudTwD4h73E3mAou95L9yIJ3qB6Hzsc3iithyy6HIESEuRmFWFr/7Rz8LZubr2D8yzad6la8P45Hw/G1b98YMekL33cR/+/tUALt8YQXX91JqJHt31+ObyCAxFRoTF1rM9HMeDNJwhPoD9RC4s/DKYF26mJ9KRT36T9YkSwRPphBLNn5u3S0qRnFuNl89ZcK14GD19q5MyZ6i+/r63fx7XS8fw6ps2pBe1ICS6FmJ9HaLS6BkQvLJNJ5awOBJnm9a/PSB44wavpfEABYji9cM5WHQNIeLrqwKEW06Uqm5iW3gxUrMr8ZvX2xCupKGV26BKexuhkbeYkhMou4XI+Epk7KrDoRNGPPdSO377dhfe/aAb73/ciz9/3It3P+zBG+/Y8NwrHXjstBnZjzQzKSxUW41AdTUkcfZFTxpSCYMqAy9AvPZ2L3L2mdmgytcVDLocuaELkvZjHxcadgnMC9eDKL0Gsew61DElUMfchEThJEDYw1kaVYJtYTegib8Fk5kvGK/+to0BdQ5n57kzLTXRnCU06jYCFeUIoMISUc76xG2y29gmu4Pt8jsIUFaANiCovaG5M0lhCqrQXgQIWn5//W1eNWrrnPN5j4VuVDkuSOYJedG7FOYYVO2yggFcA9FDTgwOuwK1rhh9/XPoH5iDJvamiydKlMXYFnodGn0ZWk38Uc3cPg1DTiULZwZQCGc/hvceF9+FXRz3C5IeIJIUlrWnFcKmLC1trrkMlMVriSSF0ery4IjbBUlf4Uzn5oJOcKGhFxEaegmeIDpX56DQK9Doih1L5tq4m6BwJilMovgBW0OuQR1Xilb7KcTcNoXohFvYFv4DpNRoC9XZacbi7IkPYsnTfWfbE0Taw6GrurQ4v7wMn1KY4wlNwomFAQwhgF4gOuXEoNDvoY4uZmo0zSu0sSUOgFuDrrKwbm21e555CtHxZdgWegOUEzcyd/albPtzo8pZT3Te2XbcqHLzRHlqCxNj6YREYqyLFOZHYeFCQr5DqAAxzIMn2iEGhRDAH+wAlxjAENFVbAm8ApWuBA54bVPQ6kuxNeQ6KCf6mrHc12qdhw0IT3riehAVhmZ2YZwBnFvhpbA0+6lFAMh2FD3nRC4k+DusC1H0PYJCLkOtFQDyHviLX16CKroYRrvnUeHQxpVia/A1UE5cd2T6I+VEjxAtfE4kQZbEB94DeSmMRgQuD1wTQHrIiVxI8LdYA9FDTgwMvgS19gbzwLm5JYhl1yBT3nCCN8kKy5agKywnskmfP832T5kTLXPsqq46o8UxDqB8qDC0rH1qnReIXEgQAVwfIgFUaXiAY2MLSDaUobGJP3+azZPQxBSzcObnK04tjuCJfsydIzzs4jzonNhinkXOfjNbNKKRK10ap8Li8dF/HiByIUH/gANiiPdwDgy6CJXmOiYnF0EbWdYuXjxtapqAQnUDv3joIignUmVe02x78URWmYXqfL/h7CMn0n4i3eujS+N0QTJQU8uu6tJlcXrZeueZFEZyGIUzPZHE351tLjiQADpB9JITGUD1dYyPr26WdnRMIzWtDCLpNeaB5IWamBIWyt6abZ9rJPcL0UOfSDeq9DmN7Goa3XeO38HPnGmZKWdfK1tDFo6MNFpIKmxlj3VR0cVxP87OXHDgBayB6O6JoZcQEHgRas11FxGAXH5kZB6zs0ssN9LAXbABD822tw0IFwFiE3MiLb7rsxvQP7TAigQVCsFIGaf9QNIQhRdtQSQzgH7c7bNXZi444Bt4hOjmiUHBFxEadhmlpYOYmFhgNjW1iNm5JQaQIDrb4CB/WhGabcfw/kfMicJWGE0ACZiz0X98Mgpb2sEh77tTPcmUHHq4kKe7fc6rdYIUxgVv/wYMYsD6nkgQ6dxMnshMe4NVZk30D2CmK2anFRbGMcXs7LyRkemDyInCBcmE3AZ235lu3VMo03VdZvnNbI2EHumicnq4EHumrLMU5mXJkwsigAJET+HswRMpnMkoL1J1ZhZyGdRs04mFWdgVlhs3OjJ1CedNyonkiWS0KctMz18IEgoLrRvTc3GEhwt5XfL0kBO5oG1fY12IHnLiemfn+5n2uUDcxJzosovjQYAQpDBBT/Qoyrp5Ig/QH4hunuhRgHA6O/s9qPoRc6I/T2jaKEQuaOtXYF4oQKSiwmz9nEheuMYT7wXiT9wnOgsQztO+9T2xFVzQ1i+xBuIGcqJHiB70xHsd3ruE8yblxM30RC5wCwHcIMR/5UT7MyCM4AK3nMc9Qfxnz4n2x+Zzgb8kgD4g/isnOgZVa3JiRgu4wIe+gAMiC+UNhrO7J3oqLP+PcyIXQACdId5LTnSH6EFP3MwNCJfC8hP3iVzAf3wOHuL5VU/8OUH8mfeJ/wvlRma8tGPdHAAAAABJRU5ErkJggg==;" vertex="1" parent="ooqM9sPuauhWhxl2Y_vB-63">
          <mxGeometry width="80" height="80" as="geometry" />
        </mxCell>
        <mxCell id="ooqM9sPuauhWhxl2Y_vB-65" value="" style="shape=image;verticalLabelPosition=bottom;labelBackgroundColor=#ffffff;verticalAlign=top;aspect=fixed;imageAspect=0;image=data:image/png,iVBORw0KGgoAAAANSUhEUgAAADAAAAAwCAYAAABXAvmHAAAJTUlEQVRoBdVZiVeTVxbvf1PIQhKSAIJKqeNYEAQBtXWZ9mhrK53RaadUHfVUp3Xq0jqO3exo7ejUWi1LdkDCEvYdBcqmyCKgbGEPhAR+c+6NiQmL44Zh3jk33/te3nvf+727vHvvewn/5+WlR61/ZHgKw8NWL9IURkemHrVEzAFgNk/g69MNiI/OwTJ/DQKlagRKVV4iNUKUWmzeYMKFc82YmLDPAeMBoOG3QYSvMkIpLoG/IBNKPxUCJN4lf2EK5MJsKMVFeD0uF/fvWTxAuAAMmiexOjQNSlEhtm/LQ0lRD8wDkxgasnqV+vomkG3sQlxUFpTiYrwRnwWr9SEnXADOnKrjnafF2+3THiiXwsvQoBXr1mRCISqAKrnNtSQGMG2fQUzEdRabqoo+159LraJJbYVCVIhdbxe4lsYASNODZCrIxSksLq5/l1iluWkYUt80rF+b6VoZAyBTGSBJZUtDdfdSVdGPwwcaYczocjWXFvfi8IEmFBX0uNpmVyrKe/HejlLERebi5Oc3YbfPcJf2thHs/6gKcVEm7E+swt2OUW4fG53C4YPV0KrbZ0/ler/VTAB0iI6YBwCZSrI4pLTu5ZfLLQiU3MC61667mrdvNSFIWodz3zW62twrZCmCZOmIicjG8aO1SPygFJMTdgwPWbEmzIjlyjQcOVSJEEUawl81YmzMhpGRKfgLs/DXj8vcp/KoOzigR8x8HFgIQMqvrZAJMhg5TWAemIDEJ4X15dqVO8jM6MTpL2r5QzeqB3DqRC2Srt5hWU03dHgs4PKlW6yEZSW93F5ceJ/fU5PaMD09A4mPCp9+UuUxxv3lqQBcu9ICpUSF8FXp+MfJWvzn37ewJiwNQTI16MNXf27hRRDnjhyqgt/LKbjVPIRguQ6hQZnQqB6KxN4PSyH1UfFu08JojMRHzdwgEVsUALTAYIUGly40Y2WgFmEhevx4vgmvBOtw+dJtPupJLslWb9uUg90JRbxp1ZV9iI3M4wPowz8VgywdPSU+SSwy1Gl01Aa/l5OwP7EcNtv04gGQClLQ1TnGQKh+r9vC+vLDv5p4sXFRmUj8cwnCgnXMFW4EMDMzgy+P1/IBVFneh3+eqmMr0tc7wV167lsg801nsaO+xIGjf6t2Dp/zfCoRIg7QxMPDU6i5MQA6J0gh/XyScf6sQ4nPf98IhdiAEIUGPT0TvMP3usd5AaQH5Jrk5d4D6YhCXISz39TzafrtmXrWlYryPkxN2fk7B/dWsGiZB6yw2RyWy4nkqQCQ4skEaejpeeiDkJcq8dXi7NcNPHfL7WHIBOnYujGH3+tqzFCINQgLMUDqa8Cm2FyXV3ng43L4C4xYEaiHTKDDqZM1PGbQbAVxl8RRLlLBX6hHealD2Z8JALGZ7P7U1EP3ghSutKQX3V2OXaYPBEhVLmtE/5cU9eLSjy0waDsxPu7pEhcX9uKDP5ZBLtJDp+7EQP8kz09iVlTYg4K8+8g39cwx6U/FASf6hZ51tWbs+8sNSH31qP9tcKFu87ZfvtSClUG5LFLzdpjVuCgAyKbv2FaBKz/dnvW5x3sl7sw+/RcauSgAFvrYk7STL9ZQP8SuifF6F4jITSGOkkvvLO1tY5CL8rBqhcHZ5IjIaAcWOoldPZ9z5U7LCL77qglbNuYiUKaGzDcNcmEuFKI8JqpTW4BUjS0bcvHtV42orupH0tU2D3/J5cy9KADkMpz+sg5yoY7Nq1yYw5FfbGQmdr6Vjz3vFzHtfCsPcVFGPm8cEVkplGI9LpxznD3O/XzhAChwoqBE6qvBgb0VfD709zkONuei3J9kofJN93BoXyVkAg2PPXXCYXqp3wsFYLVOIyxEx85hceHCrrg7APd6WWkvi1XoMp0rwH+hAMbH7exLkWx/9slNdHU+PEfcFzpfvbvbgqNHbkLmawABIPebygsFYLHYOXEg9dFBIcqHXKzG7l3FuPhDM4sSnSktt0eYqE6ic/HCLexJKIZCrOYxEh8tVi03YHTUSwBIhJRiDRLeKYDSjxZV+ECZTeyO0AKJyDWRC038H/UhAI4xGoQG6bwHIHSZFv6ilAcOnwVa1V0c+6wG7+0owKbYbEStyWDauD4L724vwLFPb0Kj6kB3lwXjFhsUfqlYEaD1LgBy2nrdnEN3mSc/imi+0t8/AbloiQCgIP5Ji8Vi8z6AV5frOYg5/30z7LP8/UcBIq5QftRfkIZXlnlRByh9KfPVw1+YjfURRnxzph50JnTeHQNxZXLSzkRWhswspTgp8ImNNPIY8npXLdd7TwfIEZOLNIhYnc6BDUVr5CpQMoAiut+t1GN1qAHLlVpuI6COZHOWY4xQ7V0OOK0QxdUU9Jz4ew3e3GxiD5MUlIAQUZ12+s03cnH8aA17pxRcKZeKFZrt/1CcTX4PiQ3RQL+VY293vTCbJ72vxMQBqSCZ5d19cY9Td1ihFO+eA2yFBGn49ZfWx1mzR59kzhIuCStkYI90+7Z8XP35Dhrrh0CZDkp+OQuZTYrU6D8C+/YfCh6kOJeCFRJqsDJIy+EhXR2Rh0nZv7Wr07EhxsgU+fsMRyLN18DZPYrUVgTSGA3Cgucxo5SZpqjscQNs5049yZO8UdIBuTgVFFLqtR3Yn1iJmAgjt0l8NOzvU7ZO6qOFQpyK6HAj9n1UCb2mA22toxyhzfGF6NAIlqtZw+mubLEKAaCdJyUmkXGWmRmwBSJQFMgTkVtNVolCUGehNLxclMJnhIc7TRNsiDaC4tO83G5n/+f+pGvSFQEayARatLc5Ljae5COdnZSV0LJojY/beCgHNFSjjDPJY1xkFgYHF48Lu3cV8XfWr82CQXvXgxMLgSFlTtffRfy6HCjFhXh/ZyFo06m4AFjGbYhfR3fExYh+zYiUpFZmJV3rUELpWampYRiDg1bQabplo4kDGbnIxMEJBSqUxb54oZkvR5KvtXKdLksS3ilE6DI9qC8FNpvjTZwdd4J1AaAGyihve53yMgVMFLtSspUcqGclWgBdjlChTDSZz60bTZyRpvCS/B0HUYTmiNKU4tIHYSTlhvJw5ac7HnfENJcHAGqw26ahSm7HnoQyxK/LRnT4db6CpWvYZ6HYyHwWGUbg9kO6kJ3ZDbpr+OJYLQ4frGQ6+XkNt2VldoMycguVOQBmd6SLh+dRntc8s9fyPwHMHrDU3v8Llq9LHQ0C47UAAAAASUVORK5CYII=;" vertex="1" parent="ooqM9sPuauhWhxl2Y_vB-62">
          <mxGeometry x="200" y="60" width="80" height="80" as="geometry" />
        </mxCell>
        <mxCell id="ooqM9sPuauhWhxl2Y_vB-66" value="S3" style="swimlane;labelBackgroundColor=none;sketch=0;fontSize=20;align=center;verticalAlign=middle;startSize=40;swimlaneLine=0;flipV=1;fillColor=none;strokeColor=none;" vertex="1" parent="ooqM9sPuauhWhxl2Y_vB-16">
          <mxGeometry x="600" y="480" width="80" height="120" as="geometry" />
        </mxCell>
        <mxCell id="ooqM9sPuauhWhxl2Y_vB-72" value="" style="shape=image;verticalLabelPosition=bottom;labelBackgroundColor=#ffffff;verticalAlign=top;aspect=fixed;imageAspect=0;image=data:image/png,iVBORw0KGgoAAAANSUhEUgAAAFAAAABQCAYAAACOEfKtAAAYl0lEQVR4Ae2cd1iU17bGv/9uzk1ipXcYegfpRboIUkTF3pJ4jKKiYkFARXrvVSn2gi3G3mPXGKMxlsQee++9JO991h5mYAYGvhkwJ/ck8zybYSyw+LH22mu9a+3h/LKN4Z9tAv8cEwTkmKBHrilbgXmmCMwzQ8/8hhVUYI5gWoXm6FVogV5FFgihVWyJ0PoVVmKJsBIrhJcKV+8ya9CKKBeuPhU2oNWXVqUt+tGaa4vIuXaInGeH/rSq7DCgyh4Dqu0xkK1uGFQjXINru2FwrQOGzBeuoQscQWvYQuEavtAJwxc5YQStxc4YSWuJM75Y4oIvl9avZS74apkrW6OWu2LUcjf8e4Vwja5zw+g6d3y90h1j2PLAmFUeGEtrtSeiVnti3BrhGr+2Ozi/LGPIgtiDQTRFoAyIwRIQLZpADKuHGF5mxROibVOIVSKI9rIhzncQQqwH2SzExQRREqQkRNcGiCvqIYpBNkCMWu3BIEbVQ+R8CSAfiI28sbEniiAybyxWFKJNI0/860GU9kQRRPJEBlBRiAxkIW1p4Xb+O0EcW++JnE+mEcQA+XiizO1s3igmyvbE3v9F25liIgMogigGKeNg+Scmig6XhpjIeWcYgQCKILJ4yMcT/4mJ7HTmvDMMIQ2RtydKQfw7xkTOK50ANoXI2xP/5jGRAZQFkbcnyoQoPJ2Fybbsg+X/bZ640h1c9zRDEEBZEHl7otR2FlUsLac4VLVYIrTEAqEl5vXLDKElZggtNUdYqTnCy8zRu9wCERVW6FNpLa5aJCqW/2CyzXVPE6A1iLw9UQpiQ0w0R88CUwTkCeCTowuvbC14ZWvCN1cHAfkG6FVshogyG/Sf64hB81wxtNodQ2s82BpS7YZBVU6InGuPiHJL9Co1RnCxAIHF+ggq1kdImREiKswROc8GA6rtMLC6hbKvvSuWOjdwnqkEUACvdvJEUe0ckGsEryxduKerwytLGyFFlhhZ64/4NV+geOdsrPxhHnb98i1OXD2EC3dP49bjq3j44h6ev36CV29f4PW7l+z5+ZunePTiHm49uYqL987g5PXD2HNuA9Yer0HF3mQkbRyNqOXBGFjtgNAyI/QqNUB4hSn6V9mw0q9J7dzOEBlAEcS2eqJ/jhHc0zXhlqaOXoVWiF4aico9Gdh3fituPv4NfB7vf3+Ht+/f4M371+yZXvN53H5yFYcvb8fCI7mIXzcUQ2qdEFJmiPAKYwyotpUUINoRIueRagACKIIoryeSguOdqQ/nFBUE5pohduVIbPxpBW4/ud7k53788gFO3zyGbafXYNGhYuRvj8fsdaMRUzcQUUtC8dWCHhhR642h1Z4YWu2BYTXd8cV8H4xeHIgJy3tj+uohSN44BsW7Z2LZ0VLs/GUtzt4+jsevHjT5Xnef3cCOX9YgdcsYDK5xQEi5ASKrrBtUnHaB6AbOI8UA0hD5eCJJYN6ZAjgmKSO82AGV32Xi6sNLEj/ItYeXsflkHbK2TMPXi8IQUWoPv1wDdM/UgkemBryytOCTowP/XH0E5AsQWGCEoEJjBBeZsNWr2BTCZYLgYiMEFRkisNAAPQr1EFCoi55FBggrM8WQGlfErOqL4t3x2HF2NW4+viJhB71e8n0BRi3xQmi5AANr7DB0viOGtgNEzp0ANgOxJU/0yzKBa4omvDIMULozBY9e3BcbfO3hJSw6WIKoRREgTZG2s1u6OryzdBGQZ4SgfDOmJzJNUawnyk5xWq6dSVO0Qe8KS4SWmiCo2ABBJfpMU4xdOxArj1XgxuPLYtuevHqIhUdy2JbuM8+sHmK9nqigFMa5J+tDFsTmPNE30xhOc1TRv8wDJ6/9IDbu2JUDiFv9bybKOiWrwCNdGxQTCaLoYKHn5qSw9s4T+861Rli5MYM5oMoOGVvH4+T1Q2Jbf71zAuNXBCNirkmbPZFzI4AtQJT0RCO4JGshsswT957dZgZdfXAJsSu/gluqJpyT1eCbZSihbIsFCKkUh1+eaAV+oqxsPbHfXBv0KhUgvMIE6VvGiT3y4Yu7mFDXC/2qLFhcVGg7L3MB55akDxFEtpWb2c4iT+yeZgDXFC0cvbSPwdt/bjsCss3QLVGZgWOtgWbaA7IgNuSJworlY+qJ/atsWYozuMYR31/Zxez/+cYR9KuywqBae4Uhcq4EkAdE8kS3FF0E59nh9duXeP/hHYLyrOE4RxUUE3lXLDLLvo+vJ1KSHVpuhOEL3Jj9lCqNWuKN/tU2ip3OS13Auc7RA1+IHqn68M4wBm3bP/74A7PXjINl/OfwyhAwUZZ3xSITotAT2zsmUtlHsTByni38CzWRuyOG2X/ryW8YUuvYhjzRBZwLAWwGYnMHi2eaARwT1XHk0h62Bd68e4209VPhmKQGhzkq8M4Q8PfEPy0m2qHvXBsElwhYYl28OwFv3r9i9v90/SB6V5phUI09FKpYljiDc0nUgyyITWJimgC2M7vim2NLmAGiD99f2otJS4fAM00P9olKLE76ZApa7/ZJQWzPmEjiQ0iJMXoU6iKi3AKz13+F49cOiExmz9vOrkRImaBN3T7OOVEX8kC0TuiMsp0ZzIBfbv2Mqw8uio06d/s0S6i/rAmGb6YRHJNU2HJP1YJ3pgH8so0QkFvfe261ZcovJpIUFlZqiZASM/QsMkRAgS4CCvTQp8IKk+r6YOHhfFy6d0ZsIyXVl++fZa8XHclnB0tbBAgGUB6ItjOVkLAqihmw4/S3cE/RQ/muDNx4JFnr/nb/AjacWIGsTbH4ekFv9C5yYBBdU9XhnKLKFiXZHula6J6pA+8sPfhmG8A/1xABtPIM0SPPiC36nJQc/zwD+ObqMhXHO4eqGC345+sxeEOq3BGzsj+Kd83EtjOrcO1hwy+WjL399DoWHylgktjBi1uZ/TnbJ7NtLWzeK9Z35pxm64IAtgZRFBPtZ6liVE1vZsClu+fgkqQFq4RO8M00wfS6L7Hp5CrceXqT/X3jDy/ePMO526ew99fNWPH9PJTuTEbStxMwrW4Yohb3wVe1QRhW5YOBlR7oX+GG/uUuGFDphsFzPTGixg+jFwYjenk/xK0ZifRNk1C5Jw2rf6zGgQtbmZrz4u2zxt+OfX7/+S3s+uUbpG4ah/7zusG/QJtpi6LqZPragQgrN2FTEIpCZABFEF14bGenRE2EF7rg/e/v8fzNMwTl2rL0xiNVD91mq8B+tjICsi0wdmEflOxIwa4zG3Dl/nm8//C+yQ8o/Qd//PE73n14y5SY1+9esWd6TX/e2oPsIa/bd34zavZnYfrqwUxfpLo5sFAfvcstGbyRC7zw5t0r9n1GLfZDRKWFcIxEQVGWc5ylAwLIF6JLkg68041x+8kN9jMNqfCH0xwNCT3RI00PTknq7EChPJE6fpGl7hi/OBIp6yehem8e1h1fjP3nt+Pn6z/g8r1fmXrz6OV99kt59e4lCCA9k+eSikPqzpX755iac+jiDmw8uQwLDxYiZ+s0TFs1BCNrfRFeaomAfD345ekgsFDAFO3Gszi9SowxeWU/Zjfpi+SVVPaJZ3EUgMgAygPRLUkPDrM18NPVo8yQSUuGwW6WMhNlRRWLdHvAK90AHmm6cEnRgFOSKhySlOGUrArXVA10T9eBf44xgvMtEVZkh4gSR/Qtc0ZkuQv6lTmjb5kTIkq7IazYGkEFZvDPbaRqZ2nCJ0cb/nn66FlojJAScwYxXMZAE6k3aZvHMbtJmCUBggabFG4PLHQE5zBTBwRQGmJLMdE6vgs2n1zDDMncGAfrhC4K6Yk01CRchvDLNoRvlgC+2cLlly2AX45AeKjkkShhjJ4FJgyiWMmRcxaHTujq/cIMgg6ansX6iKTJMOmpMDk8kXOYqQ1ZEGXFRPMZHVG9p4ABXHSgDFbxnSVEWVmeKGret1SxkEBLqrZLqio7nUVKDuWIbc0TCeCGk8IcltIbyhGFo3UKQlzgCK5bAgGUD6JlXGckfTOZAdx5ZgNsE5SaiLKSKg6/vrN/thG8MvUwc81o1OzLRfTSAfDK1BHLYQxg/Xyi2AvZfGLreiLpij0LBfjht73M7qytkxFYZNDmqTAGUF6I1vFKGDu/PzPkzI0TcJqjBbdkvSYQ5fVEt1QNVO/LY1+XPtDpm/hNFPPIxp4oLYXxqZ0p2SaIVx9eYF9/6qqBCC42lBrylN8TOfsELRDA1iA2jon2M1XRt8iTFeQPnt+Db4YZXOboyK1si7dyljFTt0MKbPHs9RMxQPrk7M3jcElRhXu6BnrkmTBFW9IT+Ulh1BqgPgud7KQkfbHAF6GlZvWTsrL1RDYp20JM5OzjtcAXoigmOszShE+6GR69eMAg9ilyh8NsdSHAFvRE6dO5cUyk9kDPPAs8eHFXAiC9OHxxN6bWDYNPlj5rEVDLVF6IPQsNWWOKvt7tp9fQt8IO4WWWjcaNFYPI2RFAOSE6zdYBQTx78yT7Yb+u7QubBCWmbDcRIOToO7ukqCNj4zS8+yBsZT5++RBPXz0SAz157ShS1kezmOiapgq/XEPxzHZrMdEvTw9J68ewr/XT9cOsbu5dbsUANj+zzW87c3ZxWpAXIm1nyxldsPvMZmbQ7DXRoIOFr7Ldkie6pWiCxIhZa8cisswNfUqcMP9AIR48b/DMqw8vonx3GvqVO7OGlU+2LktvJAffJQ8W7xxtVv6RwZtPrYBLRhfmgRHlwqF3RSFytnGaUASi6bQOWHygkgGs3J0Ls9iOEsq2qHaWbpnyOZ3dU7VZf6V7hj68MvTglKyM0CI7FO2Yw6oR9k0BPH31GGt/XIAxi8JY188zUwOB+cbNTsqS+LDuxEL2X+8/v42CHXEILDRkrdI+TSDy3c7dwNnO0IQiEAlg5oY4ZtCG43WwmNGZt7It7+lMVzBIDnNOVmFyWOK6sTh2Zb+II3s+enkvUjdEI6zEBh4Z6vDN0UNwoRm7ghFSbAG/XD0cubxb8v9c+Q4j5/vAP580Q2lP5AeRsyGACkA0n94Z0YuGMoN+vHIItgkqcJmjyxsiH09kfRapcWPSFEkS656hg3GL+2LjT8tZvSwic/fpTdQdnYuoxeHwzxOAvNIvV5/BvPLgHPtnq4/V4P7zO+xzmruZumqwUENsArHxPZZmYmK1PTibWA0oAtFqhjIGlPgxI248ugb3JAEcZ2s12x6QdbAo4omiy0D0TFqia6oaIstdUbY7BefvnBZxZM+nbhxD+XcpGF7tjT5l9gw0qTuhxRboV+GAo1eESfXLt88RtTQUQUVG7EJQYwFC8jJQU4icNQFUAKJtvBr80q3w8s0LJg0FZXeDfYK6zPZAW2Jic54oulFFLVOfLAMGktKbmBWDsfnnOjx5+VAM8/c/fmdwqRF279ktDJ7nDvcMFbhlKGPLqZXs3x2+tBM9CvRZsk23qiQhyt7ODKAiEO0TNOEwSxuX7p5nBgyrDIZVnJJc7QHRQFNbPJGBrL+WRu0CzwwtNlLXt8wRGZtisP/8VpY8i2kCDO6pG0ex9dQqHPtN2OO+ePc0ehYasStqzV9Lax4iZzVdAwRQfojaMJ/eBQfPCwPz1GWjYD69E0TJNu9GlRx5Ymue2HiMxD/HEB4ZGvDK1EbvEjumHxJEmjuUFmjpz9I2RaNHvtAD+d3tE25nzmq6OhSFaDTlc6w8soD9cvO3JMN46uf1rQH5GlXt64mSd/t6FpjBKaULlh0pZ3YuPlSMyAonzPrm38jbFoesLVMwamEgm5QVXZCUZ2abs5xGABWDaBjzKfI3JzPD6o7Mh8nUDmJlu3HtzLfv3J6Tsg03TU2ZLHbo4k5mZ9rGiXBOU4J3tg4bNabxuh75hmxWm26ZyjuLwwAqCtFoSgdMWTqKGXbg3C62pUXCrBDgf9gT88yYAEEiBLUN6DFxeX/4ZOuxZLs9ZnE4i6lqIICKQDSd2hlDyoKYYRfvnmO6YrcETbl6LLJSHEXzxManM8VEvxxD9Cl1ZCnMh9/fY8g8L9YWaK12Fnliy/OJtmAAFYVoGauMHhn2rPh/8eY5fNIsQemNyAv5NqpkQWyP09k7Uxej5gezX/KdpzcQUmTN2gMEUHQFg4+eKOtg4cynqMF8qhoUgWgzg2Dp4eaja8zAfkU+sIxVkrvHwn8+kZ+yLUq2yRupPRC3+ktmH6k5tH1JnJUWZRXdzpz5FFUoCpFqaPNpXXHssnD6M2r+YJhM7Sh3j6U9VBxZKY5LihqKticygNtOrWHCrGhStq09Fkq2OTMGUAiRvFAeTySAgsmf49sf65iBqetiYRjzmdw9Fr7ziSSDyZLCGMBmbpnSGMnKo9XMvvn7C+CaptYuPRZRss2ZxahCCFGNeaK8EPWi/4Wy7TlCA/eWQTDp01bbA4om2/LHRGNQn4Ua+PRI2zgZbmkkeTX/RhqKxETOlACKIcq/nfUnfor4FeOZgdt/3gCjmI7iFkFL3b4/I0/0zaLb+Ia4cFc4nTVhaX94pmuxwfeGPLH5wXe+MZEznayCtkA0nNwBIyuFw0anr5+AVawq7OI1eTWqPrYnUp8lrNAez14/xYffP2BQpRe7FNReM9t0MnMmBFAGRD7b2XRKVwRlObPm0sPn9+GaaMQgytuo+hi1s0eaNkZU9WC74+7TWwjKt4RvtqHwvXHaaT6RM5mkguYh8ouJFtNU4DzLENTeJLmoV7YLzKcpyd2okmfIk2/t7JysjqkrRjCANMTUPUMX/tnG4jcXEnuigjGRamfOeJIyjGVCbD0mWk2nPFIZp66dYIbSdjaa3FGhRlVLEBXREx3mKCNv60xm19ZTa1mfRfodmsQQpcaN+eaJnNFEAqg4RBIi9Cd+hm0n1zND4+vGgw4WRRpV7R0TuyUqYdmRucyu2v0FIKDNvc2VLIh88kQGUARR9nZuOU/UHv8Jqr8rYYaWbs+G7oRPFGpUtUWAaK52dpyjhj2/bmF2pa6fDKckldYH32Vu5+ZntjmjaGUQwNYhyo6JBDBlbSwzdN2xOqiO4WAzQ+NPhyjKE73TDUFDng6Jqjh/pz6FWTIALska/N7mSiZE4RhJ49qZM4xWgjREeWOi/sTPMaQ0hAF88vIxxlQPAkEVTPocVrFqCm1nRfNEGnq3m6XExo3zt8wG9UNopDe8yBEe6brtfI/FEgxgWyFSuiOY1BFrvl/KINKHTSfWYnh5GKxj1aEbTTA/Y6ezzQx1dkLzGWhqLSaSCOGapAvHRA3YJHRlg550k2raii9w9FJD37hw2xx2Ja3xLI6s2rmhxyL59n8UD6VjInkiJ5igBEG0EpqDKE9MNI1RgvHkLijZls2u6otIXrxzDov2VWLCguEIzHCAbZwGjGI6wGDS/0Iw+TMYT+kAs2mdYRGrBOsZKrCJo0RcHXYJjZcabOJVYB2nBMu4LrCY0QkWMzrCJkEZHikC9Cv2RMLqKHxzbCluPRYqQ/T9Hz6/h5R1k+GQqMJqaAIogiirdpbWE2WXfcKYyBlM6ArFIErGRKtpGjCbogztcf+DnpnOqP2uDDcfSV77p+108c6v2Hl6E2r3lIDEh+iFIzCiMgyRRb4IyXVBYKY9/NOtWcvUP8MG1C4Nz3fDwFJ/jKqOwNRlXyJ740wsOViJfb9uZ/f2RL8s0fOV+xdQsSuTXYy0ndUV3dMF7N2ZFH6HJhkxkWZxOIPxXdEaRHljouGkjtAe9wm6xevhq7n9MG9XIY5ePIjHLxsmrUQ/rPQzNb7ZhP5b4aQ+vW7tQVNcP1w+gKo9+fi6tg8bN6YbVXSHRaTgyKviNPFEGXkip08AG0GkrdzcdpYXIuWH5JH60Z9BZ/wnMInpDLdEE0QW+iNmySgUbUnDisMLsOfsNpy8egyX713A3ae38eTVY7ysh0dNexoguvfsDq7ev4RT14+Dei9rf1iKip3ZiF8ZheGVwfDPtARdAKIJMbuZKnBL1m23me2WYiIl25z+uC6QhtgeMVG6x0JAqWIxiukEg4mfQTf6XzCY+CmMYzrCYroSEx9cEw3RPdmMtQZ806zhm2YJ71RzeCYbwyVRn8VFqxldYR7bCabTO7CBJprJcUzUgmuSXpvnE3kdLFLbWQiwXSBKxkS+jSoSZelgodPZeoZa/VJlh4lNnBps6UCJV0e3mcJJCBrubC3F+Zg9FmpUNT5YOL2oLmBeKAdERbazos17WVcwWoOoSO3ceGa71TfmrY+JnG5UF7QEsT1jYntDbC1P/NieSL0VTjeqM1qD+DFiovyzOM3fqFIUYnO1s/x5ohk4nbEE8GNAVCwm/hVUHFGyLd7SUkOeohSH4iEDyCAykC1vZ1me+HeOiZz2mE4ggHwh/hMTJd82nwGUgPhRtnPLeqJi84l/jZjIaX3dCQxgY0/8KBD/O2MiAyiCKOGJ/8REXu9uzGmO7ggCqCjEv3JMVDTZFinbsgSIxqfz/wGcZrSy/qrmFQAAAABJRU5ErkJggg==;strokeColor=none;" vertex="1" parent="ooqM9sPuauhWhxl2Y_vB-66">
          <mxGeometry width="80" height="80" as="geometry" />
        </mxCell>
        <mxCell id="ooqM9sPuauhWhxl2Y_vB-67" value="CloudWatch" style="swimlane;labelBackgroundColor=none;sketch=0;fontSize=20;align=center;verticalAlign=middle;startSize=40;swimlaneLine=0;flipV=1;fillColor=none;strokeColor=none;" vertex="1" parent="ooqM9sPuauhWhxl2Y_vB-16">
          <mxGeometry x="760" y="480" width="80" height="120" as="geometry" />
        </mxCell>
        <mxCell id="ooqM9sPuauhWhxl2Y_vB-71" value="" style="shape=image;verticalLabelPosition=bottom;labelBackgroundColor=#ffffff;verticalAlign=top;aspect=fixed;imageAspect=0;image=data:image/png,iVBORw0KGgoAAAANSUhEUgAAADAAAAAwCAYAAABXAvmHAAAH3klEQVRoBdVZeWyT5xnvf983LYUSxtptVFq1ddI27Y9qKWh/MGlonar1UKeNapVg8ZE7He1aWiUhJVpBJCmFMrGEqazQpozS0HK1bOXYSkUhHGloCyR2fMdnfMRxHB9xYv+m5/H8yZ8dh2C82H2lV997Pu/z8/s+p+/AV7zcMRf/iekoZibHilbjIT8Qn5mLRcwKIPjFSTh3PQXDs/djUFVevKouh/GFH8P5ejVCukuzApEDSMRh/3s9nGoRk/UitOsEDCqXFLUaKwWE6kXQd/TI1iwQMgDWPfUI1okYVi2G93gnorYhzAR9Ra0R8+dw7X+BAYzViHB/+JoMhAQgeO0M//LGmqUIaS/IFpVCZ/z8QYwoReiUZYg6dRJLEoCRHWv42Ywe7ZQmS60x0q1EuEHEaO8miTUGkIhFoXn6u9D9QcSUyyBNlloj+OVpeKtFmDb/UmKNAZCqJG1zXXEXq0xptsQaJA8WpQB984MSZzIApHFIaEu1REwDSQAtKyQWCwaAjE7EcBmha6cxOfgJYh6LdEihGv8XAKHhPji61kFX/y3YVAJ8NSJGq0QMrvsarFsfQuDioULxj4IDcL/3MutnMjRDawXomipg7nwUxpdXY7BqGcZrRXiqRdh2rsH0hPe2gRQUgH1/EzNoIAt5oAlRh1bG4HTAjbFT3dA3fCdpSTeuuG35KhiAwKXD/EyMqjIE+o/LGM/sTLlNMG+sQLhehPmVxzOnb6lfEACJqTA06+8HmXXvye55MTDltULfuBx2lQDngWZYuyphbn4A9o6HMX7u7XnRoEUFATDe1wt/rQh9miqbDwe+j/fBphJhVQq836wQ+Ecgobfte3Y+JAoDwNatYJfD+1HXvA5NLUpMT0Hz9H1wV4twHWxF2DSAsY/3Qq++i5/jxMCJ1NKc34LcgGHTKjjUIkK6izkPyjURNlxB4PJh2bTnw+0Iknxs+41sfLbObQMIXvs39A3LQddPzBSikGeprxQwrFwEb+9LiLr0OcnmDSARn4HjjQbYVSIbKo26HFHHcM6DbmUiHg1B17ICTrXAnqahegk8H/11VhJ5A+BAp/5/gc7hzbfMfNj4GTy9rbB0PgLL5l/Asesp+E93I+Z3MaPx6CRC187A1l3JQk4ep+dfu7JA5AVgcugc//Km2m8gPNyXRXSuAXLTHXsb2VqTH0+MUbgaqBUxWSfC2PBtjJ3dJyPh/+RNDly0ijJMjcpd+7wA2F6v4at19rbJDrpZh7SOqeMRtsIUorp62xC8cZa1D2mckVefwGiVwBpo9IMdMnKWXWt5n/vwFtl4XgAMrT+Dg96nfvasgOyEtI7zYCurW9OGHyIych0Tl96Hs2stbDufhO9kNxIz0xj7zx5YlGJSKaTdbuDKUbYVllflmikvAMMbfsJaYso+lMbe3M2YzwaNcjEs6jKEDP1sqMix89eIiDSI0K7/PuKRIBMhy0wZEFPHoxLRSc2ncFdR5LVaGqNGXgAMbav4mun651voXU/UibB0KRD84hRrLl3jvfB/egCh/iMyx296wgNt1VIMVZaBgFMJXHyPHUXL9t/KjswLgLPneZYB294/yojN1XHuf5H3jJ19E64Dzfyevad259xiaPs5XFWilA0x7/hdUgaOdsj25AUgbP4c5DKb1WUIfnlGRjBXx/HWn5gB+sVd725KZjsOtQGJxKxbTFse4lsOac6xViJ7o1Utzorq8gJAJzreaeEnQdbSc2InwsZ+hE1XETFfRcR0NdmmvmkAlE/1nexi99nes4HnAnVJ548EN7PQek3DvRhULQFlHTTrBHjJ0z2zJ3NpfjKQouLYtz7pdNWJGFEKrDnIpUhVi0KAu0oAhZgxr5VvTV93N2Ym/Rg90s5xcopW+pe8VBLY4ed+xMPOfzTxj5S+JtXO+wZSBCb6j8H5lzUwta6EvqmCQ0j6UjU0V8C68acIG/p5ufm1J1kOLO0Pp7ZnfUP6y9DX3cPGzawU4Oh5LmtN+sBtA0gndrN2zGeH/pnvca7V1FIBiiNiYw7EwwHWQt5jHdBVlcOkEGB65Qloqpex7ne8lRvEggIggBG7FpaXVoJkwFct4kblnRis/ia/c1KzLrUIveLrbCvo5ozqO9lW5AKx4AAIRDwWhf/0boxsWQ0tMa9cBP36+2DbrYJl5+9Zroz19yBiG8Kk9iIozqaIz97zfNYlFwVAOheU/IoHRkFxdarYditZwxlrlzGIoOYCjDXl7Pj5Mxy9ogNIMZ35tf1NxSAMtcvYA/Wd7WHZMXc+JltasgCISwJBsjKkXgrdiw+wy+3M0Eo3BTCkKi9qdtr+RiPbGHbk2lZhejwZ8KSugQwnZ6fTMiLJ5G7Ij0F1Oa5XLi4qAGKUXJeI9jwojM0sBICMaHpKhwEkZmLQPvMDjpyi1huZ+0qmH7hyjNWsuf3XEk8MgHqk1ij9N5v6klYXuWHqfIwdQ8/xbRInEgAKvI1kFZUixs+/Iy0olYbnaDv7TNqau2WyIQEgRl1H2jn4IEFh/TxwAhHjZxzHkgZYyEqZO8o9jfcd4viZBNuqFOHvk//fIANAINwfbIdBvYgdMcoiEBjyNPlL7YWqCoEFlpLIFHIaG5fDf+HdrAeRBYBWRJ3D8L3/Z1i2/gqGlhX8pxpJ/oLW5gdhbF0J67bH4f/nDkyNObOYp4FZAcy6skQHv/IA/gudifl0ZAIFPgAAAABJRU5ErkJggg==;strokeColor=none;" vertex="1" parent="ooqM9sPuauhWhxl2Y_vB-67">
          <mxGeometry width="80" height="80" as="geometry" />
        </mxCell>
        <mxCell id="ooqM9sPuauhWhxl2Y_vB-68" value="Bucket" style="swimlane;labelBackgroundColor=none;sketch=0;fontSize=20;align=center;verticalAlign=middle;startSize=40;swimlaneLine=0;flipV=1;fillColor=none;strokeColor=none;" vertex="1" parent="ooqM9sPuauhWhxl2Y_vB-16">
          <mxGeometry x="600" y="600" width="80" height="120" as="geometry" />
        </mxCell>
        <mxCell id="ooqM9sPuauhWhxl2Y_vB-73" value="" style="shape=image;verticalLabelPosition=bottom;labelBackgroundColor=#ffffff;verticalAlign=top;aspect=fixed;imageAspect=0;image=data:image/png,iVBORw0KGgoAAAANSUhEUgAAADAAAAAwCAYAAABXAvmHAAAJIklEQVRoBdVaB1NUWRaeHyOhcfLMTtJRkKzuGBDXOFiGHcZVR9eaNa667qxC0zSSkUZBCaKg4qgoYkBkERAEUVGUIIKIiOScvq3vMFB00a+7lQZrb9UrHu+ee+79bjjnO+f2B/g/Lx9YcvwDgwPo7utCe3cb2rpa5OnoaUdPX7clu9HT9dYABjGIupYa3KnIwun8Ywi59h/sTPLG344vxorDLvAI+g5ztV/AXfOJPHxfFDwdXpFu2Bi7BHvPbMThG2qcL0rEved5eNNerzegt/3HLAD1rS9x5UEK1Jd2wCvKDTMPToFLiC3cdXZw16ngGm4Lp0AbOPhZYeaBKXD0VcFF/aE8jj62Ij9LYw3nYBu4hquknVukCs5BNnBS22Hd0XkIvLIfWU/S0drV/FYYjAKgwn+eXQ8XzVS4RbBjFRy11lgQ9C22JKxEUPq/kZQXjawnV1FcnY/K109R1/ICje2v0dLZhOaORrxpq8fL5mpU1JeiqCoPGY8vIeF2JPwu7ZJVm6P9XMBzMlxCbTE/6Gv4pm7Hveo7ZgExCOD20xvwPr5QFMpM+dlhR/I6nC2IxZO6h+jq7TRLuTlCnPHi6juIyw7DxrglsFdbyQo5HbLB9qS1ePLyoVE1YwBEXFfLjHDGf9S5IvlODF611hpVYsnKZw1lOJIZgAXB3wgQZ60dLhYlKXahB+Bk7hHZzy7aqXJAe/p6FBtOdAW3X+i1A3AKsIZjgDXyym8Z7HIEQHdvFxYEfgunABuxMAal38PHUzlH5PxtTfAy2PsIAO7reYe+gqO/DUpeFBkUfh8fLxSdkrO4MXapwe5HALDWO8ZD9v/cQ1/Ige3s7TDYaDI+0pLpbmrgpLEVc+t7cYfBbvUA7DmzQcwk9xxt+1/C7RGZ4YcHNXfRN9BrUIElP7Z3tyK3/CY0l3bjh8Av4XZYJb6FFul4VqjBrvQAhF/zgUuYLf6RuAa/xC0fsc8EtCTMHvtSNuFETiRyyjLw/E2FUAaDWk18HBjoFz9R9uoRMkuv4GhmILadXIt5gV/BOdgW7lF2mKWxwu7k9Vh3dL44wKsPfzeoVQ9ASkG8OKvQqwdEuLDqNgLS9mDFYSfM8reWGRl2OA6+VvhzwJfwinTH5vgV4Or5pe5CcPpvoCnWZWihy/AX2hB0ZT98L2wXykE6sTzcEW5+H4Pe2TVsyKPTQ9v7WmHNkbmIyvQXf8NBbIpdKluouLrANAAuH73h5viVesL9A/0or3+M1OIkHErbh1/il8MzdAYcfW0FGGkFB8Ald48cogqcRXl0dqAzZB1lOMOkHM7qqVge4YRfE1cj7NpBXCu5gOeNFXr99vb1YN6hr2HvYyXeXK/yj3/0VoDunkvHGeof7DckP/Ktt78HDW2v8LSuBPmV2bjxKBXnCxOFWsRnR+D4f0Nl38ZnHxZnePFekmyXwqpcVL5+gqaONxgw0QcpiP1BK8wP/EbR++sBIH8hCXPynYrmzsaRwb6vl/s1BXIOf4peqDgEPQCDgwNYEeEi24IHbDyFMQC33ngKD65rhAp7Tm9QVKMHgFL0eDwHt8tuKDYyVcGttEzngNXRs1FQmW1KXLGeppNGI+K6r6LMGACa1F1y6M7kxyo2MlZR01gl/J+0m3x/WYSjMXGjdeqLO2Qs5+7GK8qNAcBDR9S0DO9Syl89FvNIk0jrQSBbE73eaUW3xK+U3ZBbnqk4lDEArpdcFHO3O/lnxUbGKhgXay/vHTKv6g/xQ8CfxIQyGvM+7oHU4mR09pimKLSCS8NnwUFthdetdYpdjgHw8EUh6LoZ5o2n0Ai8aHqOxvYGxGWHY3HYDDmQpCh8j8kKQm1ztWIXNLPi7Pysca4wQVFuDIBXLbVwOGgtM2dJMtfR3Y7zRSewLmaeUAOJ9DR22H9uM/IqMsGVG13K6krEB5AB0FEyOnvZNBbwGAA0fwuDpsHeZwpeNFWN1mmx9+yy69iZ/BNIR3jemBBYFeWO2OwwVDWUSz9FVbnyfVm4I5aEOgjFWRQ2HY9qi/XGMQYAa3+OWSQWhGmPiSz0/BEZatlSNN3ukXYycdtOrhHexG/kVSy+qTuEhniGfI+WUU7WIIB/pWyWKCjt/tmJHP+I7q7eDtwsvYy9KRsxW/uJnBWeQ+6CRSHTEZC2F8duhUieiWyZbHi4GARAFsmljbkVPCw3aX/Jr5iDWhoxZIFI/HjwSQZpyTxDvwfzVMPFIIALhSelwYHzvw7LTfpfbmPGIekPfkf20+s4dzcB6SXnhECOHoxBAPkVWXLyN8UtGy07ae/0E0xJzvKxMUkqDQKoaigTB7IkzGHchOxdUNc0PhMv7hE0DaZSOwYBMDZ113wKRx+VOKJ3GcR42hRW5ch+X3/M06QagwCYgWaoSB7DVOJkl8vFZ8QK7k/ZbLJrgwDYikE2T/+t0nSTSiwtEH0rSMJRxtWmiiKAgLR9YkqTcqNN6bB4Pa0fzSaTWqaKIoDEnCgBwIzCZJdNcUvhHGKLgmemgyFFAJmlaUKrt59aN6nj7+vvw+KQmWIFn78Z4kXGBqAI4HFtsTiS1VFzjbW3eF1DWz14qzPb/zO0dbea1K8IgEEEHckc/8/Bi7rJKqV1D8T6rdLNxuDgoMluFQH09vXCM2SGZMuqGytNKrKUAK+1aP22nVprlkpFAGy9PsZTDtP96rtmKbOE0Om8Y2JCAy7vNUudUQBMabvpVNiZ/FcwUpvo8qj2Hrx0bmJCmac1pxgFwK3jGTZdzOls7adQp+6U7AIzeJYqPGvMi+45u0EsD3OrZKKkM+YUowCo4GVzjcStDn7WsrS0z3O0n0mCl5lo0tz8yiwwiOdlYEtnsxx6xtMMVHhrz/uu2qZq0LIxYcarWf9Lu+EdvRDOaruhDHWkCq7ajxBy9TezshbD4EwCGBZk+BedFQjvYx5inSQE/CPzzHcG30zEumo+FirMhCwf0mLmW3k5Tn7PiIoBPQMmZqpdNR9hy4kVOJV3RH4BMNyfuX/NBjBaIc8DU/GJOTq5Tfl7wo+gv1gY9J2kQph2Z2bD/qA1nHxVEgp6BE+T3P/WE6ugTdsjq0BPy4vw8ZR3AqDUIX/owYtrDophHx/edfGHHxP1gw+LAlACNpHf/wezW5lZSybmugAAAABJRU5ErkJggg==;strokeColor=none;" vertex="1" parent="ooqM9sPuauhWhxl2Y_vB-68">
          <mxGeometry width="80" height="80" as="geometry" />
        </mxCell>
        <mxCell id="ooqM9sPuauhWhxl2Y_vB-69" value="AmazonSNS" style="swimlane;labelBackgroundColor=none;sketch=0;fontSize=20;align=center;verticalAlign=middle;startSize=40;swimlaneLine=0;flipV=1;fillColor=none;strokeColor=none;" vertex="1" parent="ooqM9sPuauhWhxl2Y_vB-16">
          <mxGeometry x="760" y="600" width="80" height="120" as="geometry" />
        </mxCell>
        <mxCell id="ooqM9sPuauhWhxl2Y_vB-70" value="" style="shape=image;verticalLabelPosition=bottom;labelBackgroundColor=#ffffff;verticalAlign=top;aspect=fixed;imageAspect=0;image=data:image/png,iVBORw0KGgoAAAANSUhEUgAAAFAAAABQCAYAAACOEfKtAAAY2klEQVR4Ae2cd1TUZ9bHf3+9Z1NNjB27SBMBpSn2XqLGFkWlCkrv0hTFipu2azabN3l3sy272d7STDF2RED6DJ0ZGGAKXWlD/77nPr+ZYYAZGEZI4m7mnMtwBpj5/T7ce5/bnocrXBSMImuSEBQvJglFiU0oSklsw5iU2YZBZBfOy5IIiEmWRqB8aSTK7SNRYR/FROIQhUqHE6h0JIlGlRMv1c4xIJGSLIuFbFks5MvjeHGJg8IlHooV8ahZcZJJ7cqTqF15CnWrSBJQv5qXhjWnQdJIsvYMmkjWJeIhyfpEPFp/Fo82nEXzhnNMWjaeQ8vG82jZdB6tm86jbfMFJu1bLoJESbL1EpOObUkg6dxOchldL5P8GN0kO36Mnh2voXenSna9jr5drwOvvAGOAA6FGMIgMpBaEMsMhCjRQDzRD9FpKETZYIgu+iCe6oe4eiBEBnLdGR0QeZB6IW7WBfHSQIgqkASxRwWxZxBErmBREAOoD+JgTdQLcelATfzOIa4ngLohtqo1cZQQ1ZqohkhayBVYBWEkiLxJ95vzkwVRtzlrIOo0Z/2aqIaoNmcu3yoQhkA0WBMH+cRvUxN5nzj+5qwNkcu3DIShEH/wifziou0TOSEBtCQtHGNN/C/wibSwcEKLAKghjkoTbX7wiaSJnIAAakEcc038D/aJPEBzfx6gERD/633iy5fB5Zn7Q/AYEA1enf8DfWLXdhVAfRB/8IkXWMo3NO3rjxO5XDM/EEB9EL8bnxiNaocTqLaPQrX9CUjtoyBzjIbcOYblzyx3NiLtG+s4sXNbEhjAsYJotE9cGgmJdSgqzAIhMQ9C5eIwvviwJgGyjYmQk6xNgMwpBtLF4ZBahUJmG8GA6i5AfFu5cxK4nIXHQQDHCqLhPjECYqsQiBf4o2JJBGT7XkN94p/Q8ue7UKaXoEtcg57GFvS1dTDpqW9GV7EUyht5aH7vSzQEvA/FmtOQWYdBbheJGpd4DKzijBKiEblzx9ZLPEBDIY6JT7QLR5lZAEQLA1C9OwlN736BzqJq6Hz09qGvo4uJrp/3yJvQ9rcUNPj8HIqlJ6CwiUDtCgKpLoUZA3F0uTOXY3ocBNBQiMb6RNGScJSaBaDU1B9S9yto/Tp7AJOeukdou5aDpiufojb0A8hd34Ls5YuQbkqEbNNZyF9JQq3Xz9B4+o9o/WsyukTyAX/fmVaCpvBfM5A1SyINgjgWPpHLNj2G8YKo8YlUrJ3tg4pt59ByNUNz46RdLZ+mQx7wPiQusRCbBUJs6o8K8yBIrEMgsQlHpV0EkyrbCFQtDkOVZTCqLIIhdYpBnefbaP3oNnqbWjXv2ZFShAbPt6GwDkPNsjjUrea1UVOUHeN6Ipe94BjGDaJtGIrN/FG80B+1SX9Db3sHu1F6bvzl15BsSkTZfD9mzmKbMFSoshaqbI9YxXGKhtQmHNUWwVBsTETzz69qgexD64c3Ubf1PGqXx6kq28aY8wj1xC0XwWURQCMhDusTbUJQONcXpc4n0PJNjkZDmj9JR8XmRJTM9kWZZdDA9oCRwbaUQh0CueUcWv+SrPmsh3F/gMJO25wTUE9tApd41LucRMPqBE17QGdlmy0sw/tELmuBLx4Hok6fuDgE+bOOQrztLDrFCnZDtKLKwj9A8VxflJgFQG9R9jFyZ9nSKEgtQ9AY8Ru0/v4WFMvj+lfnVadQ6xCNWvto1G85j4Yt51HvGIN6p1jWX+nvsYyunshlzvcFyZhBtA6G0MQb4j1J6K5vZvCUeRUQbzyNwplHNc0qalSNB0RqVsnsIiCzieABUqNq5UnU2EWhwfUtdNwQMFPvfdiKzltCNLm9jXr7aA1EnZrIWgO6zPkCuIz5PgzgmEBcFAzhTG+Itp9Dd2MLg9dyW4him1AUzjuGEiqBDer26YVojDkvj2XBtszhBEjkjjFQOMVAbhOB+v1vaPlIjZWjr7kdTW5XeE1Udft0QtQRJ1Knj8uY54MxgWgVCOFcHxQti0ZXdT0P76YAheb+KFzgh2Ibvm1KKzNbnce6nrgsBlLHaNYyVWw+ByZbzqFm8zmmgR138tk1ddwpQP0rl5moX+u8V4h6hxijfCL3gABqQTTaJy70g3D+MbSmFbMLbc8WodAyCAULjqNocYhW35lvmRqsiYb6RMcTkC6LgfJeIXoftaGvvbNflJ3smihsqtuVxEIcxeJw1O+6DPT0oq9ViYZtF/iFZUjfeXifyD2YexSDIRpjzjlT3FH77ufsQrtrmlDsEgPhHB8UWn87feeqJZEs4O7r6tbA6lN2gUlHl+a1up1JkC8Kg8I6HPU7k4CeHh7gVgIYj4ZRxok8wMeEmGPiibI9Sejr7WUXWnH0beRN80DBouARW6YGa+JIPpEAbkzktU7ZhZp9r0G+7jQUm89CvvIklGoTvp2Puh2XmHTcErLrJRNmq/MqPlY0CKIqxOHS5xwF00IjIeYu9EPu7KNoyyxjF9Pw0S3kTnFnjaph40Q2RqI1AfGYPrFySSSkG85oAMrWnUb14jBWCpMuCkXt3tfR+7CNXaP2l96WdjQc/ikLcQaMkRioiVz6HG+Q6IM4kk/MmuKGiuD32TV11z1CwdJwCOb5ahpVOuPEAbM4Y+QT7SIGAtx0FtUUF9IszvJYVgarPfAmlBTGPGxjQhpYf/inqKFgm83hDJ/26cqduTQVwOEg6vWJC44hZ64P2oUSBlB68S/InnQEQksDG1U02LQoCEWWQShmEogSyyCUWAWjdFEwymxCIbINh2iEgSZK+yR24aher6WBmxJRtTSyf6CJINpFsjoipX41G89CviQKiqVRbJU2thTGpc32grEQM6e6oczjJwxeV+1DCGxCkDffFwKLYRpV5gEQzj4KoYkXCub6Mngl9hEoXRaNshWxEJG4xKLMMQqli0NQstAfJXOPsSqOyCYMYpoIU4n2VJjElgCe1piwdGMiaGEZPBVGk2Eyh2hW4aZMRf9UmGG5M5dKAJnwpjwan5gx+QgaP05lAGv+9yoyXzqsvz1gFQTB7KNsYZH4voP6X3yFlpsCKAuq0CVvRM+jNvS2dTCh77sVTegorELrbSGafnUNsoD3ILaPRNnCAPY8GGKFbTiq1g0GGIHqcZ0KSwSXOssTBJGBNMCc1T4xa7Y38paEshtHXx+Ktp1Ftomn3sq2YI4PxAdfh1JP8bSvqwe9yk4m9L2uR2eJFNUeV1BmETRkPrHcJgxV6xI0Gli94QxfBnOKHjeI5BO5+wRQBdFgc17giweTj0Dk+zN2n+35EmTPOYqcBcd0tgcEpseRbx3MNI3+QFlcDcWP/44KrysQ7TiP0rUnUbI8GiVOJ1BK4hID0foEVOy6iGqfd1D3+j/RUSxln9Vd8xBixxMQLQ4dAJEAVg4CKLGLGPf5RO7+TE8YAzH9RVcofvEluynFu58j48VDeivbeabHISSAqhRPWVgFxeW/ocLjpyjbfg4lq+NR7HwCxQ6RKHGIQunyaIjWnkL5jguo8v4Zal/7BzNn+rBuWSNEjlE8QK1JWfHiUFSu7dfAqvVn2MJC07KaSVltc6ZpWZYzR0NOE7PqSdlRdvu4lJke0Alx9jA+cZ4P0l50RXNKIQMoDn4PaU/vQ5aJJ3LM/HS2ByhTkb/xT/b7ur70dXazgmsvpWCdfDah6/dqzv4JJfOODRk3JoCStac0Jly1/jTIL/LjxloQnWNQZRPOqtsUK8rXn4bUNgIyu0jIadRYJYZ2+7gUEw/ogqjPJ2bM90XqxEPI35ygqbh01T1C4ydpyF9/EpnT3HVCzJ3rg8IVMWyRIDBNn6Tj0VdZIG3sUjShp7kdBI9Jc7tmEWm+mon2bDFj2Vlew1dzrEOGlMLIpCVr+gFWMoBhAyvbzjGotAqBfO9raP8mly9rNbVCeTMPtQffYrGifMUoIK45De4eAdQDUZdPTJtyBHlr4jS1PnXuSXfY3dCM/LXxoNWZfGL2HB8WJ1KsmDvPF9lT3ND4zxQGQ/HWv5H1zKvINw9A4ZIwFDlFoZj8oEsMb872ESg0C0DBHF8oc8v5v0n4CEWzffg4UR0rUrxIQM0DUOESq9LATkhWxkNsGYQK2zBQiENxIvWcZa8koUerh8LeGEBvcztqD77JaomjMWfunok7RgMx9aVDaPwyk31u09dZyHWORK5TJJq+ymKvPbyWjWwzPwiWhkFgH85E6BABoX0Ecky8UHbgNfZ7DLZdGATzjkG40A/5JKb8c4GZPwotAiGc7glZ3O/Y75P2lViHoGRRMEQr4iBaGQfxqniUk6yOR7lLDCpfvtBvwjsvQrIyji0stDqTVDpHo/2WgL1f+20hZNsvQL7tAtpVObHybgGkNhGj8olc8gwCaADE2d5Im+GBDKsAdFO5qKcXOU6RSJ1wAGkvHGQQKQyhBzWN1DGd+pnMVGgfjuzpnmjL4U2yOv5D5Ex116R92rlzgXkgCi0D0SHm25fyhD8gf6oHylbEoUvepDL3jn6zpwZ8eyfQxy5B83p/WUv1c4D1maXbzkOyMBCVZkGQbTuPvm6+rCXfcIYfI6EdBCMuLAngkme4gUFkIPWbM4sVZ7hrAexBjmME7k84wCDmOkawGI4BpHiO/JnWc1dNE4SOkcic4IrK2N+yu2zPK0feXB8IzPw1ENW5s2C6J6Rq7auoQRFtxzD1Q5lLLLoVDzUxozp2pGcqXakfrCHPXqPXVaIqa/V2dEG69TwqFgZCYhYI2dZz6OvuQW9rB2QbzvCrs4FbMLi70wmgCuIImpg6ywspE101JkymnO0QjhyHcM1rD7/JQZbZceQuDUOefTgTgX0EM2UaHyF/SCmful8icn0duSZeA4Y88839kW8RiE5V81x26vfIN/Hii7I2oXzKtzIOolUk8RCtjodoeQwkL59XwepC5c6LqFgRB8naBEjIfNclQOIUDTJderTfFEC65RyT9ht57DUyYeo904YglvIZAJEBHA3ElEmHkLM6Fl0NfMOoVyvkoD6IYG0c0iceQsYsL2TO8gZlLEwo0FbN4WROOozaX37FLrrpX/eZGWtPylItsVqlpeT7Cq2CUGgeqNlRVWQRgCLzQBRbBKKEhAoRpn4QLYtmmk8aV075NI2QWIeAQhwmNE6y65LeRUTx6hsagOodVSNtBuLuTDsCAmgwxDneuDfhAPI2nuoPY+qb0fBpGgTr4pE26TAyF/CdPn1VHIoXi7acYQVYMj0KbyjMoVFjAbUGzAPQodI+6ckPQeY80o4qgiheFdcPcM1JlC0KGdh3to+C2DwQ1Xsuo+16LqgzR6Ut0kD5gTdYiKNrW9pwEBlAnRCH84mzPJH83H48ulfAtKg04F3c+5/doBCHGlQj9lhMjyNrmjse3eRNhwJsCnFIC3O0tK+jvIYvzJr5j1jZLrEMZCszC8RJA1cTwOChpTCHSIitgiG2DEblmpOoWnMKkkUhbLyuyimGZS2jKUBwt6ceAQHUCVGvT/RC8rP7IPu/LxhA6dsf496z+/UWZXVpYuaUIxD78Ll0h1iBPIsA5M7zYePGyhI+7yUzZq0B2k01wo4qMmfRyliNBopXx6PUKnhIxqLZIEklMdtwlq1I7KOGZizaaZ9qg+QQTVwRD+721MMwBmLy86+i2OdtBrA1R4zUaW5In+1lMEQKtPOWhPE33NWNfOcoFicWOEexVI5WykLHSAgWHDdoH0uRRSALcdQayAMMGpKxaHaZjtRjMbCKw91iAEcPMWXqYWTYBKOnRYm+3j7kro3D/cmHkU69FbUMaplqa2LW7KMs2KbQgfwghThUDst3jORjyPZOFDgRwGOaEEc7ThzsE2lhoYKsGiCtzuQXh52AGAOI3K0ph2AQRB0+8e7z+9HwWTrTwqo3/oHkZ/ax/spw7YEB9cSlYTwsAugQwQDSMwu+lZ0gbcybf2xAiKOOEwdvkCw0VwPsYKEMhTgEkPY8DwvR0L7zoP3OanPmbhJAQyEO8ol3n9uPQi++pN9RWYu0uUeROsNjRIikiRTi5GkBFDhEIGu6B/IsA9DbqmRaWeBEAH0N2sdCExClLjEsC6IwhlI9CnG0N42zMRICah0KkXUoW6E1PlFr0/iIo3VaPpG7OfkQjIV4b7obK0S0l8mYFoqiPmBaaEiPheLEXPKBVMZv70SOuT/Sn30VYt93QBVpShXzl51gRQhD9rFQ/qwGSC6hbGUcixM1fWe7MDYVRlOyYpdYlK+IQ5l5IEQWQSi3jxqy895QiNyNya4wGuJMD9x5ei/Koj5gAJWSGqTO9cb9aW5ajSrdPjFjJgEMZdpGfrT0yJuo/+td9j70peV+IV/dNj2udwuGtk8kgCXL+zWwbGUsC7bVU7LFC45DsuMCWr7OZsPrPU0taL2Wg6o9l1mfhUE0widyNya5wiiIKp94b5obSBPbiqrYzVf95F+4+9QevlE1TI/lwUxP5JAJa2Uy9Aa9yi7Ir3yMXHM/5Mzz0dtjUW+QVPtEquZQW4AVMpSdrD1AE2G0OtOgZ/m2swyc5j+k+obmaKp2J/GaqOMMiJE0kbs+6SCMhkg+kbTw2X3IP8SXqaianLc5AckTXmVaqM+cH8z2ZmN1D28JWGOqs6oOtb+5xtcTJx5CNtUQVdsvDNmCQQCpnkgAmQ/cmogSao1SfdE2DC2qfLf1Rh7E6xNQviEB9D092m4LWdpHh2mM1idy1186iMeGOMMdt5/ei5o/3mIX1F5UhdQ53kiZfHhkiAt8kbMkDNkW/nhAaeAMD6NmtoWmx1G8PEbTDiA/qC6lkY+lB8WWBK9olg8rzJavT+CrMC1KlK+Mh2hxSH+jyhBzdo4B9w0BHAOIdycdwv05XmhXZRENnz/AvRcPIkXlD9P09FhIE8mcM1QaaeykrNDMH/lWQWi5m8/3mNXlNNYq5ctc5B5E606hUAVQvO6UqoylZIuKemUeTbDNffPSAYwNRA/ceW4/slbFsP4G/ccVv7sOyljUi4o+cx4xdzZwHwtBpPiQTLnYhW8PUIugyDZUY8It13MhWnsS4rWnNMPv1LynCQhDx0i0G1XctYkEcIwgzvTAraf2QHjgMvvPMogfXse9ia5ImXxoWHPWhqidsYx2CwbTROpDq9sDC/3ZwLtoa6LOMhY1sySvXGIA9Y4b6w22o8Fdm/gqxhSiiTtu/Wg3Ctzf0kBs+CIDaQt8WQVHV6NqrIY8tXfe03CnYNZRdhZEoXUI8mky4uVzaKYwpqmVScs3uajYnYTi+cdRajdCxqLHJ3Jfv0gAxweiYN8lTc2QfKNw5zncfXov7k89MmKcyLKV0eweUB1dkDfPl80n0pBn3XtfsK4fhTo0KZs//xgK5h9DiXM0G2ai2e0iUz9NtjJi2qcDIgM4XhBvP7UHmcuj0JIjYqsgfZG++xnSzf2QTCCpgkOxorr4oGPIU507j7QZiAqy2ZPdUOAQgboPvtZ8XlXoLyCY5d1fT2TV7QBQ7lxsHaz3rDBDzZn76oX9IIDjAnGmO+48v5817qXv8fPTdGed8kZUnP0IDyz9WR3x/kRXpM30NKiKo+0Ts+f5sMJs1uQjrBxGhVl1r4U+p+5X11DkHAWhmd+I9UTN7oFRnhXGAI43xOTJh0HamLfjLB6qqth0gzTRIP/gK+Tvvoj0eT5IeeEAUp4/gFQCOtUN6TM8+BBnphcyTDyRMd2DNe0fTDyEzCluyLUOQpn7W2j48x3Nyk/vS6FM2d4k5E51BxtsYmfijM+5ONyXE/aDAI4rRFUVh8Kc5EmuKPT8CR7e5fdt0A3To0NSg7q/J0OS+BGKj7wJwaYE5DpHIdsuFDlLQpG3/AQKtp5BmfcVVCf9FY2fPdBMe6neAo9u5ELseQU5s7yRa+I5pIqjnTsPrifyR/+NcmbbPhLclxP24VuBqM6dp7ux1C/5pUPI254I2ftXoRy091cNhJrdLLel9KyH3wGg/pn6mbIexTufomj7WWTP8GQmnbeQPwfCkCrO455ax33BAH5LENX1xJkeSJnhjuQXDuDuM/uQOscLeVtPQxz3W9T84SaaU4ugFMvZCk7pWE9bB5u7UZbJ2URY7e+uoyL61yjYfBpZ832R8dJhfjLMdGyPL1BXcoZbnbkvnt+L7wSi1kATwaRgmzp99yhzmXKE+cRMqwBk2YYgyzYYWdaBoMmw9GnuSJvoivSJrswnZs3zMSp3VldxBle2+0/yNGz3AHeVAH4PIGoPebKJWRNPpM5wZ/M4NJOTbuIJypsz5h4dm719oz21Ts8+Fu7qc3vxnUDU0WMZANHA3QOGxonjdS4O9/lze/CdQVT7RC1z1ob4baV9hpqzLp/Iff7sHvwA0fjzE7nPnt2NJwKinnriWFVxRn2Sp8oncp89sxvfC4hPqE/kPiWA3xeIT5hPpJYp9+kzr+AHiMPs7RvhnG3uk6cJ4BMI8XvhE0PBffL0LjCIDOT3yJyfEJ/IffwUAVRBfBI1cZjm/ZicRjLCEdEM4A8QjT8/kfv3j3aCAD7xEL8jn/j/Zk5XrhKzGHoAAAAASUVORK5CYII=;strokeColor=none;" vertex="1" parent="ooqM9sPuauhWhxl2Y_vB-69">
          <mxGeometry width="80" height="80" as="geometry" />
        </mxCell>
        <mxCell id="ooqM9sPuauhWhxl2Y_vB-74" value="Availability Zone us-west-2b" style="swimlane;align=center;startSize=40;swimlaneLine=0;spacingRight=0;spacing=0;spacingLeft=0;fontSize=20;labelBackgroundColor=none;fillColor=none;dashed=1;strokeColor=default;" vertex="1" parent="ooqM9sPuauhWhxl2Y_vB-16">
          <mxGeometry x="560" y="40" width="360" height="400" as="geometry" />
        </mxCell>
        <mxCell id="ooqM9sPuauhWhxl2Y_vB-75" value="Public subnet public_b&#xa;10.1.11.0/24" style="swimlane;dashed=1;labelBackgroundColor=none;fontSize=20;align=left;verticalAlign=middle;startSize=40;spacingLeft=50;swimlaneLine=0;fillColor=none;strokeColor=none;" vertex="1" parent="ooqM9sPuauhWhxl2Y_vB-74">
          <mxGeometry x="40" y="80" width="280" height="240" as="geometry" />
        </mxCell>
        <mxCell id="ooqM9sPuauhWhxl2Y_vB-76" value="" style="shape=image;verticalLabelPosition=bottom;labelBackgroundColor=#ffffff;verticalAlign=top;aspect=fixed;imageAspect=0;image=data:image/png,iVBORw0KGgoAAAANSUhEUgAAACgAAAAoCAYAAACM/rhtAAAB6UlEQVRYCe2YzyuEQRjH949xc3NzWhcuclBqD5sLJ6d14a5EUQpt2YM2ZaWkiFIkaUs42BxWSXvY2iJRRCGHR5+t0fbWvO/0zmv2Le/WNDs/9p3P+31+zNOmpnbGJVfKxrKJiKQy+R5Jz3TEsiWAtpZJFIyFgmSB8u2h3L805O3jVSr1c1k+mpbeuU7rwLMy8eBit1zUTqXaqAiQmXxa+he6ZGJzRI6re1J/qsnY2pAVpBUgSpXOVrQAgD6/PwovEtbUoQExIYBBBxdO5pvmD9qnWw8NePdwY2w+fBPT6yD85kMB4vxf35/GQUAAYW4/EN1aKEAcn8DQPdQ7Xywvyez+pPH+1t+HAsytZ438Tx2UAColVB9LBUdXBwQwGimGKFbjoP7geruZL1v3qZcN6o18kERL1JL3omgkb26eIDjWjQC5wshlJg802YOiplH9vwCVnwap6FxBbhZuC3yLCoY2XOjTuoRzQKKasksph3/5FRLOAVGPFKIA1V2txt7eOSAKbl0WfwG5q/2i3jkgeZLETRW9e7XRLPv98pxzQGVC4AD1CxD2tg2Q4OBwBazrE0CdMrFXUAfunW+bib0guvGfAEZdbkVazaAEybe14LT9bvq3iFG5pTOVi/kE0FblRMFIFETGOH9+APWGmgsqWn74AAAAAElFTkSuQmCC;" vertex="1" parent="ooqM9sPuauhWhxl2Y_vB-75">
          <mxGeometry width="40" height="40" as="geometry" />
        </mxCell>
        <mxCell id="ooqM9sPuauhWhxl2Y_vB-77" value="Web Server" style="swimlane;labelBackgroundColor=none;fontSize=20;align=center;verticalAlign=middle;flipV=1;startSize=40;fillColor=none;swimlaneLine=0;strokeColor=none;" vertex="1" parent="ooqM9sPuauhWhxl2Y_vB-75">
          <mxGeometry x="40" y="40" width="200" height="160" as="geometry" />
        </mxCell>
        <mxCell id="ooqM9sPuauhWhxl2Y_vB-78" value="Seculity group" style="swimlane;labelBackgroundColor=none;fontSize=20;align=center;verticalAlign=middle;startSize=40;swimlaneLine=0;fillColor=none;" vertex="1" parent="ooqM9sPuauhWhxl2Y_vB-77">
          <mxGeometry width="200" height="160" as="geometry" />
        </mxCell>
        <mxCell id="ooqM9sPuauhWhxl2Y_vB-79" value="" style="shape=image;verticalLabelPosition=bottom;labelBackgroundColor=#ffffff;verticalAlign=top;aspect=fixed;imageAspect=0;image=data:image/png,iVBORw0KGgoAAAANSUhEUgAAAFAAAABQCAYAAACOEfKtAAAUnElEQVR4Ae2c6W9bZ3bGr3ZrtRRt1GItlp3JxJMmadF/oSj6oWinM50sTjKx40WSZe27ZVGrZVuy5SUzLQoU7Zf2Q4H+HZ3VdiLLWqidEkVSJCVbJLWQfIpz3ntJiiLFS5lMAsQGHti5kWX45/O+55znnEtppTUL+tZM6NuEVtszwerIwBqpMwMGRV0ZMHSlY71byHgjHayedJh60oRupsFM6hXa0KaC1ZcKC6lfyNp/AtYBIdvgCbCGTmBzKAWbw0Jbt1Kg6OVIMkivbsu6k4xt0t0kln00CYocY0lwjCXCcS8RTtJ9oZ3xROyMJ2DnQQJ2FT1MwB7pUTxr/3E8WF/Hw/V1HMv9mziwfhsHD+lfJBb+VYK00pKFHzTEYRUQ78gQ7x4BUQa5c1+GOH4ExEcyxMcEUYAMBVEAVAOx43uMxB8wRGmZ4CkKd5zfQBRHmY60fJyl5eYsRARRuQ/p5+/6TvzeI/HwnSgAvoHIySVkYjniTpSWmk6CozBSiG+OMx9nBvgGYiKOm52lpcaTIIDHhvgjvxOlRQL4BqK34I4kEqlGlBYbTiIqEKN9J2qTYOlNgKU3HhZtPKzaeNj64mHti4etPx6b/XGwDcRhcyAOW/TzYBy2BuPwckgSGpbwinRLwraiEQnbIxLst4UcdySw7kpwjkq+jiWCYlsA/MFATOO2z9wlwdKfDuudIpbtjga2u0KboxqwxjTYGivE1j2hl/cK8fK+0KvxArAeFGBblv1BAewP84Ue5cOh6HE+HI/z4LifDMdIhBAfx0NaqM8GR2G0IL7mnWjuisPWf/wtXMYJeHZfwbO7HV578tfQzxEK/PWv4DZPYOd//iYiiPuPZIA/GIg9yTBrM+CyzoF+ePad8OzZYyrs2YF9J/957s15OO6lwjkap/pO5AgkgFGHeIw70dSdiI2REhmcA9aH52AZzoP1TrHQ3WLYSKNF2CSN+bQ1VoStexrWy/sasMY1eMUqxKsHhdgmPSyEnfSIVAD7g7fg/Le3wSBdO3D+phAOuhP9nJzQiSUe0vx1AU9APBnd4xwhRCMBvFUsjuyeHRvDeTB1SjD3xGPjphAnFU4scbBq42Dri4O1Lw62/jiRWPolbA5I2BqQsDkoYWtQTiqUXIIlliEJ9vGToKOMfTucXxeIxKIADOPiMMCDEL+/O9HYlQjzsALQActICTZ6Eo7vJ6rpnSkrP8rnu5MAOh4XCoD+fuIREKX5umwQwB8CxECAdJzNNxIFQDJmj2PKhoN4S+LMTMlHAUhlziFTNgREaa4uB98JRBXHeb0zCebhEnhce/C4XXwfmm4ksLv9Ws72URAZYIGIwD0RgVwnjpKrHeBsB0Ak80Gau5aD0BC/2zuRAJqGiuHeWoX75Ro2hoth6hYAaUQQE4jDEteKSgRScuFiWx4RhIMoAB4JMUp3YnsGVluTWYEzFkNHEkjG7jQYezJgGirhu9DYTc8SDsxYzD0JIBFM/xmLt2MZkOcrNGcJnLEEiURKLFRsM8A9O2dnBqhmPDCeAElXmwOOwlhD7MiCQVsKg7YEa52ZfoOqTBj7S2AcKMb6jQyGuN6RiPWuZJiHilim3nSYb6bC3JuOjVtFsIwUYUMrIlJATIOVupU7GlgHUnlYFXJQFQhxKADgw0LR+hFAFRAZYMwhNqfA0FsK16Yerq01rGtLORLX2pJh7CuRn6/CNFDCkchHebBYfq4X0dgeh43hIn5GR5wgciTeTIB1RAP31goffYLIvbPaSBySuO1TInD7oUYAVDOoup8IabYmBwRQHcTj3YkrzSlY6z0FuPYAtwuGvjKstojjvN5f6k0axsFTMLQnMkTToC+ZmIdLYWyTRIkjJxjLSCmXOATRcrtI/h77sN0tgbU3PvzIVInEwbiDAB8UCgOCx6bhp33SbM1biAxi5HfiSlMKVnuK5ALZgbUeDfQNEvSNEgw3C7zP17WFWGuWsNYiwdiX731uGijAepME00Ce95l5KF8U2V0SNoZy5ed2WEcK2MFRNXcmiOTg3C+Ue2g7dyvs4ihz5zCRKAOMIcTWLCzVSjD0n4Fnl/paB9Zvv4e1G4Uw9BTAePuc97np7s+w3luAdW0+zKPvep9vjJ2DsTcHG2M/9T6z3H8X5sE8bAzlwTr+jve5dawS5g5yc1KhCuLAQYCvxgtFx0IDfBUQpdlqgqcokuN8dCQuNZzAUkMKlmokWP7rIlzWZW7Y2SQgg0BxWaiZl3+wcRDy+Ss2FQ5+rezW+H0P9+YyXv3vBWx0SsJLVPzEUHciAbwnIpD6YQZI92LgBkSISJRmCOCxIYa4E5uzoe8+hZWuIqxqz8C9vcF/b7dzC26HzRstFI0UlfTs0PM9v+fsyDgYoNtpA0m4NPTM99zj3OQ/x+OwwDZWAeutfNlPLAydncmQlQHS93w5rhGGbLA1kiAQpZmrb+H1IB6MxMXrqVjpLoPLpodnh/w5h4Dn2ITh1vtY7S7CWm8Z1rRCBm0ZWH2nsE7qFzIOnIIi02ApjIOlMA3JGi7ljoW6FvOtEmyQhgpgHX8XHodNQOR/HBGh7persN0tgkUbd7jE6Q8AeF8jDIhQuzgBEKVpAhhFiAt1qVjpKoNrc9UbafQ3ogjTdxdhqS4Oy40poMRC0pOahTgztySJEqc1GVTmkAztSSI7tydhvUNWZxKodzZ2JXCxbeqQ+E70OKw+gLKXSF0NAQyanfvj2dmmMoYjUAZIS00hF5oUiKNJkKav5CLaEBebsrHSVY7ljmKsDv6FDNIO/c1yLDecEKskUV4j8VlhdFc6YH1wju0wy+1iWG8XwdKfFjyx9MVjc0zjzcIvyVMkO0zeDAsHUQCMGkTfnUiRuFATj+V2X/mi7ykHJZdY7OIccnKG8mH2eokJB9q+A9mZAI5qvGUQmbLsJyp14lGReDcJ0tTlXHAURgtig7gTCeB8dcJhgPUnYrKLEwjQWyeG6J29ELVBAJIpSwBVQGSA0YeYg+XOMiy1FUE/IB/hXTtWbpRjiQBGukaiYlAlrDAyY8UR9taJI8WwjGgCeme/JU8CeNd3hGk0QCNT75JnGIhegNGCOF+bhqWOcs7CbsrCu1TneTiJrNyowOJ1GWCkEMP4icIKK4Hbm0R8tSZlYboLeTQQaMr2xvPIlOvSPTvPWXg84L8pewRE6cWlXBA8RWGPc20OZqszMXs1HTpStdBcdRrmaoSWOioCsrAMsJsAph5/jeQIiJSdyQYTAD3e+pAyK2Vhy0hx8PFAb8JhgDRjUWGFUbEtvbiUB/UQczF9IRm6a7mYb6nAfGsFFkhtlVhoq8BiWxnmr+ewCOJiawlW+t/3ZuFlAlgnAEZ7F4f8RDYg5CO8ce8cTAP5cp1YDLM2Pbiz3ZvAxbY3AkeLeFAVdGc7SCRKL74igOogEjz9/b/Hzuok6Hi6d+zyz/TrbezbVrHYXoG5mlToriRCd1HCQiMZAFTQOkAAKbnEYhfHB1DUcyZtNtabJXZxjFQjsp94ePF9g+ywO0qlYOeRKU/7Qi2+B0CUJgmgCojTl7MwU52LPfOCXKg64SZzYJfaMSHXpoEjca4mHYvtZVhoKcZKny+JLHcJgDHZxWkPiMCxczD158M8VOxnyh5+e8BMAMkOox58zx66YwlyJ768lQJp8mIeVEH8KgO65iq495zw7DqxePOvoGssxXzraaG20wxPV5OJhbbgSYQBXksVs+dobIX53Ylr7ckwDvjdgfyPK1Y+yIClcSnNV2h4b7qRyNM+Hg/QHs6wzw6jwT2NB8K+giFHogCoAuLUV5nQNZ3mo0oRN9dwiu/DmcvpmLmSjlmSnFjoTjzYyokkstRZiXkFYJR3cdjdHij1y8LCZFCSCEWiqBWLeHhPA/wNKnGGcmEdl20y1w6soyXq/USKwOcX8sBRGAbi1MVMzDb6AWyuwsyljOBWWN1bHI3zzaVY1spJZNcOBlibFv01ks4M7pmN5G5zEnHCPPYzGPsKZAOiBEZ5xuLe0vustADrzG1bgKU/ExZarVPhJ1KhLT2/kA81EF9czIQuAOA0AQxhhVGJM3spCfPNJd6oXeyoBNWJsdjFoYkfjwf4LnPAqC1gZ5uMCDYgeGRawnMTikqfRKS6TJPY+s+/A22H+U/7vB1LCD9RBhge4osLmZhtEBHo3nXwfTj9VcZhK0yer9Bxnv3qMECqFRWAC/W+3vl1EwsD7KMIFBaaMh4IPjKlsamfFUYbEH2ZoL3ESF9Lkya+JHiKQh9nf4B0B+qaqjBFAA9ZYeRqv4X5lnLMNZVgqfd9Lnfo9yy2V3KxHZM1kpZkrDNA0cop4wFKLAdGpp1JoK7lgBVGs2darePhvTzAD+xYgrzbtzl0AgxQDcTJL30RKACeAd2LgVbYzOUMzDVXYM+mFzWi0srZN7FAAKvTYrKLo29JgaFPSSIeUbzLdxwlNCqyKRqj/YKkNPHrfBDAcBAnv8zCTL3vCM82ygADXBxKLARwf3NV1InsSHvgttuw0H4aOgIYg4UmMmUN2lNw2wMNVQfPoo0DpWLm3C2/YUpvmkbhLVPpWwKoAuLkrwlglTchEEA61kF755pczLVUQtd4Cos3P5CPsB0LbQQwPTa7ODJAJQub7rwHQ2+hPCIohaE7M+qv6toGTkD69osCqIH4nABeJ4Ci+1AAhnJxKBK5b27wZeF5Ang1XaySRHkrTBneK0nEcLOQ586UXHgsEKN3+wRAFRCff5GFaRkgZeGZBhGBoVwcKnGmv0yGzh9g62kutmOxi0PzFdp+UAAqw3tlAyJwoSlaL41L33xeAI7CMBAZYJ2IQAUgJRYF4IFIrM6FrrECs/WlWLihZGE7t3zUsahbIzk47QtrQDSmYO0mARRZ2Du87wu20BS9N+8ZoBqIExSB/gDrz4ISS6AVJjqWSuxZ/bMw4LZv8p04czHpQNsXzE+kYpt1LRULJJqv1KWyl0h+InuK9SfY3aYZCw2qlurioe/W+JKIXy9MWZhKHDrO0Y5EL8BwECc+P4kpBrgNisDp+jOgxBJohYmOpRL7ViUL77B747ZvYbHnQz7S7CUG8xPbK9gOI0uM/ERWZzmWSTTl6yrnad9KdznPnvU3ysDqKYO+SwPD8Huc7ekP9OzvyD6kyMKUoek4R/szIKRnnxWA4CkKdZwZ4LUzcm3nwPT1M6DEEtQKu5LHffNsfTnm2t6Ba9siQ9yEa9sqvgf7icJHpBKHyg/2GHfpH0h5bvU+5w0G+j30dfLX8n3n/7XyUJ3+v2HgLC800QCf4XVkYbU9+h+kIT37rBBqIH772UlMMUC7iEAC+EVWSCuMInHqYgYmz8fB8O9XsG/VM0SOjj3hJbKfuCdeclHz3BPwtbysxAtLvu9BGxGW/77MC00rjclieN+cIj6JhD6RRPk0Ej8r7HXevJeenSeA4SESwBe1FIEC4JQC8CgXh4rsK7kMca79p3IJ5MRiz19irvFUQJ3oxJL2Q5CDc9DFcWKl/0MsNBX4jQec0A9+wIP7g8N7J1b7f4Klaikmw3tTkI90kZ4SQBUQvz0fALDuLCY+zwpvhV3J5ZZvtr7MW4Tr6k9xiXOoTmwqZQPikIvTWsLjgcVW+R2SXQeW2osxXx1/aHi/0lUS2fBexcj0qI5FevppIdRA/IYA1vhFIAM8GZEVRq8v0IbqXHMVqE7ktq+lkrdL6Tm52/6mLH+9ywWywXSXEzmp8JarywVlPEDZmZKKsv3K2w8xGt4H+3Ah6QkBVAHxm0+zMckARRZ+cY0ikACqtcIqeei0bzOws01WGEGca6rg5zRPmW+p9JY4NO2jIRU9p6ysu5yExfZydrrpGWVmpcShIT6VKq4tA2fnYw3vj3knSk8+KYQaiALgWe8dSADpXlRjhU3R7JkzcxVmG6swfTXP5+JQ39x8GnMtpzFbm+tbN75GrjaNSyuhq8nAXHUqj0sXqbzprMBCQw68fmJjNpa5tCnHUnM2lpqyvrMP0pCefKKBGojPPsnGZLUfwFoBMJyL460TL+Wy+UDZmQ2Iq76tMOU4ezdlFVOWupbqDCy0losRQV2Od3jvNWX9dnFiNTI9qu2T/vwxAQwPkQA+9wM4SQDPn1RlhXkhRrIBUZPDx5mG91QCuWxrYmQaIz/xuB+4xgDVQDwEsOZtUGJRY4UFLbbVbIVdScd8qy/JLLRXxcxPPPSpdSrvRC/AcBCffpyN51d9R3iSAH6arcoKUzV3DrIpS+42tX1iSckRWz+xTf7YvwiLbelPH2lA8BSFOs5PP87BhB/AicsVeParNIZIkUjHmZIKibKzUBZ3K9SxUNtHvTMZEOTikBnL4o4lEzR3phmLkp2/az/xuJ+fyADVQHz6UQ4mqt+BZ28H7l0nppr/GhOXyjmxTNac5RKH6kTqVkjU9rHqqtjFISeH/ERWfRWPB2YaToNE0z6aOZN0TZVCzZXQkR3W84EYDezvYr6tiu/FWPiJx/0QSulPvyoCAQwH8cknuXj2mQa7xkVhDOw64HYqC0a0ZOS/aKT8t/8z2SDwNxFU/JoGWPRjb2ORt8JotS4mfuIxd7alPxJAlRD//It06IZ/Dqd+ylsPkrUVKxE8Mhx216agf/APmL6YjFm5xFEHMXpzZ/441IDEst6VDumP/1wE1RDPa0AQn31ejImrP2E9r34biiixsGrfxovas6BimzRVp+gM22BkhZGfOENqEJptEEU2Fdo0c2Y1V3HbN1Obz/OV2RoqtGP4WpqaT/IM6J0FwEggflqIJx/n4slHOaB7kbIzicocEmVm1vmTXOYcK7FcICtM2GGcWHi17nXeqIpwPBDuOPtBlP7wyyJwFEYIUY0BoWbad9wS53uPRPk4M8AfD8Qo34mdGZD+8MtiEMAfD8ToHmfp978ggIreHOdIPg6VMjMDZIgM8k0kRvr2gPT7fyoGAfxxQnz9O1H6HQH0h/jmTlT9mbKrbZmQfvfzEgSHKJLLmxJHdreVT3sPKLYFwGAQ39yJqiJR+r9/LAFHYUiIoSJRmBCKDebzEzWqZiyhNiBUzVgidLapb1bXO0de4vw/dPrV5hIPu90AAAAASUVORK5CYII=;" vertex="1" parent="ooqM9sPuauhWhxl2Y_vB-78">
          <mxGeometry x="60" y="40" width="80" height="80" as="geometry" />
        </mxCell>
        <mxCell id="ooqM9sPuauhWhxl2Y_vB-38" value="Availability Zone us-west-2c" style="swimlane;align=center;startSize=40;swimlaneLine=0;spacingRight=0;spacing=0;spacingLeft=0;fontSize=20;labelBackgroundColor=none;fillColor=none;dashed=1;strokeColor=default;" vertex="1" parent="ooqM9sPuauhWhxl2Y_vB-16">
          <mxGeometry x="1000" y="40" width="360" height="400" as="geometry" />
        </mxCell>
        <mxCell id="ooqM9sPuauhWhxl2Y_vB-33" value="Public subnet public_c&#xa;10.1.12.0/24" style="swimlane;dashed=1;labelBackgroundColor=none;fontSize=20;align=left;verticalAlign=middle;startSize=40;spacingLeft=50;swimlaneLine=0;fillColor=none;strokeColor=none;" vertex="1" parent="ooqM9sPuauhWhxl2Y_vB-38">
          <mxGeometry x="40" y="80" width="280" height="240" as="geometry" />
        </mxCell>
        <mxCell id="ooqM9sPuauhWhxl2Y_vB-34" value="" style="shape=image;verticalLabelPosition=bottom;labelBackgroundColor=#ffffff;verticalAlign=top;aspect=fixed;imageAspect=0;image=data:image/png,iVBORw0KGgoAAAANSUhEUgAAACgAAAAoCAYAAACM/rhtAAAB6UlEQVRYCe2YzyuEQRjH949xc3NzWhcuclBqD5sLJ6d14a5EUQpt2YM2ZaWkiFIkaUs42BxWSXvY2iJRRCGHR5+t0fbWvO/0zmv2Le/WNDs/9p3P+31+zNOmpnbGJVfKxrKJiKQy+R5Jz3TEsiWAtpZJFIyFgmSB8u2h3L805O3jVSr1c1k+mpbeuU7rwLMy8eBit1zUTqXaqAiQmXxa+he6ZGJzRI6re1J/qsnY2pAVpBUgSpXOVrQAgD6/PwovEtbUoQExIYBBBxdO5pvmD9qnWw8NePdwY2w+fBPT6yD85kMB4vxf35/GQUAAYW4/EN1aKEAcn8DQPdQ7Xywvyez+pPH+1t+HAsytZ438Tx2UAColVB9LBUdXBwQwGimGKFbjoP7geruZL1v3qZcN6o18kERL1JL3omgkb26eIDjWjQC5wshlJg802YOiplH9vwCVnwap6FxBbhZuC3yLCoY2XOjTuoRzQKKasksph3/5FRLOAVGPFKIA1V2txt7eOSAKbl0WfwG5q/2i3jkgeZLETRW9e7XRLPv98pxzQGVC4AD1CxD2tg2Q4OBwBazrE0CdMrFXUAfunW+bib0guvGfAEZdbkVazaAEybe14LT9bvq3iFG5pTOVi/kE0FblRMFIFETGOH9+APWGmgsqWn74AAAAAElFTkSuQmCC;" vertex="1" parent="ooqM9sPuauhWhxl2Y_vB-33">
          <mxGeometry width="40" height="40" as="geometry" />
        </mxCell>
        <mxCell id="ooqM9sPuauhWhxl2Y_vB-35" value="Web Server" style="swimlane;labelBackgroundColor=none;fontSize=20;align=center;verticalAlign=middle;flipV=1;startSize=40;fillColor=none;swimlaneLine=0;strokeColor=none;" vertex="1" parent="ooqM9sPuauhWhxl2Y_vB-33">
          <mxGeometry x="40" y="40" width="200" height="160" as="geometry" />
        </mxCell>
        <mxCell id="ooqM9sPuauhWhxl2Y_vB-37" value="Seculity group" style="swimlane;labelBackgroundColor=none;fontSize=20;align=center;verticalAlign=middle;startSize=40;swimlaneLine=0;fillColor=none;" vertex="1" parent="ooqM9sPuauhWhxl2Y_vB-35">
          <mxGeometry width="200" height="160" as="geometry" />
        </mxCell>
        <mxCell id="ooqM9sPuauhWhxl2Y_vB-36" value="" style="shape=image;verticalLabelPosition=bottom;labelBackgroundColor=#ffffff;verticalAlign=top;aspect=fixed;imageAspect=0;image=data:image/png,iVBORw0KGgoAAAANSUhEUgAAAFAAAABQCAYAAACOEfKtAAAUnElEQVR4Ae2c6W9bZ3bGr3ZrtRRt1GItlp3JxJMmadF/oSj6oWinM50sTjKx40WSZe27ZVGrZVuy5SUzLQoU7Zf2Q4H+HZ3VdiLLWqidEkVSJCVbJLWQfIpz3ntJiiLFS5lMAsQGHti5kWX45/O+55znnEtppTUL+tZM6NuEVtszwerIwBqpMwMGRV0ZMHSlY71byHgjHayedJh60oRupsFM6hXa0KaC1ZcKC6lfyNp/AtYBIdvgCbCGTmBzKAWbw0Jbt1Kg6OVIMkivbsu6k4xt0t0kln00CYocY0lwjCXCcS8RTtJ9oZ3xROyMJ2DnQQJ2FT1MwB7pUTxr/3E8WF/Hw/V1HMv9mziwfhsHD+lfJBb+VYK00pKFHzTEYRUQ78gQ7x4BUQa5c1+GOH4ExEcyxMcEUYAMBVEAVAOx43uMxB8wRGmZ4CkKd5zfQBRHmY60fJyl5eYsRARRuQ/p5+/6TvzeI/HwnSgAvoHIySVkYjniTpSWmk6CozBSiG+OMx9nBvgGYiKOm52lpcaTIIDHhvgjvxOlRQL4BqK34I4kEqlGlBYbTiIqEKN9J2qTYOlNgKU3HhZtPKzaeNj64mHti4etPx6b/XGwDcRhcyAOW/TzYBy2BuPwckgSGpbwinRLwraiEQnbIxLst4UcdySw7kpwjkq+jiWCYlsA/MFATOO2z9wlwdKfDuudIpbtjga2u0KboxqwxjTYGivE1j2hl/cK8fK+0KvxArAeFGBblv1BAewP84Ue5cOh6HE+HI/z4LifDMdIhBAfx0NaqM8GR2G0IL7mnWjuisPWf/wtXMYJeHZfwbO7HV578tfQzxEK/PWv4DZPYOd//iYiiPuPZIA/GIg9yTBrM+CyzoF+ePad8OzZYyrs2YF9J/957s15OO6lwjkap/pO5AgkgFGHeIw70dSdiI2REhmcA9aH52AZzoP1TrHQ3WLYSKNF2CSN+bQ1VoStexrWy/sasMY1eMUqxKsHhdgmPSyEnfSIVAD7g7fg/Le3wSBdO3D+phAOuhP9nJzQiSUe0vx1AU9APBnd4xwhRCMBvFUsjuyeHRvDeTB1SjD3xGPjphAnFU4scbBq42Dri4O1Lw62/jiRWPolbA5I2BqQsDkoYWtQTiqUXIIlliEJ9vGToKOMfTucXxeIxKIADOPiMMCDEL+/O9HYlQjzsALQActICTZ6Eo7vJ6rpnSkrP8rnu5MAOh4XCoD+fuIREKX5umwQwB8CxECAdJzNNxIFQDJmj2PKhoN4S+LMTMlHAUhlziFTNgREaa4uB98JRBXHeb0zCebhEnhce/C4XXwfmm4ksLv9Ws72URAZYIGIwD0RgVwnjpKrHeBsB0Ak80Gau5aD0BC/2zuRAJqGiuHeWoX75Ro2hoth6hYAaUQQE4jDEteKSgRScuFiWx4RhIMoAB4JMUp3YnsGVluTWYEzFkNHEkjG7jQYezJgGirhu9DYTc8SDsxYzD0JIBFM/xmLt2MZkOcrNGcJnLEEiURKLFRsM8A9O2dnBqhmPDCeAElXmwOOwlhD7MiCQVsKg7YEa52ZfoOqTBj7S2AcKMb6jQyGuN6RiPWuZJiHilim3nSYb6bC3JuOjVtFsIwUYUMrIlJATIOVupU7GlgHUnlYFXJQFQhxKADgw0LR+hFAFRAZYMwhNqfA0FsK16Yerq01rGtLORLX2pJh7CuRn6/CNFDCkchHebBYfq4X0dgeh43hIn5GR5wgciTeTIB1RAP31goffYLIvbPaSBySuO1TInD7oUYAVDOoup8IabYmBwRQHcTj3YkrzSlY6z0FuPYAtwuGvjKstojjvN5f6k0axsFTMLQnMkTToC+ZmIdLYWyTRIkjJxjLSCmXOATRcrtI/h77sN0tgbU3PvzIVInEwbiDAB8UCgOCx6bhp33SbM1biAxi5HfiSlMKVnuK5ALZgbUeDfQNEvSNEgw3C7zP17WFWGuWsNYiwdiX731uGijAepME00Ce95l5KF8U2V0SNoZy5ed2WEcK2MFRNXcmiOTg3C+Ue2g7dyvs4ihz5zCRKAOMIcTWLCzVSjD0n4Fnl/paB9Zvv4e1G4Uw9BTAePuc97np7s+w3luAdW0+zKPvep9vjJ2DsTcHG2M/9T6z3H8X5sE8bAzlwTr+jve5dawS5g5yc1KhCuLAQYCvxgtFx0IDfBUQpdlqgqcokuN8dCQuNZzAUkMKlmokWP7rIlzWZW7Y2SQgg0BxWaiZl3+wcRDy+Ss2FQ5+rezW+H0P9+YyXv3vBWx0SsJLVPzEUHciAbwnIpD6YQZI92LgBkSISJRmCOCxIYa4E5uzoe8+hZWuIqxqz8C9vcF/b7dzC26HzRstFI0UlfTs0PM9v+fsyDgYoNtpA0m4NPTM99zj3OQ/x+OwwDZWAeutfNlPLAydncmQlQHS93w5rhGGbLA1kiAQpZmrb+H1IB6MxMXrqVjpLoPLpodnh/w5h4Dn2ITh1vtY7S7CWm8Z1rRCBm0ZWH2nsE7qFzIOnIIi02ApjIOlMA3JGi7ljoW6FvOtEmyQhgpgHX8XHodNQOR/HBGh7persN0tgkUbd7jE6Q8AeF8jDIhQuzgBEKVpAhhFiAt1qVjpKoNrc9UbafQ3ogjTdxdhqS4Oy40poMRC0pOahTgztySJEqc1GVTmkAztSSI7tydhvUNWZxKodzZ2JXCxbeqQ+E70OKw+gLKXSF0NAQyanfvj2dmmMoYjUAZIS00hF5oUiKNJkKav5CLaEBebsrHSVY7ljmKsDv6FDNIO/c1yLDecEKskUV4j8VlhdFc6YH1wju0wy+1iWG8XwdKfFjyx9MVjc0zjzcIvyVMkO0zeDAsHUQCMGkTfnUiRuFATj+V2X/mi7ykHJZdY7OIccnKG8mH2eokJB9q+A9mZAI5qvGUQmbLsJyp14lGReDcJ0tTlXHAURgtig7gTCeB8dcJhgPUnYrKLEwjQWyeG6J29ELVBAJIpSwBVQGSA0YeYg+XOMiy1FUE/IB/hXTtWbpRjiQBGukaiYlAlrDAyY8UR9taJI8WwjGgCeme/JU8CeNd3hGk0QCNT75JnGIhegNGCOF+bhqWOcs7CbsrCu1TneTiJrNyowOJ1GWCkEMP4icIKK4Hbm0R8tSZlYboLeTQQaMr2xvPIlOvSPTvPWXg84L8pewRE6cWlXBA8RWGPc20OZqszMXs1HTpStdBcdRrmaoSWOioCsrAMsJsAph5/jeQIiJSdyQYTAD3e+pAyK2Vhy0hx8PFAb8JhgDRjUWGFUbEtvbiUB/UQczF9IRm6a7mYb6nAfGsFFkhtlVhoq8BiWxnmr+ewCOJiawlW+t/3ZuFlAlgnAEZ7F4f8RDYg5CO8ce8cTAP5cp1YDLM2Pbiz3ZvAxbY3AkeLeFAVdGc7SCRKL74igOogEjz9/b/Hzuok6Hi6d+zyz/TrbezbVrHYXoG5mlToriRCd1HCQiMZAFTQOkAAKbnEYhfHB1DUcyZtNtabJXZxjFQjsp94ePF9g+ywO0qlYOeRKU/7Qi2+B0CUJgmgCojTl7MwU52LPfOCXKg64SZzYJfaMSHXpoEjca4mHYvtZVhoKcZKny+JLHcJgDHZxWkPiMCxczD158M8VOxnyh5+e8BMAMkOox58zx66YwlyJ768lQJp8mIeVEH8KgO65iq495zw7DqxePOvoGssxXzraaG20wxPV5OJhbbgSYQBXksVs+dobIX53Ylr7ckwDvjdgfyPK1Y+yIClcSnNV2h4b7qRyNM+Hg/QHs6wzw6jwT2NB8K+giFHogCoAuLUV5nQNZ3mo0oRN9dwiu/DmcvpmLmSjlmSnFjoTjzYyokkstRZiXkFYJR3cdjdHij1y8LCZFCSCEWiqBWLeHhPA/wNKnGGcmEdl20y1w6soyXq/USKwOcX8sBRGAbi1MVMzDb6AWyuwsyljOBWWN1bHI3zzaVY1spJZNcOBlibFv01ks4M7pmN5G5zEnHCPPYzGPsKZAOiBEZ5xuLe0vustADrzG1bgKU/ExZarVPhJ1KhLT2/kA81EF9czIQuAOA0AQxhhVGJM3spCfPNJd6oXeyoBNWJsdjFoYkfjwf4LnPAqC1gZ5uMCDYgeGRawnMTikqfRKS6TJPY+s+/A22H+U/7vB1LCD9RBhge4osLmZhtEBHo3nXwfTj9VcZhK0yer9Bxnv3qMECqFRWAC/W+3vl1EwsD7KMIFBaaMh4IPjKlsamfFUYbEH2ZoL3ESF9Lkya+JHiKQh9nf4B0B+qaqjBFAA9ZYeRqv4X5lnLMNZVgqfd9Lnfo9yy2V3KxHZM1kpZkrDNA0cop4wFKLAdGpp1JoK7lgBVGs2darePhvTzAD+xYgrzbtzl0AgxQDcTJL30RKACeAd2LgVbYzOUMzDVXYM+mFzWi0srZN7FAAKvTYrKLo29JgaFPSSIeUbzLdxwlNCqyKRqj/YKkNPHrfBDAcBAnv8zCTL3vCM82ygADXBxKLARwf3NV1InsSHvgttuw0H4aOgIYg4UmMmUN2lNw2wMNVQfPoo0DpWLm3C2/YUpvmkbhLVPpWwKoAuLkrwlglTchEEA61kF755pczLVUQtd4Cos3P5CPsB0LbQQwPTa7ODJAJQub7rwHQ2+hPCIohaE7M+qv6toGTkD69osCqIH4nABeJ4Ci+1AAhnJxKBK5b27wZeF5Ang1XaySRHkrTBneK0nEcLOQ586UXHgsEKN3+wRAFRCff5GFaRkgZeGZBhGBoVwcKnGmv0yGzh9g62kutmOxi0PzFdp+UAAqw3tlAyJwoSlaL41L33xeAI7CMBAZYJ2IQAUgJRYF4IFIrM6FrrECs/WlWLihZGE7t3zUsahbIzk47QtrQDSmYO0mARRZ2Du87wu20BS9N+8ZoBqIExSB/gDrz4ISS6AVJjqWSuxZ/bMw4LZv8p04czHpQNsXzE+kYpt1LRULJJqv1KWyl0h+InuK9SfY3aYZCw2qlurioe/W+JKIXy9MWZhKHDrO0Y5EL8BwECc+P4kpBrgNisDp+jOgxBJohYmOpRL7ViUL77B747ZvYbHnQz7S7CUG8xPbK9gOI0uM/ERWZzmWSTTl6yrnad9KdznPnvU3ysDqKYO+SwPD8Huc7ekP9OzvyD6kyMKUoek4R/szIKRnnxWA4CkKdZwZ4LUzcm3nwPT1M6DEEtQKu5LHffNsfTnm2t6Ba9siQ9yEa9sqvgf7icJHpBKHyg/2GHfpH0h5bvU+5w0G+j30dfLX8n3n/7XyUJ3+v2HgLC800QCf4XVkYbU9+h+kIT37rBBqIH772UlMMUC7iEAC+EVWSCuMInHqYgYmz8fB8O9XsG/VM0SOjj3hJbKfuCdeclHz3BPwtbysxAtLvu9BGxGW/77MC00rjclieN+cIj6JhD6RRPk0Ej8r7HXevJeenSeA4SESwBe1FIEC4JQC8CgXh4rsK7kMca79p3IJ5MRiz19irvFUQJ3oxJL2Q5CDc9DFcWKl/0MsNBX4jQec0A9+wIP7g8N7J1b7f4Klaikmw3tTkI90kZ4SQBUQvz0fALDuLCY+zwpvhV3J5ZZvtr7MW4Tr6k9xiXOoTmwqZQPikIvTWsLjgcVW+R2SXQeW2osxXx1/aHi/0lUS2fBexcj0qI5FevppIdRA/IYA1vhFIAM8GZEVRq8v0IbqXHMVqE7ktq+lkrdL6Tm52/6mLH+9ywWywXSXEzmp8JarywVlPEDZmZKKsv3K2w8xGt4H+3Ah6QkBVAHxm0+zMckARRZ+cY0ikACqtcIqeei0bzOws01WGEGca6rg5zRPmW+p9JY4NO2jIRU9p6ysu5yExfZydrrpGWVmpcShIT6VKq4tA2fnYw3vj3knSk8+KYQaiALgWe8dSADpXlRjhU3R7JkzcxVmG6swfTXP5+JQ39x8GnMtpzFbm+tbN75GrjaNSyuhq8nAXHUqj0sXqbzprMBCQw68fmJjNpa5tCnHUnM2lpqyvrMP0pCefKKBGojPPsnGZLUfwFoBMJyL460TL+Wy+UDZmQ2Iq76tMOU4ezdlFVOWupbqDCy0losRQV2Od3jvNWX9dnFiNTI9qu2T/vwxAQwPkQA+9wM4SQDPn1RlhXkhRrIBUZPDx5mG91QCuWxrYmQaIz/xuB+4xgDVQDwEsOZtUGJRY4UFLbbVbIVdScd8qy/JLLRXxcxPPPSpdSrvRC/AcBCffpyN51d9R3iSAH6arcoKUzV3DrIpS+42tX1iSckRWz+xTf7YvwiLbelPH2lA8BSFOs5PP87BhB/AicsVeParNIZIkUjHmZIKibKzUBZ3K9SxUNtHvTMZEOTikBnL4o4lEzR3phmLkp2/az/xuJ+fyADVQHz6UQ4mqt+BZ28H7l0nppr/GhOXyjmxTNac5RKH6kTqVkjU9rHqqtjFISeH/ERWfRWPB2YaToNE0z6aOZN0TZVCzZXQkR3W84EYDezvYr6tiu/FWPiJx/0QSulPvyoCAQwH8cknuXj2mQa7xkVhDOw64HYqC0a0ZOS/aKT8t/8z2SDwNxFU/JoGWPRjb2ORt8JotS4mfuIxd7alPxJAlRD//It06IZ/Dqd+ylsPkrUVKxE8Mhx216agf/APmL6YjFm5xFEHMXpzZ/441IDEst6VDumP/1wE1RDPa0AQn31ejImrP2E9r34biiixsGrfxovas6BimzRVp+gM22BkhZGfOENqEJptEEU2Fdo0c2Y1V3HbN1Obz/OV2RoqtGP4WpqaT/IM6J0FwEggflqIJx/n4slHOaB7kbIzicocEmVm1vmTXOYcK7FcICtM2GGcWHi17nXeqIpwPBDuOPtBlP7wyyJwFEYIUY0BoWbad9wS53uPRPk4M8AfD8Qo34mdGZD+8MtiEMAfD8ToHmfp978ggIreHOdIPg6VMjMDZIgM8k0kRvr2gPT7fyoGAfxxQnz9O1H6HQH0h/jmTlT9mbKrbZmQfvfzEgSHKJLLmxJHdreVT3sPKLYFwGAQ39yJqiJR+r9/LAFHYUiIoSJRmBCKDebzEzWqZiyhNiBUzVgidLapb1bXO0de4vw/dPrV5hIPu90AAAAASUVORK5CYII=;" vertex="1" parent="ooqM9sPuauhWhxl2Y_vB-37">
          <mxGeometry x="60" y="40" width="80" height="80" as="geometry" />
        </mxCell>
        <mxCell id="ooqM9sPuauhWhxl2Y_vB-59" value="Elastic Load Balancer" style="swimlane;labelBackgroundColor=none;sketch=0;fontSize=20;align=left;verticalAlign=middle;direction=south;startSize=320;spacingLeft=100;fillColor=none;strokeColor=none;" vertex="1" parent="ooqM9sPuauhWhxl2Y_vB-14">
          <mxGeometry x="480" width="320" height="80" as="geometry" />
        </mxCell>
        <mxCell id="ooqM9sPuauhWhxl2Y_vB-60" value="" style="shape=image;verticalLabelPosition=bottom;labelBackgroundColor=#ffffff;verticalAlign=top;aspect=fixed;imageAspect=0;image=data:image/png,iVBORw0KGgoAAAANSUhEUgAAAFAAAABQCAYAAACOEfKtAAAaLklEQVR4AdWch1tVV9bGz38zmXSjQQUFKYJEQCyggxorGhsoIqgQRBANliQaNdExUTPPN4mpJsZxklijWCkinUu9dBRsgIDg+z1r77NPP7egk++b+zw7JjNqvL+std613r3OkVJDS7AxrBQbw8qwaQqdcmymE16BNDrvVCKdnSq8P5VONTIi6DiwJaIGWyJrkBlZi61RdOrYyZpWj2x2GrAtupGdnOmNyJnuxPYZTezsmNGMHTOb8cHMFnwwqwW5s1qRO6sNO2PotGNXLJ0O7I7twJ7Znex8OPsuPpxzFx/NuYeP/taFj9npxt44Ovexby6dB/iEzryH2M/OIxyY/5idg+/24FN2evHZAjp9OLSQzhMcprOoH3+ns3gARxYPsvP5kqeg88XSIXaOLh3G0fhhHIt/huPLACkltASpoaVIZRBLvYDokCE6bCFykARRBikgTreAOFNAbDVAbHcBUYAUELutIc4niI9wcP5jHHyXDoEUEHsViIcWGSFykK4gSimhdyAgeh+JAqIaiZlyJGZF1UGJRAaQQ6QoNEXiDGMkCoht2MWikUfibstIvCdHYpfLSCSA/HCADOKCXnxqjEQvIB6LH4a0YTIBvANKZRGFDKRI53Dv01lApJQWUZg9rQHZxkh0mc4jgSgi0VU685TWprMJohfpLG2YXAwdRAXk89VEM8R6GaCLSBQ10SqdY3gqU010HYluIBrSWdREE0QPIvHo0iFIySEE0AAxTAiLNzVRCIt9TWTC4i6dBURFWEQktrN0ZgDdQtSkMxMXg7Do0vmxIiwmiFaRuGSQiYoQFik55DaMEFlNNEGUFdojdVYhGiNRSWk5nS1roi1E65q4R6fOoiZ6Fomk0CQsIhLt1JkpNFNnvbBI6xlAM0RWE5V0HkkkmoVF1EQGMVqtiS4hKumsaXEshEVA/JC1OAKiJhKtWhzLSOzxoMVRIUrrg4tgB5GrsxAXm5oYbtUn2quzgGhOZxd9ogJRpDOPRJHO1n2iBUSrdJ6nVWc1Et2n8wCOLBmElEQALSCmyOos0lkotGi2WcPtMp3NELeyhtvQbHtaE91AtBYW0Wx7E4lys83aG0OzbSEsUlJQIZKCC/UQmagYhEWZWDTp7GmLE2lOZ6/6RFETTRC5sIiJxRLiHItI9CKd3UWitC6ogAF0B1FEIm+2NRDlsY+Nfh6OfUZhUXvEEbY4sdTiuJ5YPBr7dDWxR55YLGqiJhIZQAbRRSSKdObCQnMzPyKd3c/OIp3t1VlAFM22S2ExtTh6dRY1UQgLn51HEokyRBcTi7Q2MB8E0DYSrfpETTpvFBOLxwaECtHSgBDTCpkQYnYeycQS04GdMzuwayYZEcKAELOzNzXRLCyfLZQNiEVPICUG5sMtRENN5Oo8kkgUzbamJsrCYq6J3MVxCVGpibzFIQcnd0Y7ssPb2I+fLLwLOgQxZ2ondscQQGMkCgPivt7FYeksXBxhQPSYZmcpMfAWA2iGaFBnGaLbdPZUWCLIBuNWmKiJZoge1EQ5nXfGtGJbRCubVs4dfYSWqkH09zxDf88w+/vzxx4zKyw3+i4+jhPqLJptAVE7sTzCfl1NlCEa1FlKnHQLZohcmU3CYkhnd8LyYvxEDtFVJObOakH21BbsW9SO1uoBiM/wEEBHfFodgzi4tAsEUfUT3aSzrk8UfqIqLFLCpJuwhijU2RCJVhBH5CeKdLaviWLsE36iYsoa/MScaG6HtdcOMlZdLU/xw8772L+kEweWdOLkrgfoauEkO+qegoxZkc4cpKtIfKhEopWfKK0JuAl7iDaRaEhnfU20mVgsWxyhzpqaOAI/MWOyE2ePPmDw7jU/xUfz2rAlpAU7otvY2Rrair3vdioQLx7vYTXRG3W28xOlNQE3kKCFOMmuJhqabUMk/l/5iTnTm5Ad1YS2Gp66P+R2ISOkSXa1VXHJDG1lkUiU22ufYiepc6yqzh71iRbpLK0JuA6C6DoSjelcBObiGNRZb0B4E4kinc2RaD87c2c7O9KJPXNb0N83jOGhZ9i7qA05Uc3yHYuYndtZJFI6088Z6HumqLN6xyLUWaSzjSkrC4tIZ2m1vwDoDqJIZ9c1kUfin+cnEsDdcc3o75UBLmzFtqhmzUUVh0jpTDVRC5CiUH9RJSBqhMXKgNCos7TK/xq0EHXp7GmLY0hna3X+z/iJdOu3NaIRLQ6ewt99cA/pQU4GUNz20U1fRkgLftx5n9VJEpvc6R3YHcNv+6wnFs8iUVo18Rq8g1gIbkB4EImKn8jTma5OUyfTKWdnUxhdnZId5vrKVPSJIp2NfmJaSD1+2d+FZ8+Ae82D2B3XwiBSJNJ5P7gJH85rQ1fzUwbw/LFHyJrSxm77hAEhIHrrJ0orJ15lAL2DaKyJZMham7LJwXeQ4FeMhPHFSA4sQXpEBbbOrETWrCpkRFUiJbgcSRPKsN6/HJvDxL2zvToLiFo/cWNAHY5tbGfpSYQIFEXi3oWtrCZ+/0EXSJ3pQ9FHEUkTy4vwExlABtHrSHQBMbQYSZOKsWpsEdIiSnH0/QZc/uEe6kt6cb9zkNWrgb5hPLg7iIayPlw92Y1/ZDYjM7oaSRPKsSm0it05my7vDX5iVlQ9UgNq8c/MDjzpGWaAxI/0D1Tv6IhPS/UAa7bZxBKrN2VFJOprophYNDXRYIVJKybkgQDaQWRtjttmW21x1gffxgqfAqRHleLfR9sZMPEFxI9PB56BjvFDQM/+4y6yZzmwfmKFvAXBG22xASHSOTOiDqkBNfhp713ltyk+34PcOU0481k3nOX9ePJ4mIFtrhzA758/AJtYIlpAY5+yAWFxPaCD6MpPnPcADKAOor9aE1ez9sbQJ7oQlrUBhVjhk48vsxpYdIlv5qzsxb+PteNwSh1yF1QjK6YS2bGV2LXQgSOpDfj9eCeaKvvET8fDe0/x9Y5WBjFtSjW2aNdIomrx/js1SA104Pw/upVfc+X7B0ifXI+MKQ1ID2lAVkQjU+fdc6kONiEj1Int0dTeWG9AjNRPlN7zuwICqIOoSefVHvSJScEFSJiYj9V++fjj+07lS1UXPMKBdTVYF3AbK30KkeB7G0kBd5AcVMLO+sASrJtYgoTxJawWHk5uRE1hj/LrL3/XjdTgSmwOkyFG1iAt1IHNkx24efqh8vPOHL6HjYG12BpRr66RRDuRFdmI7CjqF5tgvYsjInHkfiIDaIZ4Da7UOcFgQCT452OV7y0UnOMRQXXnu4+cWO1bgFVjC5Ac7P56YGNYOdZNKEXypDKc/KQNw8M8xQvPPkRKUCXSw6uxMbgKWyIdqLjGIQ89fYYTO9qR4u/A1kh5oekF+YnClBXpLNRZmBBioUla7ncZBNAMUajzddYn2kVi4qR8xI++gT9+7GAR8aRnCJ8kVCN+1E2sC7KeWPSzs+Z6ILwcBDJhbCkOrW9kYkO/ad6P3Vg9ugw5MTVwVjxh/56+R0M4sqEZGyZW840wZY1EbEB47ydSXaRdHM/SmQuLtNz3D3CIl/HeBHfpTNOKpiYG3sLSUddwbGst+1IUEfsSqrB01A2YbvsMBoTt9YDsJyaMKwWlNP2e9DlzpBPt9f3s7++1DOLj+AZs8K9iq3VCWJ7HT6T1Oq2wiBZHUec52tU6eWKJ64a0jAAqEG0iUVMT+dzMIa70vYEN4QV41M1tpG8/bsTiN657fD1gPbGo+4kJY0vw84F2Bk38xVnRh+2za5EyidJZnZ0trwemcS8xe1ojq4dUE3Oi+Y6i65ro+X4iA8ghXpYj0QaiPPLR2CfSedEbeThzrJl9t5riR1juQ2CNdyyuJxaRzsZ7583h5dgUVo71AWWoK+ll/47G8j6kh1exmkjKzPtEGz8xuh6ZEfXYFFSLzKkN2BXnxK64JqbOpNLbpjWxBU9lyVO5HtBEIlvydH3bJ8WPvwQCaIJoSGcmKppIXOF3HetCbinRty+hAvGjrxuuB4QBofaJWhdHXA8IiKb9xHAuLH/f0MgA3m0aYGNf2hTXE0vWtDqkh9LGbD3OHOriPWEP7wmbKvvx25FutiWbGe7UQzS1OHp1VtJZs4sjxY+/CFuIti3OdSwedQWHNlWxL9ZU3YsV48nV4e423a+Y71gMEA0GhJ2fSKKSElyG1houHsczmpAcUG6/bhxVi7TJNdg5twHNlbxm0h/SOJU0Vw3gowUtyHzn+SBKS8cRQCNEISxW6cxbnIVvXMal79sYwF+ONIHS2d7ZNo591ups5ycmjCvBb8d5f0mKvG5Cma0B8f47fHe7xSELTvMgTuS0Y/d8J/bMd+Kb7Z3McKA/eFvtANuW3TbNqe8TrdLZYj+RDAhp6bgL0EPkKb3c10VNnHAVy3zyUFvyiAHct7YCS0dfdWPKinR2XROt/ERqto9s5GlM83SSfxlSQyqwKbSSnc2hVUgLq2YnybcSpz/l493dpkHsiK3HhokOZITXYUs4n51z5zhxt5kL3+9f3GeTCy2/uxUWC4jSkrEXsMQEUdRE60hcPj4PCYHXcb+Te3Bb5hRh+dhr+hbH0GzrL+9dQzSqc3JgKXYudDC7isyInDnVyJpZjW2xDuTQmV2D7bNrkBNbi6wZNWiu5tH3dU4bkqlPnKZZaIrmEL/ZwSO6tWaACYtn6myuidLisecZQDNEEYlmiMvGXkHSlBugpvnp4DBSI/Px3niKQEOfaAnRez+RRj+ancl1ps9g/zMMPBnGYL/FkU0K+v93zq1H+pQaiD5RWGFb3qnDnnedrC7SVQBT58hG60cwlHS23k/kAGWI5nQWkSjSmU8t8WMvI2nKdQVgSsQtLB939T/jbIfyuZkMCAXgwLBHAHPn1iEtzKFrtgkipTPVQxIWLUDT0wO2W2FiYumAtNjnHCgKRSSqEC/J6iwiUYW4bNxlrA68qqRwxuxCxPvkeelsG4VFb8pqWxwyIMjFIceZUjg7tgqZMyqRHVOF7JhqbKMT68C2GAe2RjvQXM0V+6ttrUjyq0RmlPwwEPmJ0+pYTTyxnY+erY4BZE6lOZoveHoLUVrkcw50rCEKddZDJIFZMuYP1N7hIvJxYhkWjbpsaUB46ydq+0Tx9ECC320cTqln6Vt3pwdr/e5gQ1ApUkJITMrZ2Ti5ApsmVyBxXBlOfcrhUN+4bVYNg0iRmB5Ww2ri9th6kMDQ59fPu1izrV7eWzzHYhOJNDdLC98+ywHKEJdQOo8lZTaos9xwi7Fv3qsXcOG7VvaH+PnvjZj/6iVuyo7YTzT0iZrZeaVPEX49xkc6crbXjCs2PVEl9hM3hVUiLbwKLQ4ehQTxn9mtyI2rQ+7ceny1rU1R4NaafvYcC00sfK3Og10cpSbyiYUB5BBlkAwgFxYTRM3EMv+1CziYUsYAOqt7sNSH6iN3t7VWmBj73N472+wnkhVGfmKLgxuuX6Q3INGvmO0oWu0n0nN9GwIrsH1ODZoqOUT6Q5oa6cp+1mynhdaqDwN5uvguFppmtUJa8PbvWEjHhwB6DnGpzyWsmpSHh928ldmzqgQLXudRuJJGPs3YZ1Rno5+ob3H0kUh+4sGkGvYfqtPZj5TJJdgQot47W+0npk+tREpQBWu2Tx3sYPcu1DHQfQnZYWcO32XKTMYsjX1CndWLKg+sMBmitGDMb+AQz8LbdI57+TxOfc4b3OqiB1g46hKW+2ruWFg6u/ETXYx9SUFFWO1biNpibqA2lPUiOeQOEifwCHS1KUuRuDmsQr6kqsS2mBrmJ1LDvSGgil0LUHvDnzStg9kK8wyi9C4BHPO7ClFEoQfCsnjMRSQE5ymGwld7ahH30gWstLmo8vaOhUzZ7/c2segTf2ko70XG9DKsGX9bWTUmkEo6W+wnUk3cHEZACZy6RvIi9hOld8f8CjuIQp1thcX3D8S9fA6H0yvY96OmeteKO5j7sj1EYzpbr9YVMlP2k8RqxVD9+bMWtNbKwtDcj9wFlezaNNX0RJXqJ/4Z+4nS/NEEUEDUpLMciTqITJn16kxOztxXzuH8ty0MYl/PU+x67w6LxOW+V5gyi8t75iVq/ESrNRLyE8mU3bemijXq9Jte+q4DC1+5gbSoEjSU8XTufTiE/Yk1WPl2ke5JUyUSX8DOtif7idL80f+GpxDtmu3Fb1/EglEXcOM3Pl+S4v3PzhoseusPJiwr/PK4qGiERaSzUOc1/jeZn/je2Bv45sMGppoE7+avXVg1Ph/rAqkeFrANiJIrfBeQ7P4vtzYwiCQuJj/RLURhyqrOthj7zDXRusWR5r1FAO0gCnU2NNvGPtH3EhaNuYiFoy7i7AnuUNOXr7h1H7tXlrAWh/pEarZpYlk+/iqbncmAIBeHrDDyE/euqUBVvnpdee7rdqz0vYWEiXxqWR9ShISJhVgzoRB5P6kX6icPtLB0Tg5WIaaGlrFGm5ptvoPj+esLBERVnRsgHsNgrzDQPD0gzXvrDKwhCmFRIdqPfRcR73sJFIlzXzmPQ+kV6O5Uzcz68segZvvjxFLQ2EezMxkQ5OLsW1sO8hMbytX74Ad3B3A0s5ZFJF2Z0q42P/RcXxHoAn+lTwHOfMH9SPqPdeHrTtDEss6/GGtoDyeoBFumV7CRjwzZtX6l2BhaLr//wfuFJrXF0UeiNJcBNEBkdVGrzh5CHM/nZxKWhJCr+OlwA7o7VJD0RekzODDMjvyPyg9kj53+vBkp7xRg6VvXQFemqrOth0gpvXxMPr7e6VR+ff5v3UiLLMWP+1pQX9qL3kdDePJ4CHSXcurTdvYiDbp3pj7R/kUaNncs4kUahmf7pLmj/gVLiIqwGCNRbbZZTbTxE6nFmfvyeayelIcDG8pw9kQLHMUP0dXez8Shv28I3R0DbJ6+8G0bDm2sQtLkW1j8Zh7oto+eHDA/PaA3IOjqdPnofBzeWIu+x3yJvK9HXcs3Th90o7cttgrJgeRoewbRmM5CWMQTVVIcAWQQ/wX7dLZXZyEsZj+RW2E0scx//QLmv3qBGRCrJ11FUth1rA+/gYSg61g2Ng90PUB3LCv9+LaslTrrIpGNfaopu+ytW9if6MCQvInV2dSP41sakBVTgazYCnyZ6QT9b/Rpdjxhr3WhdPb0lS6WEOUNCOlvb56GCpFS2S6dzRBFTWR9okWLY7ztIxeHrDDyE+PHXgE52ysmXHU59ln3ifpIpIWmE7udzO7qcPazNF4xppCt2K0PvIOVb99GRnQ5aBSkz+lD7Uj0K+XvxXnO5505QAbxtByJFhBdpLOAKCJRNSDs/UTLNRJNi+NZs80hrgssROLEQtAGGH2ObanHe6ML2JtIxCtdqL1Z5XMbX27l9bK5uo/d9NG9s32zbW5xrJ53lua8+Qv+9uYviBvlJhIViCISVWERzbYZorWfaLuLYwHRnZ+Y4F+AzZHFrK5SzdsysxRrA4pML9KgSKR0pp9DzjYZsqkhZZ69oUmzASHSWfSJ0pw3TjGALJXdpbMJ4lnZxTkHEYm2Y5/BT7SF6KWfSG0OA9g7xOBsmVmCtf5FSDY8gkEbs1QTVYAVrE8Uj+oKP9Fena2bbWn2G6egQvwFcV6ns3BxVHX2tCbaQtREojs/kVqdNRPz4aziKfxFRh1IVJIn31YgUipTTTye2cDSnFKY+kRqtj17V5hIZ7XFEZEozX79Z5gg6tLZE3UW6fyiIHrnJ9J63cmD3LXpcD7BpohiBnGtfyFLZ6qJaVGlioic+qyNudps9HvO552lWAL4+s8sCtVIPK1EIlPotzyBKCLxRaezez8xwZ8eTysArZjQhyBSJFI6U008mlGvwGMCMrkE6tinscLczs6qFSZ2tqXY13+Ca4iiT7RS599srTBRE90Li7h3HsF+orh3DsrHinE3kRZ9WzcSGhvpxopeZM4sQ+LE2yAbjN5axw0IDUQLP9HuORbyE6WY1wjgTywKZ79hkc6ysPBItIIorDAxsajCItTZVliUOxYB0WoXx8M+UYZI1wM/7G9CfWkPm05oQqkv68HJA81MmRMmFOlanOf1E6WY105CB9GqJj6HOusgetBs2wqLxX6iaWIJysca/1tYNvoGW3rfFHmbKXSiP396gOZn/p4wdWdbrNaZ9hM9TGdp1qsEUIVonc426sxsMDsrzByJ5nQWzbZxA+KKad3YuJ9o9BONE0vipAJQi5PoXwBqtnUvF9JcmYpmW01nb54ydUCa9eqPoGOCaJHObsc+U58o1NmNn2i35Gm7n+jiAck/+XlnaaYM0BKiKZ1pWuHHexdHVWdzJIqJRUSiq5rIW5zVylOm4nFdV0/e62dn8hStNiDs9hNFs2019kkzX/kBdhBZj2gF0V2z/Rx+4jJf/RqJbU1kzTZvccTsLK4HjOnM7501fqLFu8LEGonVfqJtsz21CtKMV76HHqJFTdSkM5+dT8PzdBbqLNJZbbZZJNr4iXxn21UkeqjOlvfOqhVm9ZSpcT+RX1RZP+/MAJogvmZREzWRKCDysU/0iR4224bbPpHOZj9RROKLhuj9fiL1ina3fdL0l78DATRBtBIWDURycJiL467FUdJZuDiqOotm2/PZme8nmp7t0xgQIp1NLc5II9Hw0LgxnRlABvFl9xBHXBMVdTans4AoIvHP9hNNT1TJTw9o9xPZ1GJ44Zp4f6IU/ddvQQC9jUSam9XZ+b/XTxQ3flZ9ok5YNC9cU9I5vBxS9F+/AUGMtoT4A+sRPW5x3KWzEolu0tl470x94n/ITySF9gSitbCUQ5omAI4wEk1WmLsWR4Eo0lm4OKo6e14T3c/O7vxEZbXOZj+RRj+RzrxP1BsQUtRL32DaS3IUuoPIRj517ONeooUB8V/mJyoQ5Qt8XTpbPVGlpHMZpKiXTjCAnkeidZ+or4n/n/xEPvbZReLI35/I10ikyL98DQWi20iUa6IcibGyFSYMiJGns6iJotk2zM6WLo6xT7RpcXTXAxbPsTBPkW9ArHX1Jk+DAcEnllL8Lx8BRcKnczxbAAAAAElFTkSuQmCC;" vertex="1" parent="ooqM9sPuauhWhxl2Y_vB-59">
          <mxGeometry width="80" height="80" as="geometry" />
        </mxCell>
        <mxCell id="ooqM9sPuauhWhxl2Y_vB-2" value="" style="shape=image;verticalLabelPosition=bottom;labelBackgroundColor=#ffffff;verticalAlign=top;aspect=fixed;imageAspect=0;image=data:image/png,iVBORw0KGgoAAAANSUhEUgAAACgAAAAoCAYAAACM/rhtAAACrklEQVRYCe2WwUvUQRTH/WO6dRA6CEGYYAQrBB5iL+plvVSH8iB2CA+BEBgdyoN2iL2IhwVBCQoigsSD0kE8GEEkCIWgdKgudnryGfz+GIbfb3bXiVpoHsy++c3Me/Od73vzZvum7j+0scl7PdnMzPqGanW70D/Yky0DTI1MZjAzmMpAqn3OwcxgKgOp9m1zcGzyrn389Jl1Tk5Oftvjp8/ds4j++u3QLg+PFs8ka2kCdnHgmn3ZP7ClF8tGf6W1JldOr66/KtbKxtcsir7FM7OPbHbuiQG0cWfa3rzbcI7pM4awBqc36g33zQ99xrSG9c8Wm26ePydXa3U3h28fUNjHIAowNLg+Ou42YTPmfvz8ZWKBzWCUJtCsg3XYay63XP/SlZEoKH/PjgACinCymVgQQMABCKf0/cbYzu6evXz91s3D6tHxd3coQg27PpiyfluAOjWbAIpvRABvTz1w34RMzMEefZhCCKk2Z4zDkpeIwGs+1KypDDFhITy+E8YQkh5nWiNmAUpD5uYXivCGG/MtG+Vr2Rr8VALEgJBsfdgpwOgW+qC5OOSiQo0dfWzfb24X7BFSwAuIouGPaU66LUASHxYlMAc4v5QQUkSXBef0EV0WxnQ4N3H2o5IlQKFmWZRBDAgjp+/m9oUb6Ru28BWyqflQdwQwNPqb3/8MIKEnt2nkcFUeRgGSxLEbdl4meRoVZpWpqn2iAMk5TscpearOC6jKjgcA5vTSlK2LApSB6hllI5VVmMMHZYhKwC3mW3uFuiOAGBEWHKnkoGGWskM+KWS+JnwUYxqliVqJcFD9SUBTJUJg+u4YoAwAyql5Y7sVQPrPnnzGdNcAfWfkqFiCSd1KacZIj5sTtyoZ8v2V9ZMAljn802MZYCqjmcHMYCoDqfY5B/8PBolzL8spxbD/ZHxUeXIAAAAASUVORK5CYII=;" vertex="1" parent="1">
          <mxGeometry x="160" y="280" width="40" height="40" as="geometry" />
        </mxCell>
        <mxCell id="ooqM9sPuauhWhxl2Y_vB-58" value="Cloud Front" style="swimlane;labelBackgroundColor=none;sketch=0;fontSize=20;align=left;verticalAlign=middle;direction=south;startSize=320;spacingLeft=100;fillColor=none;strokeColor=none;" vertex="1" parent="1">
          <mxGeometry x="640" y="200" width="320" height="80" as="geometry" />
        </mxCell>
        <mxCell id="ooqM9sPuauhWhxl2Y_vB-61" value="" style="shape=image;verticalLabelPosition=bottom;labelBackgroundColor=#ffffff;verticalAlign=top;aspect=fixed;imageAspect=0;image=data:image/png,iVBORw0KGgoAAAANSUhEUgAAAFAAAABQCAYAAACOEfKtAAAbr0lEQVR4Ae2ch1eUV7fG3//krrvWXV8SY4yKIkoRBJRmj5WidAHpXYqg2HuNxpgYY01s0RgbRZAm0jsMDGVmYOi9CMJz1z6HoQ/MIJov97us9UaXUWB+7LPLs58zQuDKPASuykfQqgIEm/Bnj0kh9pgWIYQes2KEsqcEYeb0lCLcohR7LUTYa1GGvavLELG6HJFr6BEjck0F9q2twH561lUiij1VOLC+mj0H10twcIMEhzZIcWijDIc3ynDkO3pq2HN0Uy2ObZLzZ3Mdjm+uw4kt9ew5uaUBJ7c24NTWRpza1ojT25pwelszzmznz1nLFpy1bMU5eqzacN6qDRes24eeDly06cD3Np34fkcXLrGnG5d30tODH+ix7cUVeuze40d67Ptw1b6fPT85fMDP7BnAz44DuOY4iF+cBiEEEMBJIAZPB5GBHAsxYhiieATi2sohkMogShlEDnIE4tFhiPIxEE+Mg3iKQWwagtiCs9snQjxvNQlEm64hkCMQGcjxEO3GQuQgRyAKAStzMXOIIoSzSBQNR+J/GkTB35gA5vIonFEkfl6Ix4eOM4/ExuHj/HdFouBvnIOPh0h5cerjzPPidDlxuuM8NieOP84TcuJnOM6CnxEB/DwQWWH5P5YTBT+jbMwexM97nBXVeXwkfs7jLPgygP9ciH93ThR8DbMw+xD/E3JiH36064PgQwD/Joj//JxIAFdk4tNBVD8nRq2rxv41Vdi/mn6tRtQaCaLWSnFwnRSHN4ydWP4dmm3Be0UG/k6Ie83FCDEuR/CKcoQYiRFhVomDG6txbJsEJ6ykOGktw/HtMhzZJMP+1VJEmEgQsUqKfWYyHFpfg/EQP3dOZAA/PcSxOTHMtAyBBiIEG5bh0JZKXAuuxcurzciO6UB1YS+aavrR1TaA9938od831/RDUvgeObFdiLnWhpthjThlLWcg95nW4PD6WhwbNzuPr86fok8UvAzSQQA/OUSLUuwxLoW/XgmiNpbj7iE58uI70N7Uj8k+BgeA/veD7BkYGJzsr6CrdQCFiT14dKIFpyzrsM+kBofWfb7Z+QfbHgieBun4lBBJwQleWQwfnSIctRYj7lYT2homh1aY1IkfvGQ47yzFGXspTlhLcNJGirP2MvzgUYube+vx7PsWZL7oRF1F3xiobQ0fkPR7By461WOfSS2OrJcPqzjjI3E2+0TBU/8dPhXEPaYErgCR60sRd6sRvV0Dwy9aWtKDJxfr8fBUHZpkHAYd2YS7LYhcXYEQYzEiLCoRaV6JvaZVCDWuRKhhJcKMqhBuTNKYFJfd5PjzbAsqcnqHP29P5wADecqqDvtNa3F8M5fCOMTZn505wFmGuMe0EAFGhfDWycevkVI01Y5ES2FKB64GSBCyqhT+uiXw0y3BvvXliLvVDMVRbarpwzHLKoSbiBFiKGZV+biVFIc3SxC+qgoRptU4sFaCA+ukuBHSgNzYruF/qyDZIv+Ah0daGMQjG+pwYiuBnEZPnMHsLHjop4FF4WxBNC2Aj14eSJRNfdKseD2oKuzGFf9q+OsXwX95McLMhkTZ1WUINRExmBfdJagVv0dBUierzBHmFXjxYxNqyt6jt3uAHf2815244lmLPfqVOGNXM/z56TcNVX3IetEFSdH74T/Pet7F9MSDayaH+DHHmURZwX15GmYLYpBJPjy0cxG1tYQBo1cx8GEQTy/LEWhUCF/dAoSajlK2zcf2iUGGIkRtJFWbjq8Y5VndwyCooCg+PvQN4m5UA4OYdK8db+624UevOibM7jWW4uDaGsRea8PAUMaQlfThomMDDpjLJ43EGUPkAN9iViCuyoP70mwcsytFs5wf2UbZe5xzK4eHVh6CVxZOvh4YB5FanIDlpUh93Mp4UcG5HSXH0e3VOOcsRVZ0B/tzypdUXFhOXFmNSHMJDq7n6wHqD8ONpbgW0IDmWl6w2uo/4KpHI6LGQPyYnNjJ1gPC7uUE8OMgkiC7e2kWjtqWoL2Zf8PivC5EbCiC57JcUE6ccscyaj0QYiLCMetK9L0fwIf+QVzxkcFPW4S9ZmKEGouxx1CMkrc8MhNut7LCMrJj4XqiYscSaSLFaRs5qgv4ke5sGcCPHo1KI1H9PrETwm69VOxenjpjiKQlemhnIeK7QjTX8W9UlNkBOs7eunkINlUsq1SDGGhQimt7ZCzKqot6WLMduXpkxxJsIMbdqDr2/0UZ3QhfVYkDYxZVo0TZTTXYby7D0e9qIc7ilZranQsODTg0SzlRcNNLAUF0nyFEr+UkRmSjuriLvaiK/E4ErsyFl14Ogzh62zfdoooKS4B+Ca6FcIBVhQRQhIjVPC+Sqh1sUI47+8cBXFeNsdu+sRCjLDhEmmToo1bUh2Ob6sCqM1sRjK3O6uREwU03BTOF6LMiC7s005H8pJF9Y0017xG2Nh+eOtkIXKX6to+a7RCTEgQbFyPAoBhHrMTo7xsEFYtLnhL4LCtBuFk5q8xB+mUoSulkXy/hTiv2rKhQsjIdC5Ei8bS1HC1DOTEnuhv7zT6yT7Ruh+Cqm4yxEFXMiYaZcF70DldDy9mLoXx12rUUbksy2ZJKnUVVkHERAlYUIf1FKxJ+a4b3siKkPmlhn7elrh+/7q3Bwc0VOGVXjfRn7ezP+3oGcNpOgr1mFYhap8LKdFMNIlfJcM2/geVW+iQPj7WyPlGZsq1KTmQARyCmqnyc3XXT4W+ShWY5PxZPf6yBs0Y6/Nh+RfUdC8HzW16AtGccGL2ww9vLEWJSCnH2SBvzvmdkiqHW6E6UHP46Zdi/Vr1FVbiRFHHX+Q+hvfEDm6E/ZuwTXHSSQADVgrgiHY4L3+Llr7yRlZR2wVMvE976mVBnxxK0qhBe2vl4c7+JR1XvIH4OkSDIqBhBRiUINy/Fi58aIK/oRV/vIDqa+5H/pgOXPKSsMp91kiDSgjsguAti6kik6kwtzoG1NagR8VYr5UEnm51HOyDGTyxT5UQGUC2IBu/guiwNYRty0Nv9gb3wCz6l2LX4ndrKtrtWLh6dr2Wfg8a4n0Or4bW0AKFmJQiz4HnRT68Y4eYiHN4mRtR35QhaUcqksLSnbWw6ueIrQ4hROXM/qAoxwkSKm6E8b/f1DOKiY/2wiqOunijs0k4EAZwIUVGdJ+ZE+wUpeHGdR19RWht2LUmDtxrKNptYluXigqd4eIa9d7KGNdyTeXFCTUvZ7EwjX7hFGYKNRMiK5seQKnWYiZgJEOoc50hTKcrSe9gPL+V+JyJX1aivJ1q2gAFUDnFiTnTTeQvfleloa+JH4IJPCZwXv1VLT/Q1yEWIRQFoUqGPpEdN8FiaB2pzlBqaRjfbq0Q48J0Y7Y28ab93rA5BBpQPydSkmheHmuxb4TwKO1sHcMpSjsMbSJRVT08UnLXfgACqCtF+QTJ+2itiL1xW3gV3nXfwXK66KEsuCC/dHOS85qOapKQbAcb5CDDMZwLE1BPL0Oy8ugx+eiV4fK6efR8N0j5Qs03zs6oQaeyLWiNFbTkPhD9OtoCUbeYMUwkid4QJzssSoCpEGvscFiYhM5Yn/T8uSWA/P4UJslOJst76WXBflondSzPZ1OKjn4OX1+VobejDGZcyeOrkqjGxcIhhZiKEm5ehQcKj+MHJegQalKnlCgs3kiD6J/6DLE7pwT4zdXcszRCcCKBKEFPgsiwFfibv0NnGj87BHXnYtSSVy2HjlW3DTFCj7aL5DoGmOTjvKcJPoWKcdimF74ocOC/IQMTGQvgZ5k7wJ043sVB1Jn8iaYkPT/OppLa8F2Gm5SwKaWJRxYuzz0KCS7vrMDgIkBBLjfbYRdX0XhzBcWk8VIVor5GIU7sL2LGRV3Zjt95b7NabXE/0MsiAy5J3uHGwEo2yEcWY/nFVYRfOe5bBZVHmR7jCSlmvuG9dOdqGciHN0LSoIjmMA5w6J9KqlERZxXqAciJt+8jkOX7bp6zZZgBVhbhj3hvcP1/JACY/rYfdgiSlUhgVlntnqtnfpf/UlHcjL7EVLUOCAzXDF73L4L4sa+YQLUTw1S1G/B2eUrJj2hGoLxpyyqoGkdYDGc/5aBh7vQ17V0qHnbKqQBQcl74GAXRcmjBtJO6c/wYpf/HEfee4GJZfJsBBIxlUWOzm068prEd0007Dvm25wyPTg/MSuGtn8F7RKBspQ7Nzg7SXjX1+hjkzhhhkWIJzLlXA0DE8tKWCHWVuN54eYphxFf66yJXzvNfdoB5xtN14PERFn8jtxo0QHLQIIIfoNAXEXdpJcFicCFF2G4uq7wOLEbQmHed8inDjUDkeX67Gy5s1OONeBJuvkvDHZQn7e1lxzbCf/xYeyzOYA2K3dga89LMgr+Q92GX/chaF6szOoz3boWalCDYugaSYf747B2oRqF86yrPNISrLibRjuRHGg0Ja/J4t75U7IMbmRIIo2GvFYTREZZHovDQRbnrJqK3gslVHKy//w2d06Dcvrsuw5b8TkPwn/6ZuH6uEw8LU4T6RfDjOGu+GFZx7pyVw1aQKnQUv3WwEGKuu4rCJxbyErUxfXeM9XfrzNvgvL2HGd1XsxhGmVbi8m09DLfJ+HNksw8F1CvP79J5twX5JHFSB6LjkDbyMU9BSz9sG4kW/L81qw9vnDXh1U4YnVyQ45pQP6zmJiLnDv6nnv9Rg5zcpDCBf4HMVp+gtj+Tr+yvhuiQDtw9X46RTKTx0suCxLBsBRhNvDyirzgEGRbjszfNto6yP3R6g8Y9uD0wHMdKiCmfsZGx3090+gBOWMubFIdO7KsZ3wW5JLFSB6KCZAB+TVPR0fUB/3wCOOOUyHdFxcRJsFyRi57eJsP02Ebu0UuC0OAUXfItZTLY397F8SBCdFr2F7dxU/BBcxkY40vxC1ubikHXhcCAXJLfhSpAY1Cu6E8iVY69gTAYxeFUxIjeUoqOFt1dnnCoRbFyqkvE90qISJ6ylTKwgweKkDTXYEhzaOEpPHHUFY3xOZACVQRydE+01E+BtksIEBJKWPAxTYb/oDVx1JuqJu3XfMpAFKVyiam/qw8ML1fghWITom7XDxeXF9Vo4zE/DAcsCZEQ3M3FAQbI8pxNXAivgqZ0Db71cBA3dYeF3WcauB0JMSYgtQmk6r6a3D9TAX794zD2W8ZGoyIkR5gRQwgC+7xnESWspc4XxeyzTQayDYKsZAw5w6kh00IyHh1EyOlr6WLgHrXsHB803SqUwikSamfOHICrAKH5NuF8Hd510eBtkMinMRTMdEZvy8fRKDVrrR/JrTnwrDlkXY/cSyo/5w5eBxkeit04BEn7n7UzMr43w1S2acBloPEQa+0iQPW0rYa+pq30Ax7ZLmLVu/KJK2XFmAFWB6LAkHi66b1An4dUu0ioTdhoJk6g4QwKEPo9Cl2WpuBJSiqQn9chLbEHc73Kc8SiGy5I0eOhRZR7xJ3roZmLXonQEm+cykD2dXC6jpfr90zJ46ebCV3/yRRUBvH+S593sWCokRUxPnO4eCyk5F934DoZWoGStI1+i0h3LuOMs7NSMBgFUQFR2nB214mGr8RplOTz5n3LPw45v45VIYSMQHRclY9v/JMB2XhJ2aabCQSMFzppvpzQ00aJq16IM7NtSiMzoEaWaojFsTQE8tSfOzr56BbgaxAtJZX43E2WpxaFiMhVE8ib+soeDlxT1Mn8imTzpatrUEGlaqYWwc/ErjIdor6SwWM6NQcozOTuFN46KYDU3Drt0lOuJTkuS8ehSNWLv1iJiaw5clirmZtUMTVSRd2tl4kZUFbo7eDTWV/fihEMp3LVyxhxnP/0CnHMVs++NdtMKQZbd7RslhSnu9imOM8lgj881sH+XG9fJTJ4q7VhYJNZC2EEAVYS47ato/H6OL5HiH9bCcm6sUinMRTsZrjopaKrlc/Bp90JQNKptIzHMgcviDBy0LGIzNL1S6gR+DKICkzsMMdC4AJEbSvD4ghy3D8oQZlEMKi7DFySVQKTRj9Rt+oi+1gzaO6uibCtyorBj0UuoCtFqXgyOuWazLyYp6wTlRarUk+mJjpqJCN2Ywfurjn74m6WD8uFMbCS0vKeZ2d8oF1kxI0f657BKeA/lRS+dPAQYFcBLOw9uGrmgI83VbeVeHLptGmZWhppy/kO+HlrL1wMqirKHv5NBsCGAwxCjJxzn0TnRViMW7kaJ6GrvZxJQ6OZ32Lnw9aR6ou2CBJzx5MpNeV47nLWShzZ+M7OREEQvvWzWGyY/bmRqNllJXBZl47i9CMmPmyAT9UBe2Yuc1234KbgavssLsMekaCgKh67qjsqJe1aW4oxDFetJybt4ZFsls5CoKspSFAo2Gi8wHcTROXH719HIiOM5487pMmz7KgbOy95MgGjzTTxuHi1j0Zr8tI4129wBMXHHoqrJkyD6GGTD1zAHYevysWthJq5HVqGvd2Tlyb7g0H/i7jTCT5/WBHTneXQkcj2R7MZ/fs9HzqLUzjFSmKJPnPq+sxSCNQFUFaJWHLZ+9QqXQ/nkUFnUDluNOFCFHi/KWs99jT+v8qr4188S7JiXADfy4XyEjYRWpgSR1JvdWtzMRO4F+sh41YKzbuU46SjCy1/qMDjkq/7tqAw+ZKsbd2mcbCSjRYj7x+vYtk9VFUfRJwrWGs8xOcTJq/NOjRi46iegvZnPxEecs2D1TewEKYwAvrwlZS/uwcVK2HyTMOSA+HiItLwnB0Tqn7xxJnhumtnwoKlFNw+7Fmbj4Rm+Nayr6kXwqiL2jIZIk8oPPvwH3NX2AQc2iUHWOkV1VlWUFawWEsARiCwfTpET6Thv/uIl/rpexeBkJzTC8usYpimOVrapxXl+g0tajy4RwHj1lvdT3B7wWUHHOBu1FbypP+MqYgIE8+Osyof/inyEmBeyRTx9k8dsy+C/Yqw/0VevEPmJ3GuYeL+Z3R4Y3+KoAlGwWvgM4yFOlxOtvo2Gr0US3vfw3uywUxYsv45mUaiAaPl1LB5f4ZD/uiYBReRYB4TyvfN0OdHbIIs5IKgnZIDsS7ihaejtC/xJyVlZgOY6PhKedCiDv0HB8MqU4H3vxZV1yp/Hd4rZcR79HhDjI1FZThQsGUD1IW761ws8G4rC8rw27FgQCzvN13BcxpVtAnjrOC8iCY9qYTOPTy1jIc78OLtqZSD3Dd+oPb8mh+O8dPgY5MDfMJcVl0v+YtYp0D2UsNVFoD6RVqZ0nCkaK/K474aij65g0KJqukvjk1VnwXLBX1AN4khOtNOMgfWCaLgsj0dLPY+Cu6fLsPlfL4fXA5QXLwTwNiYvuRk7F8SDVO2JDoiZQSSAlwL4D4j2K/dOSRBoksdu31/yLUfLkCARfaOeuWRJxSGnLNmNH1/k0xTB3beRigk13NOPfTwKFYuqKuYKE7YveIqpICrLiXZLYrD5i+e4EJTHjhFZciOs3mH7HDrK8bCZH4d9Nhns/8mru1mz7bT0zdSzs5omT1etdETf5DDoC9EI11Q7IviWZnQgcGU+/A3z2d7ZSzsXp5zKh9semlhIhAhlb+cysU+cLifSyCdsn/8U00FUlhN3Lo7Blq9e4M0TXvHkVV1wNUiA9bcxsFv8Gp7GSeju6MeHD4MIXJcGu0UUhcpnZ7X6RMNMeOlnwm1pOm4dqoJUNGKFI8vdi1/kbEVALohg03x46+UhbE0hFHkz41UrfHTyQZeBRlfn6WbnMYVlXSWEbfP/xLaPgGg1/xXstWJRVcLNPsUZLbDTjGMQdy6MQ2k2z1NnffJhPS9u0rFPLWvd6OpsmAnvFVlw1UyHu04GIjcX4MjOIgSb58FZIwMnHEsQtraAWUmosJRlccG1pryHHecAw5HCMlOIwlYGcCYQeU6ko7zt6xfwsUhESwPPh7lJTWxNsP6/nuP5Dd5rPbteje1zYidMLB+dE4ci8YBVAfaszoW7dibctDIQe5s7DmjX4qaZhcJU/gNua+zDwe0l8NHNU+H2wNRSGOVEYeu3T8AhPlUpEifLiSwffvkCIVtShxvsovQW2C2OQ5Qtz4NVxR2wW/QaTlqqe3FUMb576dOaNAN11T1M8jrmUAyHb9/h4XkuktLRLkrj8Dpb+3HCQcSLisq3B6aGKGwhgKMgzjgnLonBpi+eM4hNct7gysSdOOychXpZD2spwra+w44FcRPGPnX9iaP7RBetNJzcVcSKVVdbP4tCt6UZ8NTLApneFR9UlY/bl7LLQORPVOf2wFQtjrBl3mMoICry4UxzoiISvc0TIc7nGltvzwe0NvEXcu98ObZ+yRvu8bPz5BCnbnHIEeawIBVxv/FK/OZhPay/SIGnXgYeXZAy3ZAAVhV1MXWb5md1bg+MFyAm6xOFzQRwViCOzokv2aLq9QN+jBRRQBqizfxYbKfRjwkQE1UcdXKim04a/E0zQavT/vcDOGhTgKP2hRDn8WJBX5euYDA9UTtL7dsDEwvLxOMsbJ73Bz4GorKcaD3/FWtxzgfmokE20mLkJDWCRj9ScbbPiWF6IrkhmCirdD0wMRLJFWYzJwl3TvCRjJb8Wa9Hboc21rzHT+Fi0LbPSy9r6N2ZVL89oNwpOxaisOkbAjgRoqKwzDgnasaA+sTNX7xgE8uTq5VMiFVEY1leG26fECFkUxpoZUrrARIgdsyPh92iBLYydVqSCGetJDgtSYKjZhLsFybBdn4S7OYnwVU7FVHWuaiX8nyr+Ly0ySM3RKBpNrvHQh7FT/m+OMKmbx5BGcSPzYl808fHPgLpbZaEx1cr0FzH2x3Fi64q6UDcvRpcP1SKE265iLDMAO2d/czews8sDcHr0rHPKhunPQpw62g5Eh7KIRVxj47iczTJe/HsZxm7PeCo8RZ0j2X0ynT2IfJIFL6b+xCfBuLY2ZlWA9bzo5kU5qIfj0t7CpD2qo7lLwWE0b/S9EIOCFJ86BbUZB+05M+IacLVcBH8VmUM2+umshurc49l/PJ+Qk60EIEBnE2Ik+XE0Xtn0hN3aMRi65yX2D43Gu6Gb3DUJRu/nS1H8lM5ynLb2LHsbO0DVXC6i9LZ1sf+jHYrqc/q8eBCJU67F8DP9N2wP5FuD/D2RrWV6Wy94Zqwce4DEMDpIM5GTlQs79mORYu7wnZqxMLqmxjQypTyIC3vyQHhaZzMzEw+pqnwXpkKt+XJoE2f7fwEkFOW7Ma7lpKmOPMdy2xAFDZ+/QCqQpyNnDgG4iTWOgeteLYudVgcD3vNeJArjKx15E8kOYzMTDOendW4DDT+jXmVHWdhw9f3wSHyKJwuEmcOcSQnTgdRmclzJs32p3pLF8WNKmHDnPsYgajacVYH4nQ5cfTeWRWn7L8bRGH9nHsYC1G1SJz1nDjJcR7tT5z+MtDMdywf0+IwgDOFqE4kKhNl/+nHWVj31e8ggJ8f4j8/J9KbCwlrv/odyiH+f06c+i2iCeCXv2FqiP+fE6eCKKz58i5mC+J/Yk5kAP89IP4zc6Kw+os74ABVicTZz4nTVed/9z7xfwHy0YmHsFrqdgAAAABJRU5ErkJggg==;" vertex="1" parent="ooqM9sPuauhWhxl2Y_vB-58">
          <mxGeometry width="80" height="80" as="geometry" />
        </mxCell>
      </root>
    </mxGraphModel>
  </diagram>
</mxfile>
